<?xml version="1.0" encoding="UTF-8" standalone="no"?>
<!-- Created with Inkscape (http://www.inkscape.org/) -->

<svg
   xmlns:dc="http://purl.org/dc/elements/1.1/"
   xmlns:cc="http://creativecommons.org/ns#"
   xmlns:rdf="http://www.w3.org/1999/02/22-rdf-syntax-ns#"
   xmlns:svg="http://www.w3.org/2000/svg"
   xmlns="http://www.w3.org/2000/svg"
   xmlns:sodipodi="http://sodipodi.sourceforge.net/DTD/sodipodi-0.dtd"
   xmlns:inkscape="http://www.inkscape.org/namespaces/inkscape"
   id="svg2"
   version="1.1"
   inkscape:version="0.48.4 r9939"
   width="312.5"
   height="312.5"
   xml:space="preserve"
   sodipodi:docname="nhvio-logo-vert.pdf"><metadata
     id="metadata8"><rdf:RDF><cc:Work
         rdf:about=""><dc:format>image/svg+xml</dc:format><dc:type
           rdf:resource="http://purl.org/dc/dcmitype/StillImage" /><dc:title></dc:title></cc:Work></rdf:RDF></metadata><defs
     id="defs6"><clipPath
       clipPathUnits="userSpaceOnUse"
       id="clipPath18"><path
         d="M 0,250 0,0 250,0 250,250 0,250 z"
         id="path20" /></clipPath></defs><sodipodi:namedview
     pagecolor="#ffffff"
     bordercolor="#666666"
     borderopacity="1"
     objecttolerance="10"
     gridtolerance="10"
     guidetolerance="10"
     inkscape:pageopacity="0"
     inkscape:pageshadow="2"
     inkscape:window-width="640"
     inkscape:window-height="480"
     id="namedview4"
     showgrid="false"
     inkscape:zoom="0.7552"
     inkscape:cx="156.25"
     inkscape:cy="156.25"
     inkscape:window-x="0"
     inkscape:window-y="24"
     inkscape:window-maximized="0"
     inkscape:current-layer="g10" /><g
     id="g10"
     inkscape:groupmode="layer"
     inkscape:label="nhvio-logo-vert"
     transform="matrix(1.25,0,0,-1.25,0,312.5)"><g
       id="g12" /><g
       id="g14"><g
         id="g16"
         clip-path="url(#clipPath18)"><g
           id="g22"><path
             d="M 0,250 250,250 250,0 0,0 0,250 z"
             style="fill:#ff7b1a;fill-opacity:1;fill-rule:nonzero;stroke:none"
             id="path24" /><path
             d="m 15.5,24.83 c 0,0 0,2.42 1.1,3.67 0,0 1.1,1.25 3.15,1.25 0,0 2.11,0 3.28,-1.25 0,0 1.17,-1.25 1.17,-3.67 0,0 0,-2.35 -1.19,-3.61 0,0 -1.2,-1.27 -3.26,-1.27 0,0 -1.84,0 -3.05,1.14 0,0 -1.2,1.14 -1.2,3.74 z M 42.05,21 l -6,0 0,39.61 6,0 0,-39.61 z m -6.5,50.33 c 0,0 0,2.06 1.01,3.02 0,0 1.01,0.96 2.52,0.96 0,0 1.46,0 2.5,-0.97 0,0 1.05,-0.98 1.05,-3.01 0,0 0,-2.02 -1.05,-3.01 0,0 -1.04,-0.99 -2.5,-0.99 0,0 -1.51,0 -2.52,0.99 0,0 -1.01,0.99 -1.01,3.01 z M 88.96,40.84 c 0,0 0,-9.68 -4.89,-15.12 0,0 -4.88,-5.44 -13.47,-5.44 0,0 -5.32,0 -9.43,2.49 0,0 -4.12,2.5 -6.36,7.16 0,0 -2.24,4.66 -2.24,10.91 0,0 0,9.68 4.84,15.08 0,0 4.84,5.41 13.44,5.41 0,0 8.31,0 13.21,-5.53 0,0 4.9,-5.53 4.9,-14.96 z m -30.18,0 c 0,0 0,-7.59 3.04,-11.57 0,0 3.03,-3.97 8.92,-3.97 0,0 5.89,0 8.94,3.96 0,0 3.06,3.96 3.06,11.58 0,0 0,7.55 -3.06,11.47 0,0 -3.05,3.92 -9.01,3.92 0,0 -5.89,0 -8.89,-3.86 0,0 -3,-3.87 -3,-11.53 z"
             style="fill:#ffffff;fill-opacity:1;fill-rule:nonzero;stroke:none"
             id="path26" /><path
             d="m 53.08,85 -11.03,0 0,23.59 c 0,0 0,8.75 -6.5,8.75 0,0 -4.63,0 -6.69,-3.14 0,0 -2.06,-3.15 -2.06,-10.2 l 0,-19 -11.02,0 0,56.22 11.02,0 0,-11.45 c 0,0 0,-1.33 -0.25,-6.29 l -0.25,-3.25 0.58,0 c 0,0 3.68,5.93 11.7,5.93 0,0 7.12,0 10.81,-3.83 0,0 3.69,-3.83 3.69,-10.99 l 0,-26.34 z m 36.99,0 -2.14,5.5 -0.28,0 c 0,0 -2.78,-3.52 -5.73,-4.87 0,0 -2.94,-1.35 -7.68,-1.35 0,0 -5.81,0 -9.15,3.32 0,0 -3.35,3.32 -3.35,9.46 0,0 0,6.44 4.5,9.49 0,0 4.5,3.06 13.57,3.39 l 7.01,0.22 0,1.76 c 0,0 0,6.14 -6.29,6.14 0,0 -4.83,0 -11.38,-2.92 l -3.66,7.44 c 0,0 6.99,3.65 15.47,3.65 0,0 8.13,0 12.46,-3.54 0,0 4.34,-3.55 4.34,-10.77 l 0,-26.92 -7.69,0 z m -3.25,18.72 -4.26,-0.14 c 0,0 -4.82,-0.16 -7.16,-1.74 0,0 -2.34,-1.59 -2.34,-4.84 0,0 0,-4.67 5.34,-4.67 0,0 3.83,0 6.13,2.21 0,0 2.29,2.21 2.29,5.85 l 0,3.33 z m 31.9,-18.72 -15.39,40.39 11.53,0 7.8,-23.01 c 0,0 1.3,-4.36 1.62,-8.27 l 0.22,0 c 0,0 0.19,3.47 1.63,8.27 l 7.76,23.01 11.53,0 L 130.03,85 118.72,85 z m 49.22,33.31 c 0,0 -3.51,0 -5.5,-2.22 0,0 -1.98,-2.21 -2.26,-6.31 l 15.45,0 c 0,0 -0.06,4.1 -2.13,6.31 0,0 -2.06,2.22 -5.56,2.22 z m 1.55,-34.03 c 0,0 -9.75,0 -15.24,5.38 0,0 -5.5,5.39 -5.5,15.25 0,0 0,10.15 5.08,15.7 0,0 5.08,5.55 14.03,5.55 0,0 8.57,0 13.34,-4.88 0,0 4.77,-4.87 4.77,-13.48 l 0,-5.35 -26.06,0 c 0,0 0.19,-4.7 2.79,-7.33 0,0 2.6,-2.64 7.3,-2.64 0,0 3.64,0 6.89,0.76 0,0 3.25,0.76 6.8,2.42 l 0,-8.53 c 0,0 -2.89,-1.44 -6.18,-2.15 0,0 -3.29,-0.7 -8.02,-0.7 z m 62.73,0.72 -11.03,0 0,23.59 c 0,0 0,4.38 -1.55,6.57 0,0 -1.56,2.18 -4.95,2.18 0,0 -4.62,0 -6.68,-3.09 0,0 -2.07,-3.09 -2.07,-10.25 l 0,-19 -11.01,0 0,40.39 8.42,0 1.48,-5.16 0.61,0 c 0,0 1.85,2.93 5.08,4.43 0,0 3.24,1.5 7.35,1.5 0,0 7.04,0 10.7,-3.82 0,0 3.65,-3.81 3.65,-11 l 0,-26.34 z"
             style="fill:#ffffff;fill-opacity:1;fill-rule:nonzero;stroke:none"
             id="path28" /><path
             d="m 43.45,149 0,25.63 c 0,0 0,4.82 -2.2,7.21 0,0 -2.2,2.39 -6.89,2.39 0,0 -6.22,0 -9.11,-3.35 0,0 -2.89,-3.36 -2.89,-11.1 l 0,-20.78 -6,0 0,39.61 4.87,0 0.99,-5.42 0.28,0 c 0,0 1.84,2.92 5.17,4.53 0,0 3.33,1.61 7.41,1.61 0,0 7.15,0 10.76,-3.45 0,0 3.61,-3.46 3.61,-11.05 l 0,-25.83 -6,0 z m 35.06,-0.72 c 0,0 -8.78,0 -13.86,5.35 0,0 -5.07,5.34 -5.07,14.84 0,0 0,9.58 4.71,15.22 0,0 4.72,5.64 12.66,5.64 0,0 7.45,0 11.79,-4.9 0,0 4.34,-4.9 4.34,-12.91 l 0,-3.8 -27.29,0 c 0,0 0.18,-6.97 3.52,-10.59 0,0 3.34,-3.61 9.42,-3.61 0,0 6.39,0 12.64,2.67 l 0,-5.35 c 0,0 -3.19,-1.37 -6.02,-1.96 0,0 -2.84,-0.6 -6.84,-0.6 z m -1.62,36.02 c 0,0 -4.78,0 -7.62,-3.1 0,0 -2.84,-3.11 -3.34,-8.61 l 20.71,0 c 0,0 0,5.68 -2.53,8.69 0,0 -2.53,3.02 -7.22,3.02 z m 58.75,-35.3 -7.27,23.23 c 0,0 -0.68,2.13 -2.56,9.69 l -0.3,0 c 0,0 -1.43,-6.33 -2.53,-9.76 l -7.47,-23.16 -6.93,0 -10.82,39.61 6.3,0 c 0,0 3.83,-14.94 5.83,-22.74 0,0 2,-7.81 2.3,-10.51 l 0.28,0 c 0,0 0.4,2.06 1.29,5.33 0,0 0.88,3.26 1.53,5.19 l 7.27,22.73 6.5,0 7.08,-22.73 c 0,0 2.03,-6.22 2.75,-10.44 l 0.28,0 c 0,0 0.16,1.29 0.79,4.01 0,0 0.63,2.71 7.52,29.16 l 6.22,0 -10.95,-39.61 -7.11,0 z"
             style="fill:#ffffff;fill-opacity:1;fill-rule:nonzero;stroke:none"
             id="path30" /></g></g></g></g></svg>