<?xml version="1.0" encoding="UTF-8" standalone="no"?>
<!-- Created with Inkscape (http://www.inkscape.org/) -->

<svg
   xmlns:osb="http://www.openswatchbook.org/uri/2009/osb"
   xmlns:dc="http://purl.org/dc/elements/1.1/"
   xmlns:cc="http://creativecommons.org/ns#"
   xmlns:rdf="http://www.w3.org/1999/02/22-rdf-syntax-ns#"
   xmlns:svg="http://www.w3.org/2000/svg"
   xmlns="http://www.w3.org/2000/svg"
   xmlns:sodipodi="http://sodipodi.sourceforge.net/DTD/sodipodi-0.dtd"
   xmlns:inkscape="http://www.inkscape.org/namespaces/inkscape"
   width="382.5"
   height="202.5"
   id="svg3025"
   version="1.1"
   inkscape:version="0.48.4 r9939"
   sodipodi:docname="sticker-back.svg">
  <defs
     id="defs3027">
    <inkscape:perspective
       sodipodi:type="inkscape:persp3d"
       inkscape:vp_x="0 : 101.25 : 1"
       inkscape:vp_y="0 : 1000 : 0"
       inkscape:vp_z="382.5 : 101.25 : 1"
       inkscape:persp3d-origin="191.25 : 67.5 : 1"
       id="perspective4434" />
    <linearGradient
       id="linearGradient4350"
       osb:paint="gradient">
      <stop
         style="stop-color:#ff7b1a;stop-opacity:1;"
         offset="0"
         id="stop4352" />
      <stop
         style="stop-color:#ff7b1a;stop-opacity:0;"
         offset="1"
         id="stop4354" />
    </linearGradient>
  </defs>
  <sodipodi:namedview
     inkscape:document-units="mm"
     pagecolor="#ffffff"
     bordercolor="#666666"
     borderopacity="1.0"
     inkscape:pageopacity="0.0"
     inkscape:pageshadow="2"
     inkscape:zoom="2.0000001"
     inkscape:cx="249.20242"
     inkscape:cy="131.92715"
     inkscape:current-layer="layer1"
     id="namedview3029"
     showgrid="false"
     units="in"
     inkscape:window-width="1600"
     inkscape:window-height="876"
     inkscape:window-x="0"
     inkscape:window-y="24"
     inkscape:window-maximized="1" />
  <metadata
     id="metadata3031">
    <rdf:RDF>
      <cc:Work
         rdf:about="">
        <dc:format>image/svg+xml</dc:format>
        <dc:type
           rdf:resource="http://purl.org/dc/dcmitype/StillImage" />
        <dc:title></dc:title>
      </cc:Work>
    </rdf:RDF>
  </metadata>
  <g
     inkscape:label="text"
     inkscape:groupmode="layer"
     id="layer1"
     transform="translate(0,-541.59399)"
     style="display:inline">
    <g
       transform="translate(-8.8388345,547.82622)"
       style="font-size:15px;font-style:normal;font-variant:normal;font-weight:normal;font-stretch:normal;text-align:end;line-height:125%;letter-spacing:0px;word-spacing:0px;text-anchor:end;fill:#000000;fill-opacity:1;stroke:none;font-family:Open Sans;-inkscape-font-specification:Open Sans"
       id="flowRoot3012">
      <path
         inkscape:connector-curvature="0"
         d="m 80.55127,72.151326 0,3.265625 -0.913086,0 0,-7.85254 2.153808,0 c 0.963212,8e-6 1.673986,0.184416 2.132324,0.553223 0.461909,0.368822 0.692865,0.923835 0.692871,1.665039 -6e-6,1.038416 -0.526372,1.740238 -1.579101,2.105469 l 2.132324,3.528809 -1.07959,0 -1.901367,-3.265625 -1.638183,0 m 0,-0.78418 1.251464,0 c 0.644528,4e-6 1.117184,-0.127112 1.417969,-0.381348 0.300776,-0.257808 0.451167,-0.642736 0.451172,-1.154785 -5e-6,-0.5192 -0.153976,-0.893385 -0.461914,-1.122559 -0.304366,-0.229159 -0.794926,-0.343743 -1.47168,-0.34375 l -1.187011,0 0,3.002442"
         style="font-size:11px;fill:#000000;fill-opacity:1"
         id="path3877" />
      <path
         inkscape:connector-curvature="0"
         d="m 87.152344,69.530232 0,3.818847 c -2e-6,0.47982 0.10921,0.837892 0.327636,1.074219 0.218423,0.236329 0.560382,0.354493 1.025879,0.354492 0.615882,10e-7 1.065263,-0.168293 1.348145,-0.504882 0.286453,-0.336588 0.429682,-0.886229 0.429687,-1.648926 l 0,-3.09375 0.891602,0 0,5.886719 -0.73584,0 -0.128906,-0.789551 -0.04834,0 c -0.182622,0.290039 -0.436853,0.512044 -0.762695,0.666015 -0.32227,0.153972 -0.691084,0.230957 -1.106446,0.230957 -0.716148,0 -1.253257,-0.170084 -1.611328,-0.510254 C 86.427245,74.67395 86.249999,74.12968 86.25,73.381306 l 0,-3.851074 0.902344,0"
         style="font-size:11px;fill:#000000;fill-opacity:1"
         id="path3879" />
      <path
         inkscape:connector-curvature="0"
         d="m 95.799805,69.433552 c 0.773433,6e-6 1.373204,0.26498 1.799316,0.794922 0.429682,0.526372 0.644525,1.272953 0.644531,2.239746 -6e-6,0.966799 -0.21664,1.718751 -0.649902,2.255859 -0.429693,0.533529 -1.027674,0.800293 -1.793945,0.800293 -0.383142,0 -0.734053,-0.06982 -1.052735,-0.209472 -0.315106,-0.143229 -0.58008,-0.361653 -0.794922,-0.655274 l -0.06445,0 -0.187988,0.757325 -0.63916,0 0,-8.357422 0.891601,0 0,2.030273 c -10e-7,0.454759 -0.01432,0.862961 -0.04297,1.224609 l 0.04297,0 c 0.415363,-0.587233 1.031248,-0.880853 1.847657,-0.880859 m -0.128907,0.746582 c -0.608726,5e-6 -1.047365,0.175461 -1.315918,0.526367 -0.268556,0.347335 -0.402833,0.934574 -0.402832,1.761719 -10e-7,0.827151 0.137857,1.419761 0.413575,1.777832 0.275713,0.354493 0.717933,0.531739 1.32666,0.531738 0.547847,10e-7 0.95605,-0.198729 1.224609,-0.596191 0.26855,-0.40104 0.402827,-0.975747 0.402832,-1.724121 -5e-6,-0.766272 -0.134282,-1.337398 -0.402832,-1.713379 -0.268559,-0.375972 -0.683923,-0.56396 -1.246094,-0.563965"
         style="font-size:11px;fill:#000000;fill-opacity:1"
         id="path3881" />
      <path
         inkscape:connector-curvature="0"
         d="m 98.87207,69.530232 0.956055,0 1.289065,3.356933 c 0.28287,0.766278 0.45833,1.3195 0.52636,1.659668 l 0.043,0 c 0.0465,-0.182616 0.14323,-0.494139 0.29004,-0.93457 0.15039,-0.444008 0.63737,-1.804684 1.46094,-4.082031 l 0.95605,0 -2.52978,6.703125 c -0.25065,0.662433 -0.54427,1.131508 -0.88086,1.407226 -0.33301,0.279295 -0.743,0.418943 -1.22998,0.418946 -0.272136,-3e-6 -0.540691,-0.03044 -0.805664,-0.09131 l 0,-0.714355 c 0.196939,0.04297 0.417154,0.06445 0.660644,0.06445 0.6123,-2e-6 1.04915,-0.343752 1.31055,-1.03125 l 0.32763,-0.837891 -2.37402,-5.918945"
         style="font-size:11px;fill:#000000;fill-opacity:1"
         id="path3883" />
      <path
         inkscape:connector-curvature="0"
         d="m 109.91504,67.059529 0.75732,0 0,11.021484 -0.75732,0 0,-11.021484"
         style="font-size:11px;fill:#000000;fill-opacity:1"
         id="path3885" />
      <path
         inkscape:connector-curvature="0"
         d="m 116.11328,77.484822 c -0.33659,-2e-6 -0.60156,-0.04834 -0.79492,-0.14502 l 0,-0.778809 c 0.25423,0.07161 0.51921,0.107421 0.79492,0.107422 0.35449,-10e-7 0.62305,-0.107423 0.80567,-0.322265 0.18619,-0.214845 0.27929,-0.524577 0.27929,-0.929199 l 0,-7.85254 0.91309,0 0,7.777344 c 0,0.680338 -0.17188,1.206705 -0.51563,1.579102 -0.34375,0.375974 -0.83789,0.563963 -1.48242,0.563965"
         style="font-size:11px;fill:#000000;fill-opacity:1"
         id="path3887" />
      <path
         inkscape:connector-curvature="0"
         d="m 123.68652,75.416951 -0.17724,-0.837891 -0.043,0 c -0.29363,0.368815 -0.58724,0.619466 -0.88086,0.751953 -0.29004,0.128906 -0.65349,0.193359 -1.09033,0.193359 -0.58366,0 -1.042,-0.15039 -1.375,-0.451171 -0.32943,-0.300781 -0.49414,-0.728678 -0.49414,-1.283692 0,-1.188799 0.95068,-1.811845 2.85205,-1.869141 l 0.99902,-0.03223 0,-0.365234 c 0,-0.46191 -0.10026,-0.802079 -0.30078,-1.020508 -0.19694,-0.222 -0.51384,-0.333003 -0.95068,-0.333008 -0.49057,5e-6 -1.04558,0.150396 -1.66504,0.451172 l -0.27393,-0.682129 c 0.29004,-0.157547 0.60693,-0.281082 0.95068,-0.370606 0.34733,-0.08951 0.69466,-0.134271 1.042,-0.134277 0.70182,6e-6 1.22102,0.155768 1.55761,0.467285 0.34017,0.311529 0.51025,0.81104 0.51026,1.498535 l 0,4.017579 -0.66065,0 m -2.01416,-0.628418 c 0.55501,0 0.99007,-0.152181 1.30518,-0.456543 0.31868,-0.304361 0.47802,-0.730467 0.47803,-1.278321 l 0,-0.531738 -0.89161,0.0376 c -0.70898,0.02507 -1.22103,0.13607 -1.53613,0.333007 -0.31152,0.193362 -0.46728,0.495933 -0.46728,0.907715 0,0.322267 0.0967,0.567547 0.29004,0.73584 0.19693,0.168295 0.47086,0.252442 0.82177,0.252442"
         style="font-size:11px;fill:#000000;fill-opacity:1"
         id="path3889" />
      <path
         inkscape:connector-curvature="0"
         d="m 127.47852,75.416951 -2.23438,-5.886719 0.95606,0 1.26757,3.491211 c 0.28646,0.816408 0.45475,1.346355 0.50489,1.589843 l 0.043,0 c 0.0394,-0.189777 0.16293,-0.581867 0.37061,-1.176269 0.21126,-0.597979 0.68213,-1.899573 1.4126,-3.904785 l 0.95605,0 -2.23437,5.886719 -1.04199,0"
         style="font-size:11px;fill:#000000;fill-opacity:1"
         id="path3891" />
      <path
         inkscape:connector-curvature="0"
         d="m 135.33105,75.416951 -0.17724,-0.837891 -0.043,0 c -0.29362,0.368815 -0.58724,0.619466 -0.88086,0.751953 -0.29004,0.128906 -0.65349,0.193359 -1.09033,0.193359 -0.58366,0 -1.042,-0.15039 -1.375,-0.451171 -0.32943,-0.300781 -0.49414,-0.728678 -0.49414,-1.283692 0,-1.188799 0.95068,-1.811845 2.85205,-1.869141 l 0.99902,-0.03223 0,-0.365234 c 0,-0.46191 -0.10026,-0.802079 -0.30078,-1.020508 -0.19694,-0.222 -0.51384,-0.333003 -0.95068,-0.333008 -0.49057,5e-6 -1.04558,0.150396 -1.66504,0.451172 l -0.27393,-0.682129 c 0.29004,-0.157547 0.60693,-0.281082 0.95069,-0.370606 0.34732,-0.08951 0.69465,-0.134271 1.04199,-0.134277 0.70182,6e-6 1.22102,0.155768 1.55762,0.467285 0.34016,0.311529 0.51024,0.81104 0.51025,1.498535 l 0,4.017579 -0.66065,0 m -2.01416,-0.628418 c 0.55501,0 0.99007,-0.152181 1.30518,-0.456543 0.31868,-0.304361 0.47802,-0.730467 0.47803,-1.278321 l 0,-0.531738 -0.8916,0.0376 c -0.70899,0.02507 -1.22103,0.13607 -1.53614,0.333007 -0.31152,0.193362 -0.46728,0.495933 -0.46728,0.907715 0,0.322267 0.0967,0.567547 0.29004,0.73584 0.19694,0.168295 0.47086,0.252442 0.82177,0.252442"
         style="font-size:11px;fill:#000000;fill-opacity:1"
         id="path3893" />
      <path
         inkscape:connector-curvature="0"
         d="m 142.39941,73.327595 c 0,0.691082 -0.25065,1.229981 -0.75195,1.616699 -0.50131,0.386719 -1.18164,0.580078 -2.04101,0.580078 -0.931,0 -1.64714,-0.119954 -2.14844,-0.359863 l 0,-0.880859 c 0.32226,0.136068 0.67317,0.24349 1.05273,0.322265 0.37956,0.07878 0.75553,0.118165 1.12793,0.118164 0.60872,10e-7 1.06706,-0.114582 1.375,-0.34375 0.30794,-0.232746 0.46191,-0.555011 0.46192,-0.966796 -1e-5,-0.272134 -0.0555,-0.494139 -0.16651,-0.666016 -0.10742,-0.175453 -0.29004,-0.336586 -0.54785,-0.483399 -0.25423,-0.146806 -0.64274,-0.31331 -1.16553,-0.499511 -0.73047,-0.26139 -1.25325,-0.571122 -1.56836,-0.929199 -0.31152,-0.358068 -0.46728,-0.825353 -0.46728,-1.401856 0,-0.605137 0.22737,-1.086744 0.68213,-1.444824 0.45475,-0.358065 1.05631,-0.537102 1.80468,-0.53711 0.7806,8e-6 1.49854,0.143237 2.15381,0.429688 l -0.28466,0.794922 c -0.64812,-0.272129 -1.27833,-0.408196 -1.89063,-0.408203 -0.4834,7e-6 -0.86117,0.103848 -1.1333,0.311523 -0.27214,0.207689 -0.4082,0.495938 -0.4082,0.864746 0,0.272141 0.0501,0.495937 0.15039,0.671387 0.10026,0.17188 0.26855,0.331222 0.50488,0.478027 0.23991,0.143234 0.60514,0.302576 1.0957,0.478028 0.82357,0.293624 1.38932,0.608727 1.69727,0.945312 0.31152,0.336592 0.46728,0.77344 0.46728,1.310547"
         style="font-size:11px;fill:#000000;fill-opacity:1"
         id="path3895" />
      <path
         inkscape:connector-curvature="0"
         d="m 146.22363,75.524372 c -0.85221,0 -1.51286,-0.261393 -1.98193,-0.784179 -0.4655,-0.526366 -0.69824,-1.269367 -0.69824,-2.229004 0,-0.984697 0.23632,-1.745601 0.70898,-2.282715 0.47624,-0.537104 1.15299,-0.805658 2.03027,-0.805664 0.28288,6e-6 0.56576,0.03044 0.84864,0.09131 0.28287,0.06088 0.50488,0.132493 0.66601,0.214844 l -0.27392,0.757324 c -0.19695,-0.07877 -0.41179,-0.143224 -0.64453,-0.193359 -0.23275,-0.05371 -0.43865,-0.08056 -0.61768,-0.08057 -1.19597,5e-6 -1.79395,0.762699 -1.79394,2.288086 -1e-5,0.723309 0.14501,1.278322 0.43505,1.665039 0.29362,0.386719 0.72689,0.580078 1.29981,0.580078 0.49055,0 0.99365,-0.105631 1.50928,-0.316895 l 0,0.789551 c -0.39389,0.204102 -0.88982,0.306152 -1.4878,0.306152"
         style="font-size:11px;fill:#000000;fill-opacity:1"
         id="path3897" />
      <path
         inkscape:connector-curvature="0"
         d="m 151.79883,69.42281 c 0.26139,6e-6 0.49592,0.02149 0.70361,0.06445 l -0.12353,0.827148 c -0.2435,-0.05371 -0.45834,-0.08056 -0.64454,-0.08057 -0.47624,5e-6 -0.88444,0.193364 -1.2246,0.580078 -0.33659,0.386723 -0.50489,0.868331 -0.50489,1.444824 l 0,3.158204 -0.8916,0 0,-5.886719 0.73584,0 0.10205,1.090332 0.043,0 c 0.21842,-0.383133 0.48161,-0.678543 0.78955,-0.886231 0.30794,-0.207676 0.64632,-0.311517 1.01514,-0.311523"
         style="font-size:11px;fill:#000000;fill-opacity:1"
         id="path3899" />
      <path
         inkscape:connector-curvature="0"
         d="m 154.49512,75.416951 -0.8916,0 0,-5.886719 0.8916,0 0,5.886719 m -0.9668,-7.481934 c 0,-0.204094 0.0501,-0.352694 0.15039,-0.445801 0.10026,-0.09667 0.22559,-0.145011 0.37598,-0.145019 0.14323,8e-6 0.26676,0.04835 0.3706,0.145019 0.10384,0.09669 0.15576,0.245288 0.15576,0.445801 0,0.200528 -0.0519,0.350919 -0.15576,0.451172 -0.10384,0.09669 -0.22737,0.145026 -0.3706,0.145019 -0.15039,7e-6 -0.27572,-0.04833 -0.37598,-0.145019 -0.10026,-0.100253 -0.15039,-0.250644 -0.15039,-0.451172"
         style="font-size:11px;fill:#000000;fill-opacity:1"
         id="path3901" />
      <path
         inkscape:connector-curvature="0"
         d="m 159.13574,75.524372 c -0.38314,0 -0.73405,-0.06982 -1.05273,-0.209472 -0.31511,-0.143229 -0.58008,-0.361653 -0.79492,-0.655274 l -0.0645,0 c 0.043,0.343751 0.0644,0.669597 0.0645,0.977539 l 0,2.422364 -0.89161,0 0,-8.529297 0.7251,0 0.12354,0.805664 0.043,0 c 0.22916,-0.32226 0.49592,-0.555008 0.80029,-0.698242 0.30436,-0.143224 0.65348,-0.214838 1.04736,-0.214844 0.7806,6e-6 1.38216,0.26677 1.80469,0.800293 0.4261,0.533533 0.63915,1.281905 0.63916,2.245117 -1e-5,0.966799 -0.21664,1.718751 -0.6499,2.255859 -0.4297,0.533529 -1.02768,0.800293 -1.79395,0.800293 m -0.1289,-5.344238 c -0.60157,5e-6 -1.03663,0.166509 -1.30518,0.499512 -0.26856,0.333012 -0.40641,0.862959 -0.41357,1.589844 l 0,0.19873 c -1e-5,0.827151 0.13785,1.419761 0.41357,1.777832 0.27571,0.354493 0.71793,0.531739 1.32666,0.531738 0.50846,10e-7 0.90592,-0.205891 1.19238,-0.617675 0.29004,-0.411783 0.43506,-0.979328 0.43506,-1.702637 0,-0.734046 -0.14502,-1.29622 -0.43506,-1.686524 -0.28646,-0.393875 -0.69108,-0.590815 -1.21386,-0.59082"
         style="font-size:11px;fill:#000000;fill-opacity:1"
         id="path3903" />
      <path
         inkscape:connector-curvature="0"
         d="m 165.04395,74.788533 c 0.15754,0 0.30973,-0.01074 0.45654,-0.03223 0.1468,-0.02506 0.26318,-0.05013 0.34912,-0.07519 l 0,0.682129 c -0.0967,0.04655 -0.23991,0.08415 -0.42969,0.112793 -0.1862,0.03223 -0.35449,0.04834 -0.50488,0.04834 -1.13867,0 -1.70801,-0.599771 -1.70801,-1.799316 l 0,-3.501953 -0.84326,0 0,-0.429688 0.84326,-0.370605 0.37598,-1.256836 0.51562,0 0,1.364258 1.70801,0 0,0.692871 -1.70801,0 0,3.464355 c 0,0.354494 0.0841,0.626629 0.25244,0.816407 0.1683,0.189779 0.39925,0.284668 0.69288,0.284668"
         style="font-size:11px;fill:#000000;fill-opacity:1"
         id="path3905" />
      <path
         inkscape:connector-curvature="0"
         d="m 171.59668,67.059529 0.75732,0 0,11.021484 -0.75732,0 0,-11.021484"
         style="font-size:11px;fill:#000000;fill-opacity:1"
         id="path3907" />
      <path
         inkscape:connector-curvature="0"
         d="m 177.79492,77.484822 c -0.33659,-2e-6 -0.60156,-0.04834 -0.79492,-0.14502 l 0,-0.778809 c 0.25423,0.07161 0.51921,0.107421 0.79492,0.107422 0.35449,-10e-7 0.62305,-0.107423 0.80567,-0.322265 0.18619,-0.214845 0.27929,-0.524577 0.27929,-0.929199 l 0,-7.85254 0.91309,0 0,7.777344 c 0,0.680338 -0.17188,1.206705 -0.51563,1.579102 -0.34375,0.375974 -0.83789,0.563963 -1.48242,0.563965"
         style="font-size:11px;fill:#000000;fill-opacity:1"
         id="path3909" />
      <path
         inkscape:connector-curvature="0"
         d="m 186.36719,67.564411 0.98291,0 -2.83057,7.85254 -0.90234,0 -2.81446,-7.85254 0.9668,0 1.80469,5.081055 c 0.20768,0.583661 0.37239,1.151206 0.49414,1.702637 0.1289,-0.580077 0.2972,-1.158364 0.50488,-1.734863 l 1.79395,-5.048829"
         style="font-size:11px;fill:#000000;fill-opacity:1"
         id="path3911" />
      <path
         inkscape:connector-curvature="0"
         d="m 191.91016,75.416951 -2.66407,-6.960938 -0.043,0 c 0.0501,0.551439 0.0752,1.206712 0.0752,1.96582 l 0,4.995118 -0.84326,0 0,-7.85254 1.375,0 2.48681,6.47754 0.043,0 2.5083,-6.47754 1.36426,0 0,7.85254 -0.91308,0 0,-5.059571 c -1e-5,-0.580072 0.025,-1.21028 0.0752,-1.890625 l -0.043,0 -2.68554,6.950196 -0.73584,0"
         style="font-size:11px;fill:#000000;fill-opacity:1"
         id="path3913" />
      <path
         inkscape:connector-curvature="0"
         d="m 96.261719,83.602497 c -6e-6,0.794927 -0.272141,1.407231 -0.816407,1.836914 -0.540694,0.426111 -1.315921,0.639164 -2.325683,0.639161 l -0.923828,0 0,3.088379 -0.913086,0 0,-7.85254 2.035644,0 c 1.962235,8e-6 2.943354,0.762703 2.94336,2.288086 m -4.065918,1.691895 0.821777,0 c 0.809241,4e-6 1.39469,-0.130693 1.756348,-0.39209 0.361648,-0.261389 0.542475,-0.680334 0.54248,-1.256836 -5e-6,-0.5192 -0.170089,-0.905918 -0.510254,-1.160156 -0.340173,-0.254225 -0.870121,-0.381341 -1.589843,-0.381348 l -1.020508,0 0,3.19043"
         style="font-size:11px;fill:#000000;fill-opacity:1"
         id="path3915" />
      <path
         inkscape:connector-curvature="0"
         d="m 96.831055,83.280232 0.956054,0 1.289063,3.356933 c 0.282875,0.766278 0.45833,1.3195 0.526367,1.659668 l 0.04297,0 c 0.04655,-0.182616 0.143226,-0.494139 0.290039,-0.93457 0.150382,-0.444008 0.637362,-1.804684 1.460932,-4.082031 l 0.95606,0 -2.529785,6.703125 c -0.250654,0.662433 -0.544273,1.131508 -0.880859,1.407226 -0.33301,0.279295 -0.743003,0.418943 -1.229981,0.418946 -0.272136,-3e-6 -0.54069,-0.03044 -0.805664,-0.09131 l 0,-0.714355 c 0.19694,0.04297 0.417154,0.06445 0.660645,0.06445 0.612303,-2e-6 1.049151,-0.343752 1.310546,-1.03125 l 0.327637,-0.837891 -2.374023,-5.918945"
         style="font-size:11px;fill:#000000;fill-opacity:1"
         id="path3917" />
      <path
         inkscape:connector-curvature="0"
         d="m 105.20996,88.538533 c 0.15755,0 0.30973,-0.01074 0.45654,-0.03223 0.14681,-0.02506 0.26318,-0.05013 0.34913,-0.07519 l 0,0.682129 c -0.0967,0.04655 -0.23992,0.08415 -0.42969,0.112793 -0.1862,0.03223 -0.3545,0.04834 -0.50489,0.04834 -1.13867,0 -1.708,-0.599771 -1.708,-1.799316 l 0,-3.501953 -0.84326,0 0,-0.429688 0.84326,-0.370605 0.37597,-1.256836 0.51563,0 0,1.364258 1.70801,0 0,0.692871 -1.70801,0 0,3.464355 c 0,0.354494 0.0841,0.626629 0.25244,0.816407 0.16829,0.189779 0.39925,0.284668 0.69287,0.284668"
         style="font-size:11px;fill:#000000;fill-opacity:1"
         id="path3919" />
      <path
         inkscape:connector-curvature="0"
         d="m 111.22559,89.166951 0,-3.808106 c -1e-5,-0.479813 -0.10922,-0.837886 -0.32764,-1.074219 -0.21843,-0.236323 -0.56039,-0.354487 -1.02588,-0.354492 -0.61947,5e-6 -1.07243,0.168299 -1.35889,0.504883 -0.28288,0.336593 -0.42431,0.888025 -0.42431,1.654297 l 0,3.077637 -0.8916,0 0,-8.357422 0.8916,0 0,2.529785 c 0,0.304367 -0.0143,0.556808 -0.043,0.757324 l 0.0537,0 c 0.17545,-0.282872 0.42431,-0.504877 0.74658,-0.666016 0.32584,-0.164707 0.69645,-0.247064 1.11182,-0.24707 0.71972,6e-6 1.25862,0.171881 1.6167,0.515625 0.36164,0.340174 0.54247,0.882654 0.54248,1.627441 l 0,3.840333 -0.8916,0"
         style="font-size:11px;fill:#000000;fill-opacity:1"
         id="path3921" />
      <path
         inkscape:connector-curvature="0"
         d="m 119.02441,86.21822 c 0,0.959637 -0.2417,1.709799 -0.72509,2.250488 -0.48341,0.53711 -1.15121,0.805664 -2.00342,0.805664 -0.52637,0 -0.99366,-0.123535 -1.40186,-0.370605 -0.4082,-0.24707 -0.72331,-0.601562 -0.94531,-1.063477 -0.22201,-0.461912 -0.33301,-1.002601 -0.33301,-1.62207 0,-0.959631 0.23991,-1.706213 0.71973,-2.239746 0.47982,-0.537104 1.14583,-0.805658 1.99805,-0.805664 0.82356,6e-6 1.47704,0.273931 1.96045,0.821777 0.48697,0.547856 0.73046,1.289067 0.73046,2.223633 m -4.48486,0 c 0,0.751955 0.15039,1.324871 0.45117,1.71875 0.30078,0.393881 0.743,0.590821 1.32666,0.59082 0.58366,10e-7 1.02588,-0.195149 1.32666,-0.585449 0.30436,-0.393878 0.45654,-0.968585 0.45655,-1.724121 -1e-5,-0.748369 -0.15219,-1.315914 -0.45655,-1.702637 -0.30078,-0.390294 -0.74658,-0.585444 -1.3374,-0.585449 -0.58366,5e-6 -1.02409,0.191574 -1.32129,0.574707 -0.2972,0.383142 -0.4458,0.954268 -0.4458,1.713379"
         style="font-size:11px;fill:#000000;fill-opacity:1"
         id="path3923" />
      <path
         inkscape:connector-curvature="0"
         d="m 124.61035,89.166951 0,-3.808106 c 0,-0.479813 -0.10922,-0.837886 -0.32764,-1.074219 -0.21842,-0.236323 -0.56038,-0.354487 -1.02587,-0.354492 -0.61589,5e-6 -1.06706,0.166509 -1.35352,0.499512 -0.28646,0.333012 -0.42969,0.882653 -0.42969,1.648926 l 0,3.088379 -0.8916,0 0,-5.886719 0.7251,0 0.14502,0.805664 0.043,0 c 0.18261,-0.290034 0.43863,-0.513829 0.76806,-0.671387 0.32943,-0.161127 0.69645,-0.241693 1.10108,-0.241699 0.70898,6e-6 1.24251,0.171881 1.60058,0.515625 0.35807,0.340174 0.53711,0.886235 0.53711,1.638183 l 0,3.840333 -0.8916,0"
         style="font-size:11px;fill:#000000;fill-opacity:1"
         id="path3925" />
      <path
         inkscape:connector-curvature="0"
         d="m 131.89355,80.809529 0.75733,0 0,11.021484 -0.75733,0 0,-11.021484"
         style="font-size:11px;fill:#000000;fill-opacity:1"
         id="path3927" />
      <path
         inkscape:connector-curvature="0"
         d="m 140.14893,89.166951 -0.91309,0 0,-7.85254 4.37744,0 0,0.811036 -3.46435,0 0,2.873535 3.25488,0 0,0.811035 -3.25488,0 0,3.356934"
         style="font-size:11px;fill:#000000;fill-opacity:1"
         id="path3929" />
      <path
         inkscape:connector-curvature="0"
         d="m 149.88672,83.602497 c -1e-5,0.794927 -0.27214,1.407231 -0.81641,1.836914 -0.54069,0.426111 -1.31592,0.639164 -2.32568,0.639161 l -0.92383,0 0,3.088379 -0.91309,0 0,-7.85254 2.03565,0 c 1.96223,8e-6 2.94335,0.762703 2.94336,2.288086 m -4.06592,1.691895 0.82178,0 c 0.80924,4e-6 1.39469,-0.130693 1.75635,-0.39209 0.36164,-0.261389 0.54247,-0.680334 0.54248,-1.256836 -1e-5,-0.5192 -0.17009,-0.905918 -0.51026,-1.160156 -0.34017,-0.254225 -0.87012,-0.381341 -1.58984,-0.381348 l -1.02051,0 0,3.19043"
         style="font-size:11px;fill:#000000;fill-opacity:1"
         id="path3931" />
      <path
         inkscape:connector-curvature="0"
         d="m 155.95605,80.809529 0.75733,0 0,11.021484 -0.75733,0 0,-11.021484"
         style="font-size:11px;fill:#000000;fill-opacity:1"
         id="path3933" />
      <path
         inkscape:connector-curvature="0"
         d="m 166.77344,89.166951 -2.66407,-6.960938 -0.043,0 c 0.0501,0.551439 0.0752,1.206712 0.0752,1.96582 l 0,4.995118 -0.84326,0 0,-7.85254 1.375,0 2.48682,6.47754 0.043,0 2.50831,-6.47754 1.36425,0 0,7.85254 -0.91308,0 0,-5.059571 c -1e-5,-0.580072 0.025,-1.21028 0.0752,-1.890625 l -0.043,0 -2.68554,6.950196 -0.73584,0"
         style="font-size:11px;fill:#000000;fill-opacity:1"
         id="path3935" />
      <path
         inkscape:connector-curvature="0"
         d="m 178.1709,86.21822 c -10e-6,0.959637 -0.24171,1.709799 -0.7251,2.250488 -0.4834,0.53711 -1.15121,0.805664 -2.00342,0.805664 -0.52637,0 -0.99365,-0.123535 -1.40185,-0.370605 -0.40821,-0.24707 -0.72331,-0.601562 -0.94532,-1.063477 -0.222,-0.461912 -0.333,-1.002601 -0.333,-1.62207 0,-0.959631 0.23991,-1.706213 0.71972,-2.239746 0.47982,-0.537104 1.14583,-0.805658 1.99805,-0.805664 0.82356,6e-6 1.47705,0.273931 1.96045,0.821777 0.48697,0.547856 0.73046,1.289067 0.73047,2.223633 m -4.48486,0 c -1e-5,0.751955 0.15038,1.324871 0.45117,1.71875 0.30078,0.393881 0.743,0.590821 1.32666,0.59082 0.58365,10e-7 1.02587,-0.195149 1.32666,-0.585449 0.30435,-0.393878 0.45654,-0.968585 0.45654,-1.724121 0,-0.748369 -0.15219,-1.315914 -0.45654,-1.702637 -0.30079,-0.390294 -0.74659,-0.585444 -1.33741,-0.585449 -0.58366,5e-6 -1.02409,0.191574 -1.32128,0.574707 -0.29721,0.383142 -0.44581,0.954268 -0.4458,1.713379"
         style="font-size:11px;fill:#000000;fill-opacity:1"
         id="path3937" />
      <path
         inkscape:connector-curvature="0"
         d="m 182.46777,83.183552 c 0.77344,6e-6 1.37321,0.26498 1.79932,0.794922 0.42968,0.526372 0.64452,1.272953 0.64453,2.239746 -1e-5,0.966799 -0.21664,1.718751 -0.6499,2.255859 -0.42969,0.533529 -1.02767,0.800293 -1.79395,0.800293 -0.38314,0 -0.73405,-0.06982 -1.05273,-0.209472 -0.31511,-0.143229 -0.58008,-0.361653 -0.79492,-0.655274 l -0.0645,0 -0.18798,0.757325 -0.63916,0 0,-8.357422 0.8916,0 0,2.030273 c 0,0.454759 -0.0143,0.862961 -0.043,1.224609 l 0.043,0 c 0.41536,-0.587233 1.03124,-0.880853 1.84765,-0.880859 m -0.1289,0.746582 c -0.60873,5e-6 -1.04737,0.175461 -1.31592,0.526367 -0.26856,0.347335 -0.40283,0.934574 -0.40283,1.761719 0,0.827151 0.13785,1.419761 0.41357,1.777832 0.27572,0.354493 0.71793,0.531739 1.32666,0.531738 0.54785,10e-7 0.95605,-0.198729 1.22461,-0.596191 0.26855,-0.40104 0.40283,-0.975747 0.40283,-1.724121 0,-0.766272 -0.13428,-1.337398 -0.40283,-1.713379 -0.26856,-0.375972 -0.68392,-0.56396 -1.24609,-0.563965"
         style="font-size:11px;fill:#000000;fill-opacity:1"
         id="path3939" />
      <path
         inkscape:connector-curvature="0"
         d="m 187.36621,89.166951 -0.8916,0 0,-5.886719 0.8916,0 0,5.886719 m -0.9668,-7.481934 c 0,-0.204094 0.0501,-0.352694 0.15039,-0.445801 0.10026,-0.09667 0.22559,-0.145011 0.37598,-0.145019 0.14323,8e-6 0.26676,0.04835 0.37061,0.145019 0.10384,0.09669 0.15576,0.245288 0.15576,0.445801 0,0.200528 -0.0519,0.350919 -0.15576,0.451172 -0.10385,0.09669 -0.22738,0.145026 -0.37061,0.145019 -0.15039,7e-6 -0.27572,-0.04833 -0.37598,-0.145019 -0.10026,-0.100253 -0.15039,-0.250644 -0.15039,-0.451172"
         style="font-size:11px;fill:#000000;fill-opacity:1"
         id="path3941" />
      <path
         inkscape:connector-curvature="0"
         d="m 190.15918,89.166951 -0.8916,0 0,-8.357422 0.8916,0 0,8.357422"
         style="font-size:11px;fill:#000000;fill-opacity:1"
         id="path3943" />
      <path
         inkscape:connector-curvature="0"
         d="m 194.54736,89.274372 c -0.87012,0 -1.55762,-0.264973 -2.0625,-0.794921 -0.5013,-0.529947 -0.75195,-1.265786 -0.75195,-2.20752 0,-0.948889 0.23275,-1.702632 0.69824,-2.26123 0.46908,-0.558589 1.09749,-0.837885 1.88526,-0.837891 0.73762,6e-6 1.32128,0.243495 1.75097,0.730469 0.42968,0.483403 0.64453,1.122562 0.64453,1.91748 l 0,0.563965 -4.05517,0 c 0.0179,0.691083 0.19157,1.215659 0.52099,1.57373 0.33301,0.358074 0.80029,0.53711 1.40186,0.53711 0.63378,0 1.26041,-0.132486 1.87988,-0.397461 l 0,0.794922 c -0.31511,0.136068 -0.6141,0.232747 -0.89697,0.290039 -0.2793,0.06087 -0.61768,0.09131 -1.01514,0.09131 m -0.2417,-5.35498 c -0.47265,5e-6 -0.85042,0.153976 -1.1333,0.461914 -0.2793,0.307947 -0.44401,0.734054 -0.49414,1.27832 l 3.07764,0 c -1e-5,-0.56217 -0.12533,-0.991857 -0.37598,-1.289062 -0.25065,-0.300776 -0.60872,-0.451167 -1.07422,-0.451172"
         style="font-size:11px;fill:#000000;fill-opacity:1"
         id="path3945" />
      <path
         inkscape:connector-curvature="0"
         d="m 126.51172,102.91695 -0.97754,-2.49756 -3.14746,0 -0.9668,2.49756 -0.92383,0 3.1045,-7.884765 0.76806,0 3.08838,7.884765 -0.94531,0 m -1.26221,-3.319335 -0.91308,-2.433106 c -0.11817,-0.307937 -0.23992,-0.685703 -0.36524,-1.133301 -0.0788,0.343757 -0.19157,0.721523 -0.33838,1.133301 l -0.92383,2.433106 2.54053,0"
         style="font-size:11px;fill:#000000;fill-opacity:1"
         id="path3947" />
      <path
         inkscape:connector-curvature="0"
         d="m 133.22021,97.030232 0,0.563965 -1.09033,0.128906 c 0.10026,0.12533 0.18978,0.290044 0.26856,0.49414 0.0788,0.200526 0.11816,0.427902 0.11816,0.682129 0,0.576501 -0.19694,1.036624 -0.59082,1.380368 -0.39388,0.34376 -0.93457,0.51563 -1.62207,0.51563 -0.17546,0 -0.34017,-0.0143 -0.49414,-0.043 -0.37956,0.20052 -0.56934,0.45296 -0.56934,0.75732 0,0.16114 0.0662,0.28109 0.19873,0.35987 0.13249,0.0752 0.35987,0.11279 0.68213,0.11279 l 1.042,0 c 0.63736,0 1.12613,0.13428 1.4663,0.40283 0.34375,0.26856 0.51562,0.65886 0.51563,1.1709 -10e-6,0.65169 -0.2614,1.14762 -0.78418,1.48779 -0.52279,0.34375 -1.28549,0.51563 -2.28809,0.51563 -0.76985,0 -1.36426,-0.14323 -1.7832,-0.42969 -0.41536,-0.28646 -0.62305,-0.69108 -0.62305,-1.21387 0,-0.35807 0.11459,-0.6678 0.34375,-0.9292 0.22917,-0.26139 0.55144,-0.43863 0.9668,-0.53173 -0.15039,-0.068 -0.27751,-0.17367 -0.38135,-0.3169 -0.10026,-0.14323 -0.15039,-0.30973 -0.15039,-0.49951 0,-0.21484 0.0573,-0.40283 0.17188,-0.56396 0.11458,-0.16114 0.29541,-0.3169 0.54248,-0.46729 -0.30437,-0.12532 -0.55323,-0.33838 -0.74658,-0.63916 -0.18978,-0.300778 -0.28467,-0.644528 -0.28467,-1.03125 0,-0.644527 0.19336,-1.140457 0.58008,-1.487793 0.38671,-0.350906 0.93456,-0.526361 1.64355,-0.526367 0.30794,6e-6 0.58545,0.03581 0.83252,0.107422 l 2.03564,0 m -4.69433,6.874998 c 0,0.31869 0.13428,0.56038 0.40283,0.7251 0.26855,0.16471 0.65348,0.24707 1.15479,0.24707 0.74837,0 1.30159,-0.1128 1.65966,-0.33838 0.36165,-0.22201 0.54248,-0.52458 0.54248,-0.90771 0,-0.31869 -0.0985,-0.54069 -0.29541,-0.66602 -0.19694,-0.12174 -0.56755,-0.18262 -1.11181,-0.18262 l -1.06885,0 c -0.40462,0 -0.71973,0.0967 -0.94531,0.29004 -0.22559,0.19336 -0.33838,0.47087 -0.33838,0.83252 m 0.4834,-4.989744 c 0,0.411787 0.11637,0.72331 0.34912,0.93457 0.23274,0.211264 0.5568,0.316894 0.97217,0.316894 0.87011,0 1.30517,-0.422522 1.30517,-1.267578 0,-0.884435 -0.44043,-1.326654 -1.32129,-1.32666 -0.41894,6e-6 -0.74121,0.112798 -0.96679,0.338379 -0.22559,0.225591 -0.33838,0.560389 -0.33838,1.004395"
         style="font-size:11px;fill:#000000;fill-opacity:1"
         id="path3949" />
      <path
         inkscape:connector-curvature="0"
         d="m 135.33105,102.91695 -0.8916,0 0,-5.886718 0.8916,0 0,5.886718 m -0.96679,-7.481933 c 0,-0.204094 0.0501,-0.352694 0.15039,-0.445801 0.10026,-0.09667 0.22558,-0.145011 0.37597,-0.145019 0.14323,8e-6 0.26677,0.04835 0.37061,0.145019 0.10384,0.09669 0.15576,0.245288 0.15576,0.445801 0,0.200528 -0.0519,0.350919 -0.15576,0.451172 -0.10384,0.09669 -0.22738,0.145026 -0.37061,0.145019 -0.15039,7e-6 -0.27571,-0.04833 -0.37597,-0.145019 -0.10026,-0.100253 -0.15039,-0.250644 -0.15039,-0.451172"
         style="font-size:11px;fill:#000000;fill-opacity:1"
         id="path3951" />
      <path
         inkscape:connector-curvature="0"
         d="m 138.12402,102.91695 -0.8916,0 0,-8.357421 0.8916,0 0,8.357421"
         style="font-size:11px;fill:#000000;fill-opacity:1"
         id="path3953" />
      <path
         inkscape:connector-curvature="0"
         d="m 142.51221,103.02437 c -0.87012,0 -1.55762,-0.26497 -2.0625,-0.79492 -0.50131,-0.52995 -0.75196,-1.26579 -0.75196,-2.20752 0,-0.948888 0.23275,-1.702631 0.69825,-2.261229 0.46907,-0.558589 1.09749,-0.837885 1.88525,-0.837891 0.73763,6e-6 1.32128,0.243495 1.75098,0.730469 0.42968,0.483403 0.64452,1.122562 0.64453,1.91748 l 0,0.563961 -4.05518,0 c 0.0179,0.69109 0.19157,1.21566 0.521,1.57373 0.333,0.35808 0.80029,0.53711 1.40185,0.53711 0.63379,0 1.26042,-0.13248 1.87989,-0.39746 l 0,0.79492 c -0.31511,0.13607 -0.6141,0.23275 -0.89698,0.29004 -0.2793,0.0609 -0.61768,0.0913 -1.01513,0.0913 m -0.2417,-5.354978 c -0.47266,5e-6 -0.85043,0.153976 -1.1333,0.461914 -0.2793,0.307947 -0.44401,0.734054 -0.49414,1.27832 l 3.07763,0 c 0,-0.56217 -0.12533,-0.991857 -0.37597,-1.289062 -0.25066,-0.300776 -0.60873,-0.451167 -1.07422,-0.451172"
         style="font-size:11px;fill:#000000;fill-opacity:1"
         id="path3955" />
      <path
         inkscape:connector-curvature="0"
         d="m 150.75684,94.559529 0.75732,0 0,11.021481 -0.75732,0 0,-11.021481"
         style="font-size:11px;fill:#000000;fill-opacity:1"
         id="path3957" />
      <path
         inkscape:connector-curvature="0"
         d="m 164.36719,98.915486 c -1e-5,1.296224 -0.35271,2.288084 -1.05811,2.975584 -0.70183,0.68392 -1.71338,1.02588 -3.03467,1.02588 l -2.17529,0 0,-7.852539 2.40625,0 c 1.22103,8e-6 2.16992,0.338387 2.84668,1.015137 0.67675,0.676764 1.01513,1.622076 1.01514,2.835938 m -0.9668,0.03223 c -10e-6,-1.024083 -0.25782,-1.79573 -0.77344,-2.314941 -0.51205,-0.519199 -1.27474,-0.778802 -2.28808,-0.778809 l -1.32666,0 0,6.273434 1.11181,0 c 1.08854,0 1.90674,-0.26676 2.45459,-0.80029 0.54785,-0.53711 0.82177,-1.330237 0.82178,-2.379394"
         style="font-size:11px;fill:#000000;fill-opacity:1"
         id="path3959" />
      <path
         inkscape:connector-curvature="0"
         d="m 168.46533,103.02437 c -0.87012,0 -1.55762,-0.26497 -2.0625,-0.79492 -0.5013,-0.52995 -0.75195,-1.26579 -0.75195,-2.20752 0,-0.948888 0.23275,-1.702631 0.69824,-2.261229 0.46907,-0.558589 1.09749,-0.837885 1.88525,-0.837891 0.73763,6e-6 1.32129,0.243495 1.75098,0.730469 0.42968,0.483403 0.64453,1.122562 0.64453,1.91748 l 0,0.563961 -4.05517,0 c 0.0179,0.69109 0.19156,1.21566 0.52099,1.57373 0.33301,0.35808 0.80029,0.53711 1.40186,0.53711 0.63378,0 1.26041,-0.13248 1.87988,-0.39746 l 0,0.79492 c -0.31511,0.13607 -0.6141,0.23275 -0.89697,0.29004 -0.2793,0.0609 -0.61768,0.0913 -1.01514,0.0913 m -0.2417,-5.354978 c -0.47266,5e-6 -0.85042,0.153976 -1.1333,0.461914 -0.2793,0.307947 -0.44401,0.734054 -0.49414,1.27832 l 3.07764,0 c -1e-5,-0.56217 -0.12533,-0.991857 -0.37598,-1.289062 -0.25065,-0.300776 -0.60873,-0.451167 -1.07422,-0.451172"
         style="font-size:11px;fill:#000000;fill-opacity:1"
         id="path3961" />
      <path
         inkscape:connector-curvature="0"
         d="m 173.43359,102.91695 -2.23437,-5.886718 0.95605,0 1.26758,3.491208 c 0.28646,0.81641 0.45475,1.34636 0.50488,1.58985 l 0.043,0 c 0.0394,-0.18978 0.16292,-0.58187 0.37061,-1.17627 0.21126,-0.59798 0.68212,-1.899576 1.4126,-3.904788 l 0.95605,0 -2.23437,5.886718 -1.042,0"
         style="font-size:11px;fill:#000000;fill-opacity:1"
         id="path3963" />
      <path
         inkscape:connector-curvature="0"
         d="m 184.61621,98.979939 c -1e-5,1.256841 -0.31869,2.245121 -0.95605,2.964841 -0.6338,0.71973 -1.51645,1.07959 -2.64795,1.07959 -1.15658,0 -2.04997,-0.3527 -2.68018,-1.0581 -0.62663,-0.70899 -0.93994,-1.70801 -0.93994,-2.997073 0,-1.278315 0.3151,-2.268386 0.94531,-2.970215 0.63021,-0.705396 1.52539,-1.058098 2.68555,-1.058106 1.12792,8e-6 2.00878,0.358081 2.64258,1.074219 0.63378,0.716152 0.95067,1.704432 0.95068,2.964844 m -6.25732,0 c 0,1.063481 0.22558,1.870931 0.67675,2.422361 0.45475,0.54785 1.11361,0.82178 1.97657,0.82178 0.87011,0 1.52717,-0.27393 1.97119,-0.82178 0.444,-0.54785 0.66601,-1.3553 0.66601,-2.422361 0,-1.05631 -0.22201,-1.856602 -0.66601,-2.400879 -0.44044,-0.547845 -1.09392,-0.82177 -1.96045,-0.821777 -0.87012,7e-6 -1.53256,0.275723 -1.98731,0.827148 -0.45117,0.547857 -0.67675,1.346359 -0.67675,2.395508"
         style="font-size:11px;fill:#000000;fill-opacity:1"
         id="path3965" />
      <path
         inkscape:connector-curvature="0"
         d="m 188.97754,103.02437 c -0.38314,0 -0.73405,-0.0698 -1.05274,-0.20947 -0.3151,-0.14323 -0.58008,-0.36165 -0.79492,-0.65527 l -0.0645,0 c 0.043,0.34375 0.0645,0.66959 0.0645,0.97754 l 0,2.42236 -0.8916,0 0,-8.529298 0.7251,0 0.12353,0.805664 0.043,0 c 0.22917,-0.32226 0.49593,-0.555008 0.8003,-0.698242 0.30435,-0.143224 0.65348,-0.214838 1.04736,-0.214844 0.78059,6e-6 1.38216,0.26677 1.80469,0.800293 0.4261,0.533533 0.63915,1.281905 0.63916,2.245117 -1e-5,0.9668 -0.21664,1.71875 -0.64991,2.25586 -0.42969,0.53353 -1.02767,0.80029 -1.79394,0.80029 m -0.12891,-5.344236 c -0.60156,5e-6 -1.03662,0.166509 -1.30517,0.499512 -0.26856,0.333012 -0.40642,0.862959 -0.41358,1.589844 l 0,0.19873 c 0,0.82715 0.13786,1.41976 0.41358,1.77783 0.27571,0.3545 0.71793,0.53174 1.32666,0.53174 0.50846,0 0.90592,-0.20589 1.19238,-0.61768 0.29003,-0.41178 0.43505,-0.97932 0.43506,-1.702632 -1e-5,-0.734046 -0.14503,-1.29622 -0.43506,-1.686524 -0.28646,-0.393875 -0.69108,-0.590815 -1.21387,-0.59082"
         style="font-size:11px;fill:#000000;fill-opacity:1"
         id="path3967" />
      <path
         inkscape:connector-curvature="0"
         d="m 196.78174,101.31099 c -1e-5,0.54786 -0.20411,0.97038 -0.61231,1.26758 -0.4082,0.2972 -0.98112,0.4458 -1.71875,0.4458 -0.7806,0 -1.38932,-0.12353 -1.82617,-0.3706 l 0,-0.82715 c 0.28288,0.14323 0.58545,0.25602 0.90772,0.33838 0.32584,0.0823 0.63915,0.12353 0.93994,0.12353 0.46549,0 0.82356,-0.0734 1.07422,-0.22021 0.25064,-0.15039 0.37597,-0.37777 0.37597,-0.68213 0,-0.22917 -0.10026,-0.42432 -0.30078,-0.58545 -0.19694,-0.16471 -0.58366,-0.35807 -1.16015,-0.58008 -0.54786,-0.2041 -0.93816,-0.381343 -1.1709,-0.531737 -0.22917,-0.153968 -0.40105,-0.327633 -0.51563,-0.520996 -0.111,-0.193355 -0.1665,-0.424312 -0.1665,-0.692871 0,-0.479813 0.19515,-0.857579 0.58545,-1.133301 0.3903,-0.279291 0.92561,-0.418939 1.60595,-0.418945 0.63379,6e-6 1.25326,0.128912 1.8584,0.386719 l -0.31689,0.725097 c -0.59083,-0.243484 -1.12614,-0.365229 -1.60596,-0.365234 -0.42253,5e-6 -0.74121,0.06625 -0.95605,0.19873 -0.21485,0.132492 -0.32227,0.315109 -0.32227,0.547852 0,0.157556 0.0394,0.291834 0.11817,0.402832 0.0823,0.111007 0.21305,0.216638 0.39209,0.316895 0.17903,0.100264 0.52278,0.245283 1.03125,0.435058 0.69823,0.254235 1.1691,0.510261 1.41259,0.768071 0.24707,0.25781 0.3706,0.58187 0.37061,0.97216"
         style="font-size:11px;fill:#000000;fill-opacity:1"
         id="path3969" />
      <path
         inkscape:connector-curvature="0"
         d="m 78.021484,116.66695 -2.664062,-6.96094 -0.04297,0 c 0.05013,0.55144 0.07519,1.20671 0.07519,1.96582 l 0,4.99512 -0.843261,0 0,-7.85254 1.375,0 2.486816,6.47754 0.04297,0 2.508301,-6.47754 1.364257,0 0,7.85254 -0.913085,0 0,-5.05957 c -8e-6,-0.58007 0.02506,-1.21028 0.07519,-1.89062 l -0.04297,0 -2.685547,6.95019 -0.73584,0"
         style="font-size:11px;fill:#000000;fill-opacity:1"
         id="path3971" />
      <path
         inkscape:connector-curvature="0"
         d="m 87.958008,116.66695 -0.177246,-0.83789 -0.04297,0 c -0.293624,0.36882 -0.587243,0.61947 -0.880859,0.75195 -0.290043,0.12891 -0.653486,0.19336 -1.090332,0.19336 -0.583661,0 -1.041994,-0.15039 -1.375,-0.45117 -0.329428,-0.30078 -0.494142,-0.72868 -0.494141,-1.28369 -10e-7,-1.1888 0.950682,-1.81185 2.852051,-1.86914 l 0.999023,-0.0322 0,-0.36523 c -4e-6,-0.46191 -0.100265,-0.80208 -0.300781,-1.02051 -0.196944,-0.222 -0.513838,-0.333 -0.950684,-0.33301 -0.490562,1e-5 -1.045575,0.1504 -1.665039,0.45117 l -0.273926,-0.68213 c 0.290038,-0.15754 0.606932,-0.28108 0.950684,-0.3706 0.347328,-0.0895 0.694659,-0.13427 1.041992,-0.13428 0.701819,10e-6 1.221025,0.15577 1.557617,0.46729 0.340165,0.31153 0.510249,0.81104 0.510254,1.49853 l 0,4.01758 -0.660644,0 m -2.01416,-0.62842 c 0.55501,0 0.990068,-0.15218 1.305175,-0.45654 0.318681,-0.30436 0.478023,-0.73047 0.478028,-1.27832 l 0,-0.53174 -0.891602,0.0376 c -0.708987,0.0251 -1.221031,0.13607 -1.536133,0.33301 -0.311525,0.19336 -0.467286,0.49593 -0.467285,0.90771 -10e-7,0.32227 0.09668,0.56755 0.290039,0.73584 0.196938,0.1683 0.470864,0.25244 0.821778,0.25244"
         style="font-size:11px;fill:#000000;fill-opacity:1"
         id="path3973" />
      <path
         inkscape:connector-curvature="0"
         d="m 92.813477,116.77437 c -0.852216,0 -1.51286,-0.26139 -1.981934,-0.78418 -0.465496,-0.52636 -0.698243,-1.26936 -0.698242,-2.229 -10e-7,-0.9847 0.236327,-1.7456 0.708984,-2.28272 0.476235,-0.5371 1.152992,-0.80565 2.030274,-0.80566 0.282874,1e-5 0.565751,0.0304 0.848632,0.0913 0.282874,0.0609 0.504879,0.13249 0.666016,0.21484 l -0.273926,0.75733 c -0.196944,-0.0788 -0.411788,-0.14323 -0.644531,-0.19336 -0.232751,-0.0537 -0.438643,-0.0806 -0.617676,-0.0806 -1.195965,10e-6 -1.793947,0.7627 -1.793945,2.28809 -2e-6,0.72331 0.145018,1.27832 0.435058,1.66504 0.293618,0.38672 0.726886,0.58007 1.299805,0.58007 0.490556,0 0.993648,-0.10563 1.509278,-0.31689 l 0,0.78955 c -0.393885,0.2041 -0.889816,0.30615 -1.487793,0.30615"
         style="font-size:11px;fill:#000000;fill-opacity:1"
         id="path3975" />
      <path
         inkscape:connector-curvature="0"
         d="m 99.731445,116.66695 0,-3.8081 c -5e-6,-0.47982 -0.109217,-0.83789 -0.327636,-1.07422 -0.218429,-0.23633 -0.560389,-0.35449 -1.025879,-0.3545 -0.619469,10e-6 -1.072431,0.1683 -1.358887,0.50489 -0.28288,0.33659 -0.424318,0.88802 -0.424316,1.65429 l 0,3.07764 -0.891602,0 0,-8.35742 0.891602,0 0,2.52978 c -2e-6,0.30437 -0.01432,0.55681 -0.04297,0.75733 l 0.05371,0 c 0.175453,-0.28287 0.424314,-0.50488 0.746582,-0.66602 0.325843,-0.16471 0.696448,-0.24706 1.111816,-0.24707 0.719722,1e-5 1.258622,0.17188 1.616705,0.51563 0.36164,0.34017 0.54247,0.88265 0.54248,1.62744 l 0,3.84033 -0.891607,0"
         style="font-size:11px;fill:#000000;fill-opacity:1"
         id="path3977" />
      <path
         inkscape:connector-curvature="0"
         d="m 103.34082,116.66695 -0.8916,0 0,-5.88672 0.8916,0 0,5.88672 m -0.9668,-7.48193 c 0,-0.2041 0.0501,-0.3527 0.15039,-0.4458 0.10026,-0.0967 0.22559,-0.14502 0.37598,-0.14502 0.14323,0 0.26676,0.0483 0.37061,0.14502 0.10384,0.0967 0.15576,0.24528 0.15576,0.4458 0,0.20053 -0.0519,0.35092 -0.15576,0.45117 -0.10385,0.0967 -0.22738,0.14503 -0.37061,0.14502 -0.15039,1e-5 -0.27572,-0.0483 -0.37598,-0.14502 -0.10026,-0.10025 -0.15039,-0.25064 -0.15039,-0.45117"
         style="font-size:11px;fill:#000000;fill-opacity:1"
         id="path3979" />
      <path
         inkscape:connector-curvature="0"
         d="m 109.27051,116.66695 0,-3.8081 c -1e-5,-0.47982 -0.10922,-0.83789 -0.32764,-1.07422 -0.21843,-0.23633 -0.56039,-0.35449 -1.02588,-0.3545 -0.61589,10e-6 -1.06706,0.16651 -1.35351,0.49952 -0.28646,0.33301 -0.42969,0.88265 -0.42969,1.64892 l 0,3.08838 -0.8916,0 0,-5.88672 0.7251,0 0.14501,0.80567 0.043,0 c 0.18262,-0.29004 0.43864,-0.51383 0.76807,-0.67139 0.32942,-0.16113 0.69645,-0.24169 1.10107,-0.2417 0.70898,1e-5 1.24251,0.17188 1.60059,0.51562 0.35807,0.34018 0.5371,0.88624 0.53711,1.63819 l 0,3.84033 -0.8916,0"
         style="font-size:11px;fill:#000000;fill-opacity:1"
         id="path3981" />
      <path
         inkscape:connector-curvature="0"
         d="m 114.4751,116.77437 c -0.87012,0 -1.55762,-0.26497 -2.0625,-0.79492 -0.50131,-0.52995 -0.75196,-1.26579 -0.75196,-2.20752 0,-0.94889 0.23275,-1.70263 0.69825,-2.26123 0.46907,-0.55859 1.09749,-0.83788 1.88525,-0.83789 0.73763,1e-5 1.32129,0.2435 1.75098,0.73047 0.42968,0.4834 0.64452,1.12256 0.64453,1.91748 l 0,0.56396 -4.05518,0 c 0.0179,0.69109 0.19157,1.21566 0.521,1.57373 0.333,0.35808 0.80029,0.53711 1.40185,0.53711 0.63379,0 1.26042,-0.13248 1.87989,-0.39746 l 0,0.79492 c -0.31511,0.13607 -0.6141,0.23275 -0.89698,0.29004 -0.2793,0.0609 -0.61768,0.0913 -1.01513,0.0913 m -0.2417,-5.35498 c -0.47266,1e-5 -0.85043,0.15398 -1.1333,0.46192 -0.2793,0.30794 -0.44401,0.73405 -0.49414,1.27832 l 3.07763,0 c 0,-0.56217 -0.12533,-0.99186 -0.37597,-1.28907 -0.25066,-0.30077 -0.60873,-0.45116 -1.07422,-0.45117"
         style="font-size:11px;fill:#000000;fill-opacity:1"
         id="path3983" />
      <path
         inkscape:connector-curvature="0"
         d="m 121.146,116.66695 0,-7.85254 0.91308,0 0,7.02539 3.46436,0 0,0.82715 -4.37744,0"
         style="font-size:11px;fill:#000000;fill-opacity:1"
         id="path3985" />
      <path
         inkscape:connector-curvature="0"
         d="m 129.21338,116.77437 c -0.87012,0 -1.55762,-0.26497 -2.0625,-0.79492 -0.5013,-0.52995 -0.75195,-1.26579 -0.75195,-2.20752 0,-0.94889 0.23274,-1.70263 0.69824,-2.26123 0.46907,-0.55859 1.09749,-0.83788 1.88525,-0.83789 0.73763,1e-5 1.32129,0.2435 1.75098,0.73047 0.42968,0.4834 0.64452,1.12256 0.64453,1.91748 l 0,0.56396 -4.05518,0 c 0.0179,0.69109 0.19157,1.21566 0.521,1.57373 0.33301,0.35808 0.80029,0.53711 1.40186,0.53711 0.63378,0 1.26041,-0.13248 1.87988,-0.39746 l 0,0.79492 c -0.31511,0.13607 -0.6141,0.23275 -0.89697,0.29004 -0.27931,0.0609 -0.61768,0.0913 -1.01514,0.0913 m -0.2417,-5.35498 c -0.47266,1e-5 -0.85043,0.15398 -1.1333,0.46192 -0.2793,0.30794 -0.44401,0.73405 -0.49414,1.27832 l 3.07763,0 c 0,-0.56217 -0.12533,-0.99186 -0.37597,-1.28907 -0.25066,-0.30077 -0.60873,-0.45116 -1.07422,-0.45117"
         style="font-size:11px;fill:#000000;fill-opacity:1"
         id="path3987" />
      <path
         inkscape:connector-curvature="0"
         d="m 136.5127,116.66695 -0.17725,-0.83789 -0.043,0 c -0.29362,0.36882 -0.58724,0.61947 -0.88086,0.75195 -0.29004,0.12891 -0.65348,0.19336 -1.09033,0.19336 -0.58366,0 -1.04199,-0.15039 -1.375,-0.45117 -0.32943,-0.30078 -0.49414,-0.72868 -0.49414,-1.28369 0,-1.1888 0.95068,-1.81185 2.85205,-1.86914 l 0.99902,-0.0322 0,-0.36523 c 0,-0.46191 -0.10026,-0.80208 -0.30078,-1.02051 -0.19694,-0.222 -0.51384,-0.333 -0.95068,-0.33301 -0.49056,1e-5 -1.04558,0.1504 -1.66504,0.45117 l -0.27393,-0.68213 c 0.29004,-0.15754 0.60693,-0.28108 0.95069,-0.3706 0.34732,-0.0895 0.69466,-0.13427 1.04199,-0.13428 0.70182,10e-6 1.22102,0.15577 1.55762,0.46729 0.34016,0.31153 0.51024,0.81104 0.51025,1.49853 l 0,4.01758 -0.66064,0 m -2.01416,-0.62842 c 0.55501,0 0.99006,-0.15218 1.30517,-0.45654 0.31868,-0.30436 0.47802,-0.73047 0.47803,-1.27832 l 0,-0.53174 -0.8916,0.0376 c -0.70899,0.0251 -1.22103,0.13607 -1.53614,0.33301 -0.31152,0.19336 -0.46728,0.49593 -0.46728,0.90771 0,0.32227 0.0967,0.56755 0.29004,0.73584 0.19694,0.1683 0.47086,0.25244 0.82178,0.25244"
         style="font-size:11px;fill:#000000;fill-opacity:1"
         id="path3989" />
      <path
         inkscape:connector-curvature="0"
         d="m 141.70117,110.67281 c 0.26139,1e-5 0.49593,0.0215 0.70362,0.0645 l -0.12354,0.82715 c -0.24349,-0.0537 -0.45834,-0.0806 -0.64453,-0.0806 -0.47624,0 -0.88444,0.19336 -1.22461,0.58007 -0.33659,0.38673 -0.50489,0.86833 -0.50488,1.44483 l 0,3.1582 -0.89161,0 0,-5.88672 0.73584,0 0.10206,1.09033 0.043,0 c 0.21843,-0.38313 0.48161,-0.67854 0.78956,-0.88623 0.30793,-0.20767 0.64631,-0.31151 1.01513,-0.31152"
         style="font-size:11px;fill:#000000;fill-opacity:1"
         id="path3991" />
      <path
         inkscape:connector-curvature="0"
         d="m 147.53418,116.66695 0,-3.8081 c -1e-5,-0.47982 -0.10922,-0.83789 -0.32764,-1.07422 -0.21843,-0.23633 -0.56039,-0.35449 -1.02588,-0.3545 -0.61588,10e-6 -1.06706,0.16651 -1.35351,0.49952 -0.28646,0.33301 -0.42969,0.88265 -0.42969,1.64892 l 0,3.08838 -0.8916,0 0,-5.88672 0.7251,0 0.14502,0.80567 0.043,0 c 0.18261,-0.29004 0.43863,-0.51383 0.76806,-0.67139 0.32943,-0.16113 0.69645,-0.24169 1.10108,-0.2417 0.70898,1e-5 1.2425,0.17188 1.60058,0.51562 0.35807,0.34018 0.53711,0.88624 0.53711,1.63819 l 0,3.84033 -0.8916,0"
         style="font-size:11px;fill:#000000;fill-opacity:1"
         id="path3993" />
      <path
         inkscape:connector-curvature="0"
         d="m 151.14355,116.66695 -0.8916,0 0,-5.88672 0.8916,0 0,5.88672 m -0.96679,-7.48193 c 0,-0.2041 0.0501,-0.3527 0.15039,-0.4458 0.10026,-0.0967 0.22558,-0.14502 0.37597,-0.14502 0.14323,0 0.26677,0.0483 0.37061,0.14502 0.10384,0.0967 0.15576,0.24528 0.15576,0.4458 0,0.20053 -0.0519,0.35092 -0.15576,0.45117 -0.10384,0.0967 -0.22738,0.14503 -0.37061,0.14502 -0.15039,1e-5 -0.27571,-0.0483 -0.37597,-0.14502 -0.10026,-0.10025 -0.15039,-0.25064 -0.15039,-0.45117"
         style="font-size:11px;fill:#000000;fill-opacity:1"
         id="path3995" />
      <path
         inkscape:connector-curvature="0"
         d="m 157.07324,116.66695 0,-3.8081 c 0,-0.47982 -0.10921,-0.83789 -0.32763,-1.07422 -0.21843,-0.23633 -0.56039,-0.35449 -1.02588,-0.3545 -0.61589,10e-6 -1.06706,0.16651 -1.35352,0.49952 -0.28646,0.33301 -0.42969,0.88265 -0.42969,1.64892 l 0,3.08838 -0.8916,0 0,-5.88672 0.7251,0 0.14502,0.80567 0.043,0 c 0.18261,-0.29004 0.43863,-0.51383 0.76806,-0.67139 0.32943,-0.16113 0.69645,-0.24169 1.10108,-0.2417 0.70898,1e-5 1.24251,0.17188 1.60058,0.51562 0.35807,0.34018 0.53711,0.88624 0.53711,1.63819 l 0,3.84033 -0.8916,0"
         style="font-size:11px;fill:#000000;fill-opacity:1"
         id="path3997" />
      <path
         inkscape:connector-curvature="0"
         d="m 164.60889,110.78023 0,0.56397 -1.09034,0.1289 c 0.10026,0.12533 0.18978,0.29005 0.26856,0.49414 0.0788,0.20053 0.11816,0.4279 0.11816,0.68213 0,0.5765 -0.19694,1.03663 -0.59082,1.38037 -0.39388,0.34376 -0.93457,0.51563 -1.62207,0.51563 -0.17546,0 -0.34017,-0.0143 -0.49414,-0.043 -0.37956,0.20052 -0.56934,0.45296 -0.56933,0.75732 -1e-5,0.16114 0.0662,0.28109 0.19873,0.35987 0.13248,0.0752 0.35986,0.11279 0.68213,0.11279 l 1.04199,0 c 0.63736,0 1.12613,0.13428 1.46631,0.40283 0.34374,0.26856 0.51562,0.65886 0.51562,1.1709 0,0.65169 -0.2614,1.14762 -0.78418,1.48779 -0.52279,0.34375 -1.28548,0.51563 -2.28808,0.51563 -0.76986,0 -1.36426,-0.14323 -1.78321,-0.42969 -0.41536,-0.28646 -0.62304,-0.69108 -0.62304,-1.21387 0,-0.35807 0.11458,-0.6678 0.34375,-0.9292 0.22916,-0.26139 0.55143,-0.43863 0.96679,-0.53173 -0.15039,-0.068 -0.27751,-0.17367 -0.38135,-0.3169 -0.10026,-0.14323 -0.15039,-0.30973 -0.15039,-0.49951 0,-0.21484 0.0573,-0.40283 0.17188,-0.56396 0.11458,-0.16114 0.29541,-0.3169 0.54248,-0.46729 -0.30436,-0.12532 -0.55322,-0.33838 -0.74658,-0.63916 -0.18978,-0.30078 -0.28467,-0.64453 -0.28467,-1.03125 0,-0.64453 0.19336,-1.14046 0.58008,-1.48779 0.38672,-0.35091 0.93457,-0.52636 1.64355,-0.52637 0.30794,1e-5 0.58545,0.0358 0.83252,0.10742 l 2.03565,0 m -4.69434,6.875 c 0,0.31869 0.13428,0.56038 0.40283,0.7251 0.26856,0.16471 0.65348,0.24707 1.15479,0.24707 0.74837,0 1.30159,-0.1128 1.65967,-0.33838 0.36164,-0.22201 0.54247,-0.52458 0.54248,-0.90771 -1e-5,-0.31869 -0.0985,-0.54069 -0.29541,-0.66602 -0.19695,-0.12174 -0.56755,-0.18262 -1.11182,-0.18262 l -1.06885,0 c -0.40462,0 -0.71973,0.0967 -0.94531,0.29004 -0.22559,0.19336 -0.33838,0.47087 -0.33838,0.83252 m 0.4834,-4.98974 c 0,0.41178 0.11637,0.72331 0.34912,0.93457 0.23275,0.21126 0.5568,0.31689 0.97217,0.31689 0.87011,0 1.30517,-0.42252 1.30517,-1.26758 0,-0.88443 -0.44043,-1.32665 -1.32129,-1.32666 -0.41894,10e-6 -0.74121,0.1128 -0.96679,0.33838 -0.22559,0.22559 -0.33838,0.56039 -0.33838,1.0044"
         style="font-size:11px;fill:#000000;fill-opacity:1"
         id="path3999" />
      <path
         inkscape:connector-curvature="0"
         d="m 170.39355,108.30953 0.75733,0 0,11.02148 -0.75733,0 0,-11.02148"
         style="font-size:11px;fill:#000000;fill-opacity:1"
         id="path4001" />
      <path
         inkscape:connector-curvature="0"
         d="m 183.86963,116.66695 -1.04199,0 -4.29151,-6.59033 -0.043,0 c 0.0573,0.77344 0.0859,1.48243 0.0859,2.12695 l 0,4.46338 -0.84326,0 0,-7.85254 1.03125,0 4.28076,6.56348 0.043,0 c -0.007,-0.0967 -0.0233,-0.40641 -0.0483,-0.9292 -0.0251,-0.52637 -0.034,-0.90234 -0.0269,-1.12793 l 0,-4.50635 0.85401,0 0,7.85254"
         style="font-size:11px;fill:#000000;fill-opacity:1"
         id="path4003" />
      <path
         inkscape:connector-curvature="0"
         d="m 186.02881,116.66695 0,-7.85254 0.91308,0 0,7.02539 3.46436,0 0,0.82715 -4.37744,0"
         style="font-size:11px;fill:#000000;fill-opacity:1"
         id="path4005" />
      <path
         inkscape:connector-curvature="0"
         d="m 196.72266,111.1025 c -1e-5,0.79492 -0.27214,1.40723 -0.81641,1.83691 -0.54069,0.42611 -1.31592,0.63916 -2.32568,0.63916 l -0.92383,0 0,3.08838 -0.91309,0 0,-7.85254 2.03565,0 c 1.96223,1e-5 2.94335,0.7627 2.94336,2.28809 m -4.06592,1.69189 0.82178,0 c 0.80924,10e-6 1.39469,-0.13069 1.75634,-0.39209 0.36165,-0.26139 0.54248,-0.68033 0.54248,-1.25683 0,-0.5192 -0.17009,-0.90592 -0.51025,-1.16016 -0.34017,-0.25422 -0.87012,-0.38134 -1.58984,-0.38135 l -1.02051,0 0,3.19043"
         style="font-size:11px;fill:#000000;fill-opacity:1"
         id="path4007" />
      <path
         inkscape:connector-curvature="0"
         d="m 71.758789,126.47994 c -8e-6,1.25684 -0.318692,2.24512 -0.956055,2.96484 -0.633795,0.71973 -1.516444,1.07959 -2.647949,1.07959 -1.156578,0 -2.04997,-0.3527 -2.680176,-1.0581 -0.626628,-0.70899 -0.939942,-1.70801 -0.939941,-2.99707 -10e-7,-1.27832 0.315103,-2.26839 0.945312,-2.97022 0.630207,-0.70539 1.525388,-1.0581 2.685547,-1.0581 1.127925,0 2.008783,0.35808 2.642578,1.07422 0.633782,0.71615 0.950676,1.70443 0.950684,2.96484 m -6.257324,0 c -2e-6,1.06348 0.225584,1.87093 0.676758,2.42236 0.454749,0.54785 1.113603,0.82178 1.976562,0.82178 0.870112,0 1.527175,-0.27393 1.971192,-0.82178 0.444003,-0.54785 0.666008,-1.3553 0.666015,-2.42236 -7e-6,-1.05631 -0.222012,-1.8566 -0.666015,-2.40088 -0.440436,-0.54784 -1.093918,-0.82177 -1.96045,-0.82178 -0.87012,1e-5 -1.532555,0.27573 -1.987304,0.82715 -0.451174,0.54786 -0.67676,1.34636 -0.676758,2.39551"
         style="font-size:11px;fill:#000000;fill-opacity:1"
         id="path4009" />
      <path
         inkscape:connector-curvature="0"
         d="m 76.120117,130.52437 c -0.383141,0 -0.734052,-0.0698 -1.052734,-0.20947 -0.315107,-0.14323 -0.58008,-0.36165 -0.794922,-0.65527 l -0.06445,0 c 0.04297,0.34375 0.06445,0.66959 0.06445,0.97754 l 0,2.42236 -0.891602,0 0,-8.5293 0.725098,0 0.123535,0.80567 0.04297,0 c 0.229165,-0.32226 0.495929,-0.55501 0.800293,-0.69825 0.304359,-0.14322 0.65348,-0.21483 1.047363,-0.21484 0.780595,1e-5 1.382157,0.26677 1.804688,0.80029 0.426101,0.53354 0.639154,1.28191 0.63916,2.24512 -6e-6,0.9668 -0.21664,1.71875 -0.649903,2.25586 -0.429692,0.53353 -1.027673,0.80029 -1.793945,0.80029 m -0.128906,-5.34424 c -0.601566,10e-6 -1.036624,0.16651 -1.305176,0.49952 -0.268557,0.33301 -0.406414,0.86296 -0.413574,1.58984 l 0,0.19873 c -2e-6,0.82715 0.137856,1.41976 0.413574,1.77783 0.275714,0.3545 0.717933,0.53174 1.32666,0.53174 0.50846,0 0.90592,-0.20589 1.192383,-0.61768 0.290034,-0.41178 0.435054,-0.97932 0.435059,-1.70263 -5e-6,-0.73405 -0.145025,-1.29622 -0.435059,-1.68653 -0.286463,-0.39387 -0.691085,-0.59081 -1.213867,-0.59082"
         style="font-size:11px;fill:#000000;fill-opacity:1"
         id="path4011" />
      <path
         inkscape:connector-curvature="0"
         d="m 82.61377,130.52437 c -0.87012,0 -1.55762,-0.26497 -2.0625,-0.79492 -0.501303,-0.52995 -0.751954,-1.26579 -0.751954,-2.20752 0,-0.94889 0.232747,-1.70263 0.698243,-2.26123 0.469073,-0.55859 1.097491,-0.83788 1.885253,-0.83789 0.737627,1e-5 1.321285,0.2435 1.750977,0.73047 0.429682,0.4834 0.644526,1.12256 0.644531,1.91748 l 0,0.56396 -4.055175,0 c 0.0179,0.69109 0.191567,1.21566 0.520996,1.57373 0.333005,0.35808 0.80029,0.53711 1.401855,0.53711 0.633785,0 1.260412,-0.13248 1.879883,-0.39746 l 0,0.79492 c -0.315109,0.13607 -0.6141,0.23275 -0.896973,0.29004 -0.279301,0.0609 -0.617679,0.0913 -1.015136,0.0913 m -0.2417,-5.35498 c -0.472659,1e-5 -0.850425,0.15398 -1.1333,0.46192 -0.279299,0.30794 -0.444012,0.73405 -0.494141,1.27832 l 3.077637,0 c -5e-6,-0.56217 -0.12533,-0.99186 -0.375977,-1.28907 -0.250655,-0.30077 -0.608728,-0.45116 -1.074219,-0.45117"
         style="font-size:11px;fill:#000000;fill-opacity:1"
         id="path4013" />
      <path
         inkscape:connector-curvature="0"
         d="m 90.321289,130.41695 0,-3.8081 c -5e-6,-0.47982 -0.109217,-0.83789 -0.327637,-1.07422 -0.218429,-0.23633 -0.560388,-0.35449 -1.025879,-0.3545 -0.615888,10e-6 -1.067059,0.16651 -1.353515,0.49952 -0.286461,0.33301 -0.42969,0.88265 -0.429688,1.64892 l 0,3.08838 -0.891601,0 0,-5.88672 0.725097,0 0.14502,0.80567 0.04297,0 c 0.182615,-0.29004 0.438637,-0.51383 0.768066,-0.67139 0.329424,-0.16113 0.696449,-0.24169 1.101074,-0.2417 0.70898,1e-5 1.242508,0.17188 1.600586,0.51562 0.358067,0.34018 0.537104,0.88624 0.53711,1.63819 l 0,3.84033 -0.891602,0"
         style="font-size:11px;fill:#000000;fill-opacity:1"
         id="path4015" />
      <path
         inkscape:connector-curvature="0"
         d="m 102.29883,126.41549 c -10e-6,1.29622 -0.35271,2.28808 -1.05811,2.97558 -0.70183,0.68392 -1.713381,1.02588 -3.034665,1.02588 l -2.175293,0 0,-7.85254 2.40625,0 c 1.221024,1e-5 2.169918,0.33839 2.846678,1.01514 0.67675,0.67676 1.01513,1.62207 1.01514,2.83594 m -0.9668,0.0322 c -1e-5,-1.02408 -0.25782,-1.79573 -0.77344,-2.31494 -0.51205,-0.5192 -1.27474,-0.7788 -2.288082,-0.77881 l -1.32666,0 0,6.27344 1.111816,0 c 1.088538,0 1.906733,-0.26676 2.454586,-0.80029 0.54785,-0.53711 0.82177,-1.33024 0.82178,-2.3794"
         style="font-size:11px;fill:#000000;fill-opacity:1"
         id="path4017" />
      <path
         inkscape:connector-curvature="0"
         d="m 107.53027,130.41695 -0.17724,-0.83789 -0.043,0 c -0.29363,0.36882 -0.58724,0.61947 -0.88086,0.75195 -0.29004,0.12891 -0.65349,0.19336 -1.09033,0.19336 -0.58366,0 -1.042,-0.15039 -1.375,-0.45117 -0.32943,-0.30078 -0.49414,-0.72868 -0.49414,-1.28369 0,-1.1888 0.95068,-1.81185 2.85205,-1.86914 l 0.99902,-0.0322 0,-0.36523 c 0,-0.46191 -0.10026,-0.80208 -0.30078,-1.02051 -0.19694,-0.222 -0.51384,-0.333 -0.95068,-0.33301 -0.49057,1e-5 -1.04558,0.1504 -1.66504,0.45117 l -0.27393,-0.68213 c 0.29004,-0.15754 0.60693,-0.28108 0.95068,-0.3706 0.34733,-0.0895 0.69466,-0.13427 1.042,-0.13428 0.70182,10e-6 1.22102,0.15577 1.55761,0.46729 0.34017,0.31153 0.51025,0.81104 0.51026,1.49853 l 0,4.01758 -0.66065,0 m -2.01416,-0.62842 c 0.55501,0 0.99007,-0.15218 1.30518,-0.45654 0.31868,-0.30436 0.47802,-0.73047 0.47803,-1.27832 l 0,-0.53174 -0.89161,0.0376 c -0.70898,0.0251 -1.22103,0.13607 -1.53613,0.33301 -0.31152,0.19336 -0.46728,0.49593 -0.46728,0.90771 0,0.32227 0.0967,0.56755 0.29004,0.73584 0.19693,0.1683 0.47086,0.25244 0.82177,0.25244"
         style="font-size:11px;fill:#000000;fill-opacity:1"
         id="path4019" />
      <path
         inkscape:connector-curvature="0"
         d="m 111.93457,129.78853 c 0.15755,0 0.30973,-0.0107 0.45654,-0.0322 0.14681,-0.0251 0.26318,-0.0501 0.34912,-0.0752 l 0,0.68213 c -0.0967,0.0465 -0.23991,0.0842 -0.42968,0.11279 -0.1862,0.0322 -0.3545,0.0483 -0.50489,0.0483 -1.13867,0 -1.708,-0.59977 -1.708,-1.79931 l 0,-3.50196 -0.84327,0 0,-0.42968 0.84327,-0.37061 0.37597,-1.25684 0.51563,0 0,1.36426 1.70801,0 0,0.69287 -1.70801,0 0,3.46436 c 0,0.35449 0.0841,0.62663 0.25244,0.8164 0.16829,0.18978 0.39925,0.28467 0.69287,0.28467"
         style="font-size:11px;fill:#000000;fill-opacity:1"
         id="path4021" />
      <path
         inkscape:connector-curvature="0"
         d="m 117.54199,130.41695 -0.17724,-0.83789 -0.043,0 c -0.29363,0.36882 -0.58725,0.61947 -0.88086,0.75195 -0.29004,0.12891 -0.65349,0.19336 -1.09033,0.19336 -0.58366,0 -1.042,-0.15039 -1.375,-0.45117 -0.32943,-0.30078 -0.49415,-0.72868 -0.49414,-1.28369 -1e-5,-1.1888 0.95068,-1.81185 2.85205,-1.86914 l 0.99902,-0.0322 0,-0.36523 c 0,-0.46191 -0.10027,-0.80208 -0.30078,-1.02051 -0.19695,-0.222 -0.51384,-0.333 -0.95069,-0.33301 -0.49056,1e-5 -1.04557,0.1504 -1.66503,0.45117 l -0.27393,-0.68213 c 0.29004,-0.15754 0.60693,-0.28108 0.95068,-0.3706 0.34733,-0.0895 0.69466,-0.13427 1.042,-0.13428 0.70181,10e-6 1.22102,0.15577 1.55761,0.46729 0.34017,0.31153 0.51025,0.81104 0.51026,1.49853 l 0,4.01758 -0.66065,0 m -2.01416,-0.62842 c 0.55501,0 0.99007,-0.15218 1.30518,-0.45654 0.31868,-0.30436 0.47802,-0.73047 0.47803,-1.27832 l 0,-0.53174 -0.89161,0.0376 c -0.70898,0.0251 -1.22103,0.13607 -1.53613,0.33301 -0.31152,0.19336 -0.46729,0.49593 -0.46728,0.90771 -10e-6,0.32227 0.0967,0.56755 0.29003,0.73584 0.19694,0.1683 0.47087,0.25244 0.82178,0.25244"
         style="font-size:11px;fill:#000000;fill-opacity:1"
         id="path4023" />
      <path
         inkscape:connector-curvature="0"
         d="m 124.61035,122.05953 0.75733,0 0,11.02148 -0.75733,0 0,-11.02148"
         style="font-size:11px;fill:#000000;fill-opacity:1"
         id="path4025" />
      <path
         inkscape:connector-curvature="0"
         d="m 138.76855,126.47994 c 0,1.25684 -0.31869,2.24512 -0.95605,2.96484 -0.6338,0.71973 -1.51644,1.07959 -2.64795,1.07959 -1.15658,0 -2.04997,-0.3527 -2.68018,-1.0581 -0.62662,-0.70899 -0.93994,-1.70801 -0.93994,-2.99707 0,-1.27832 0.31511,-2.26839 0.94532,-2.97022 0.6302,-0.70539 1.52538,-1.0581 2.68554,-1.0581 1.12793,0 2.00879,0.35808 2.64258,1.07422 0.63378,0.71615 0.95068,1.70443 0.95068,2.96484 m -6.25732,0 c 0,1.06348 0.22558,1.87093 0.67676,2.42236 0.45475,0.54785 1.1136,0.82178 1.97656,0.82178 0.87011,0 1.52718,-0.27393 1.97119,-0.82178 0.44401,-0.54785 0.66601,-1.3553 0.66602,-2.42236 -1e-5,-1.05631 -0.22201,-1.8566 -0.66602,-2.40088 -0.44043,-0.54784 -1.09392,-0.82177 -1.96045,-0.82178 -0.87012,1e-5 -1.53255,0.27573 -1.9873,0.82715 -0.45118,0.54786 -0.67676,1.34636 -0.67676,2.39551"
         style="font-size:11px;fill:#000000;fill-opacity:1"
         id="path4027" />
      <path
         inkscape:connector-curvature="0"
         d="m 143.12988,130.52437 c -0.38314,0 -0.73405,-0.0698 -1.05273,-0.20947 -0.31511,-0.14323 -0.58008,-0.36165 -0.79492,-0.65527 l -0.0645,0 c 0.043,0.34375 0.0644,0.66959 0.0645,0.97754 l 0,2.42236 -0.89161,0 0,-8.5293 0.7251,0 0.12354,0.80567 0.043,0 c 0.22916,-0.32226 0.49593,-0.55501 0.80029,-0.69825 0.30436,-0.14322 0.65348,-0.21483 1.04736,-0.21484 0.7806,1e-5 1.38216,0.26677 1.80469,0.80029 0.4261,0.53354 0.63915,1.28191 0.63916,2.24512 -1e-5,0.9668 -0.21664,1.71875 -0.6499,2.25586 -0.42969,0.53353 -1.02768,0.80029 -1.79395,0.80029 m -0.1289,-5.34424 c -0.60157,10e-6 -1.03663,0.16651 -1.30518,0.49952 -0.26856,0.33301 -0.40641,0.86296 -0.41357,1.58984 l 0,0.19873 c -1e-5,0.82715 0.13785,1.41976 0.41357,1.77783 0.27571,0.3545 0.71793,0.53174 1.32666,0.53174 0.50846,0 0.90592,-0.20589 1.19238,-0.61768 0.29004,-0.41178 0.43506,-0.97932 0.43506,-1.70263 0,-0.73405 -0.14502,-1.29622 -0.43506,-1.68653 -0.28646,-0.39387 -0.69108,-0.59081 -1.21386,-0.59082"
         style="font-size:11px;fill:#000000;fill-opacity:1"
         id="path4029" />
      <path
         inkscape:connector-curvature="0"
         d="m 149.62354,130.52437 c -0.87012,0 -1.55762,-0.26497 -2.0625,-0.79492 -0.50131,-0.52995 -0.75196,-1.26579 -0.75196,-2.20752 0,-0.94889 0.23275,-1.70263 0.69824,-2.26123 0.46908,-0.55859 1.0975,-0.83788 1.88526,-0.83789 0.73762,1e-5 1.32128,0.2435 1.75097,0.73047 0.42969,0.4834 0.64453,1.12256 0.64454,1.91748 l 0,0.56396 -4.05518,0 c 0.0179,0.69109 0.19157,1.21566 0.521,1.57373 0.333,0.35808 0.80029,0.53711 1.40185,0.53711 0.63379,0 1.26041,-0.13248 1.87988,-0.39746 l 0,0.79492 c -0.3151,0.13607 -0.6141,0.23275 -0.89697,0.29004 -0.2793,0.0609 -0.61768,0.0913 -1.01513,0.0913 m -0.2417,-5.35498 c -0.47266,1e-5 -0.85043,0.15398 -1.1333,0.46192 -0.2793,0.30794 -0.44402,0.73405 -0.49415,1.27832 l 3.07764,0 c 0,-0.56217 -0.12533,-0.99186 -0.37598,-1.28907 -0.25065,-0.30077 -0.60872,-0.45116 -1.07421,-0.45117"
         style="font-size:11px;fill:#000000;fill-opacity:1"
         id="path4031" />
      <path
         inkscape:connector-curvature="0"
         d="m 157.33105,130.41695 0,-3.8081 c 0,-0.47982 -0.10921,-0.83789 -0.32763,-1.07422 -0.21843,-0.23633 -0.56039,-0.35449 -1.02588,-0.3545 -0.61589,10e-6 -1.06706,0.16651 -1.35352,0.49952 -0.28646,0.33301 -0.42969,0.88265 -0.42968,1.64892 l 0,3.08838 -0.89161,0 0,-5.88672 0.7251,0 0.14502,0.80567 0.043,0 c 0.18262,-0.29004 0.43864,-0.51383 0.76807,-0.67139 0.32942,-0.16113 0.69645,-0.24169 1.10107,-0.2417 0.70898,1e-5 1.24251,0.17188 1.60059,0.51562 0.35806,0.34018 0.5371,0.88624 0.53711,1.63819 l 0,3.84033 -0.89161,0"
         style="font-size:11px;fill:#000000;fill-opacity:1"
         id="path4033" />
      <path
         inkscape:connector-curvature="0"
         d="m 167.47168,128.3276 c -1e-5,0.69108 -0.25066,1.22998 -0.75195,1.61669 -0.50131,0.38672 -1.18165,0.58008 -2.04102,0.58008 -0.93099,0 -1.64714,-0.11995 -2.14844,-0.35986 l 0,-0.88086 c 0.32227,0.13607 0.67318,0.24349 1.05274,0.32227 0.37955,0.0788 0.75553,0.11816 1.12793,0.11816 0.60872,0 1.06705,-0.11458 1.375,-0.34375 0.30794,-0.23275 0.46191,-0.55501 0.46191,-0.9668 0,-0.27213 -0.0555,-0.49414 -0.1665,-0.66601 -0.10743,-0.17546 -0.29005,-0.33659 -0.54785,-0.4834 -0.25424,-0.14681 -0.64275,-0.31331 -1.16553,-0.49951 -0.73047,-0.26139 -1.25326,-0.57113 -1.56836,-0.9292 -0.31152,-0.35807 -0.46729,-0.82536 -0.46729,-1.40186 0,-0.60513 0.22738,-1.08674 0.68213,-1.44482 0.45475,-0.35807 1.05632,-0.5371 1.80469,-0.53711 0.7806,10e-6 1.49853,0.14324 2.15381,0.42969 l -0.28467,0.79492 c -0.64812,-0.27213 -1.27832,-0.4082 -1.89062,-0.40821 -0.4834,10e-6 -0.86117,0.10385 -1.1333,0.31153 -0.27214,0.20769 -0.40821,0.49594 -0.40821,0.86474 0,0.27215 0.0501,0.49594 0.15039,0.67139 0.10026,0.17188 0.26856,0.33122 0.50489,0.47803 0.2399,0.14323 0.60514,0.30257 1.0957,0.47803 0.82356,0.29362 1.38932,0.60872 1.69726,0.94531 0.31152,0.33659 0.46728,0.77344 0.46729,1.31055"
         style="font-size:11px;fill:#000000;fill-opacity:1"
         id="path4035" />
      <path
         inkscape:connector-curvature="0"
         d="m 174.02441,127.46822 c 0,0.95964 -0.2417,1.7098 -0.72509,2.25049 -0.48341,0.53711 -1.15121,0.80566 -2.00342,0.80566 -0.52637,0 -0.99366,-0.12353 -1.40186,-0.3706 -0.4082,-0.24707 -0.72331,-0.60156 -0.94531,-1.06348 -0.22201,-0.46191 -0.33301,-1.0026 -0.33301,-1.62207 0,-0.95963 0.23991,-1.70621 0.71973,-2.23975 0.47982,-0.5371 1.14583,-0.80565 1.99805,-0.80566 0.82356,1e-5 1.47704,0.27393 1.96045,0.82178 0.48697,0.54785 0.73046,1.28906 0.73046,2.22363 m -4.48486,0 c 0,0.75196 0.15039,1.32487 0.45117,1.71875 0.30078,0.39388 0.743,0.59082 1.32666,0.59082 0.58366,0 1.02588,-0.19515 1.32666,-0.58545 0.30436,-0.39388 0.45654,-0.96858 0.45655,-1.72412 -1e-5,-0.74837 -0.15219,-1.31591 -0.45655,-1.70264 -0.30078,-0.39029 -0.74658,-0.58544 -1.3374,-0.58545 -0.58366,10e-6 -1.02409,0.19158 -1.32129,0.57471 -0.2972,0.38314 -0.4458,0.95427 -0.4458,1.71338"
         style="font-size:11px;fill:#000000;fill-opacity:1"
         id="path4037" />
      <path
         inkscape:connector-curvature="0"
         d="m 176.41992,124.53023 0,3.81885 c 0,0.47982 0.10921,0.83789 0.32764,1.07422 0.21842,0.23633 0.56038,0.35449 1.02588,0.35449 0.61588,0 1.06526,-0.16829 1.34814,-0.50488 0.28646,-0.33659 0.42968,-0.88623 0.42969,-1.64893 l 0,-3.09375 0.8916,0 0,5.88672 -0.73584,0 -0.12891,-0.78955 -0.0483,0 c -0.18263,0.29004 -0.43686,0.51204 -0.7627,0.66602 -0.32227,0.15397 -0.69108,0.23095 -1.10645,0.23095 -0.71614,0 -1.25325,-0.17008 -1.61132,-0.51025 -0.3545,-0.34017 -0.53174,-0.88444 -0.53174,-1.63281 l 0,-3.85108 0.90234,0"
         style="font-size:11px;fill:#000000;fill-opacity:1"
         id="path4039" />
      <path
         inkscape:connector-curvature="0"
         d="m 185.01367,124.42281 c 0.26139,1e-5 0.49593,0.0215 0.70362,0.0645 l -0.12354,0.82715 c -0.24349,-0.0537 -0.45834,-0.0806 -0.64453,-0.0806 -0.47624,0 -0.88444,0.19336 -1.22461,0.58007 -0.33659,0.38673 -0.50489,0.86833 -0.50488,1.44483 l 0,3.1582 -0.89161,0 0,-5.88672 0.73584,0 0.10206,1.09033 0.043,0 c 0.21843,-0.38313 0.48161,-0.67854 0.78956,-0.88623 0.30793,-0.20767 0.64631,-0.31151 1.01513,-0.31152"
         style="font-size:11px;fill:#000000;fill-opacity:1"
         id="path4041" />
      <path
         inkscape:connector-curvature="0"
         d="m 189.1709,130.52437 c -0.85222,0 -1.51286,-0.26139 -1.98194,-0.78418 -0.46549,-0.52636 -0.69824,-1.26936 -0.69824,-2.229 0,-0.9847 0.23633,-1.7456 0.70899,-2.28272 0.47623,-0.5371 1.15299,-0.80565 2.03027,-0.80566 0.28287,1e-5 0.56575,0.0304 0.84863,0.0913 0.28288,0.0609 0.50488,0.13249 0.66602,0.21484 l -0.27393,0.75733 c -0.19694,-0.0788 -0.41178,-0.14323 -0.64453,-0.19336 -0.23275,-0.0537 -0.43864,-0.0806 -0.61767,-0.0806 -1.19597,10e-6 -1.79395,0.7627 -1.79395,2.28809 0,0.72331 0.14502,1.27832 0.43506,1.66504 0.29362,0.38672 0.72688,0.58007 1.2998,0.58007 0.49056,0 0.99365,-0.10563 1.50928,-0.31689 l 0,0.78955 c -0.39388,0.2041 -0.88981,0.30615 -1.48779,0.30615"
         style="font-size:11px;fill:#000000;fill-opacity:1"
         id="path4043" />
      <path
         inkscape:connector-curvature="0"
         d="m 194.54736,130.52437 c -0.87012,0 -1.55762,-0.26497 -2.0625,-0.79492 -0.5013,-0.52995 -0.75195,-1.26579 -0.75195,-2.20752 0,-0.94889 0.23275,-1.70263 0.69824,-2.26123 0.46908,-0.55859 1.09749,-0.83788 1.88526,-0.83789 0.73762,1e-5 1.32128,0.2435 1.75097,0.73047 0.42968,0.4834 0.64453,1.12256 0.64453,1.91748 l 0,0.56396 -4.05517,0 c 0.0179,0.69109 0.19157,1.21566 0.52099,1.57373 0.33301,0.35808 0.80029,0.53711 1.40186,0.53711 0.63378,0 1.26041,-0.13248 1.87988,-0.39746 l 0,0.79492 c -0.31511,0.13607 -0.6141,0.23275 -0.89697,0.29004 -0.2793,0.0609 -0.61768,0.0913 -1.01514,0.0913 m -0.2417,-5.35498 c -0.47265,1e-5 -0.85042,0.15398 -1.1333,0.46192 -0.2793,0.30794 -0.44401,0.73405 -0.49414,1.27832 l 3.07764,0 c -1e-5,-0.56217 -0.12533,-0.99186 -0.37598,-1.28907 -0.25065,-0.30077 -0.60872,-0.45116 -1.07422,-0.45117"
         style="font-size:11px;fill:#000000;fill-opacity:1"
         id="path4045" />
    </g>
    <path
       style="fill:#000000;fill-opacity:1;stroke:#000000;stroke-width:0.96621048px;stroke-linecap:butt;stroke-linejoin:miter;stroke-opacity:1"
       d="m 193.74725,608.89247 0,78.55529 z"
       id="path3818"
       inkscape:connector-curvature="0" />
    <g
       transform="translate(-3.75,527.09399)"
       style="font-size:15px;font-style:normal;font-variant:normal;font-weight:normal;font-stretch:normal;line-height:125%;letter-spacing:0px;word-spacing:0px;fill:#000000;fill-opacity:1;stroke:none;font-family:Open Sans;-inkscape-font-specification:Open Sans"
       id="flowRoot4277">
      <path
         d="m 207.91113,123.47945 0,-3.8081 c 0,-0.47982 -0.10921,-0.83789 -0.32763,-1.07422 -0.21843,-0.23633 -0.56039,-0.35449 -1.02588,-0.3545 -0.61947,10e-6 -1.07243,0.1683 -1.35889,0.50489 -0.28288,0.33659 -0.42432,0.88802 -0.42432,1.65429 l 0,3.07764 -0.8916,0 0,-8.35742 0.8916,0 0,2.52978 c 0,0.30437 -0.0143,0.55681 -0.043,0.75733 l 0.0537,0 c 0.17545,-0.28287 0.42431,-0.50488 0.74658,-0.66602 0.32584,-0.16471 0.69645,-0.24706 1.11181,-0.24707 0.71973,1e-5 1.25863,0.17188 1.6167,0.51563 0.36165,0.34017 0.54248,0.88265 0.54248,1.62744 l 0,3.84033 -0.8916,0"
         style="font-size:11px"
         id="path4293" />
      <path
         d="m 212.53027,122.85103 c 0.15755,0 0.30973,-0.0107 0.45655,-0.0322 0.1468,-0.0251 0.26318,-0.0501 0.34912,-0.0752 l 0,0.68213 c -0.0967,0.0465 -0.23991,0.0841 -0.42969,0.11279 -0.1862,0.0322 -0.3545,0.0483 -0.50488,0.0483 -1.13868,0 -1.70801,-0.59977 -1.70801,-1.79931 l 0,-3.50196 -0.84326,0 0,-0.42968 0.84326,-0.37061 0.37598,-1.25684 0.51562,0 0,1.36426 1.70801,0 0,0.69287 -1.70801,0 0,3.46436 c 0,0.35449 0.0841,0.62663 0.25244,0.8164 0.16829,0.18978 0.39925,0.28467 0.69287,0.28467"
         style="font-size:11px"
         id="path4295" />
      <path
         d="m 216.41895,122.85103 c 0.15754,0 0.30973,-0.0107 0.45654,-0.0322 0.1468,-0.0251 0.26318,-0.0501 0.34912,-0.0752 l 0,0.68213 c -0.0967,0.0465 -0.23991,0.0841 -0.42969,0.11279 -0.1862,0.0322 -0.35449,0.0483 -0.50488,0.0483 -1.13867,0 -1.70801,-0.59977 -1.70801,-1.79931 l 0,-3.50196 -0.84326,0 0,-0.42968 0.84326,-0.37061 0.37598,-1.25684 0.51562,0 0,1.36426 1.70801,0 0,0.69287 -1.70801,0 0,3.46436 c 0,0.35449 0.0841,0.62663 0.25244,0.8164 0.1683,0.18978 0.39925,0.28467 0.69288,0.28467"
         style="font-size:11px"
         id="path4297" />
      <path
         d="m 221.14551,123.58687 c -0.38314,0 -0.73405,-0.0698 -1.05274,-0.20947 -0.3151,-0.14323 -0.58008,-0.36165 -0.79492,-0.65527 l -0.0645,0 c 0.043,0.34375 0.0645,0.66959 0.0645,0.97754 l 0,2.42236 -0.8916,0 0,-8.5293 0.7251,0 0.12353,0.80567 0.043,0 c 0.22917,-0.32226 0.49593,-0.55501 0.80029,-0.69825 0.30436,-0.14322 0.65348,-0.21483 1.04737,-0.21484 0.78059,1e-5 1.38215,0.26677 1.80469,0.80029 0.4261,0.53354 0.63915,1.28191 0.63916,2.24512 -1e-5,0.9668 -0.21664,1.71875 -0.64991,2.25586 -0.42969,0.53353 -1.02767,0.80029 -1.79394,0.80029 m -0.12891,-5.34424 c -0.60156,10e-6 -1.03662,0.16651 -1.30517,0.49952 -0.26856,0.33301 -0.40642,0.86296 -0.41358,1.58984 l 0,0.19873 c 0,0.82715 0.13786,1.41976 0.41358,1.77783 0.27571,0.3545 0.71793,0.53174 1.32666,0.53174 0.50846,0 0.90592,-0.20589 1.19238,-0.61768 0.29003,-0.41178 0.43505,-0.97932 0.43506,-1.70263 -1e-5,-0.73405 -0.14503,-1.29622 -0.43506,-1.68653 -0.28646,-0.39387 -0.69109,-0.59081 -1.21387,-0.59082"
         style="font-size:11px"
         id="path4299" />
      <path
         d="m 225.02344,122.91011 c 0,-0.2399 0.0537,-0.42073 0.16113,-0.54248 0.111,-0.12532 0.26855,-0.18798 0.47266,-0.18798 0.20768,0 0.36881,0.0627 0.48339,0.18798 0.11817,0.12175 0.17725,0.30258 0.17725,0.54248 0,0.23275 -0.0591,0.41179 -0.17725,0.53711 -0.11816,0.12533 -0.27929,0.18799 -0.48339,0.18799 -0.18262,0 -0.3348,-0.0555 -0.45655,-0.1665 -0.11816,-0.11458 -0.17724,-0.30078 -0.17724,-0.5586 m 0,-4.74267 c 0,-0.48339 0.21126,-0.72509 0.63379,-0.7251 0.44042,1e-5 0.66064,0.24171 0.66064,0.7251 0,0.23275 -0.0591,0.41179 -0.17725,0.53711 -0.11816,0.12533 -0.27929,0.18799 -0.48339,0.18799 -0.18262,0 -0.3348,-0.0555 -0.45655,-0.16651 -0.11816,-0.11458 -0.17724,-0.30077 -0.17724,-0.55859"
         style="font-size:11px"
         id="path4301" />
      <path
         d="m 231.05518,115.62691 -2.92725,7.85254 -0.8916,0 2.92724,-7.85254 0.89161,0"
         style="font-size:11px"
         id="path4303" />
      <path
         d="m 235.09424,115.62691 -2.92725,7.85254 -0.8916,0 2.92725,-7.85254 0.8916,0"
         style="font-size:11px"
         id="path4305" />
      <path
         d="m 240.18066,123.47945 0,-3.8081 c 0,-0.47982 -0.10921,-0.83789 -0.32763,-1.07422 -0.21843,-0.23633 -0.56039,-0.35449 -1.02588,-0.3545 -0.61589,10e-6 -1.06706,0.16651 -1.35352,0.49952 -0.28646,0.33301 -0.42969,0.88265 -0.42968,1.64892 l 0,3.08838 -0.89161,0 0,-5.88672 0.7251,0 0.14502,0.80567 0.043,0 c 0.18261,-0.29004 0.43864,-0.51383 0.76807,-0.67139 0.32942,-0.16113 0.69644,-0.24169 1.10107,-0.2417 0.70898,1e-5 1.24251,0.17188 1.60059,0.51562 0.35806,0.34018 0.5371,0.88624 0.53711,1.63819 l 0,3.84033 -0.89161,0"
         style="font-size:11px"
         id="path4307" />
      <path
         d="m 245.38525,123.58687 c -0.87012,0 -1.55762,-0.26497 -2.0625,-0.79492 -0.5013,-0.52995 -0.75195,-1.26579 -0.75195,-2.20752 0,-0.94889 0.23275,-1.70263 0.69824,-2.26123 0.46908,-0.55859 1.09749,-0.83788 1.88526,-0.83789 0.73762,1e-5 1.32128,0.2435 1.75097,0.73047 0.42969,0.4834 0.64453,1.12256 0.64453,1.91748 l 0,0.56396 -4.05517,0 c 0.0179,0.69109 0.19157,1.21566 0.52099,1.57373 0.33301,0.35808 0.8003,0.53711 1.40186,0.53711 0.63379,0 1.26041,-0.13248 1.87988,-0.39746 l 0,0.79492 c -0.31511,0.13607 -0.6141,0.23275 -0.89697,0.29004 -0.2793,0.0609 -0.61768,0.0913 -1.01514,0.0913 m -0.2417,-5.35498 c -0.47265,10e-6 -0.85042,0.15398 -1.1333,0.46192 -0.27929,0.30794 -0.44401,0.73405 -0.49414,1.27832 l 3.07764,0 c 0,-0.56217 -0.12533,-0.99186 -0.37598,-1.28907 -0.25065,-0.30077 -0.60872,-0.45116 -1.07422,-0.45117"
         style="font-size:11px"
         id="path4309" />
      <path
         d="m 253.87158,123.47945 -1.07959,-3.45361 c -0.068,-0.21126 -0.19515,-0.69108 -0.38135,-1.43946 l -0.043,0 c -0.14324,0.62664 -0.26856,1.11003 -0.37598,1.4502 l -1.11182,3.44287 -1.03125,0 -1.60595,-5.88672 0.93457,0 c 0.37955,1.47885 0.6678,2.60499 0.86474,3.37842 0.20052,0.77344 0.3151,1.29443 0.34375,1.56299 l 0.043,0 c 0.0394,-0.2041 0.10205,-0.46729 0.18799,-0.78955 0.0895,-0.32585 0.1665,-0.58366 0.23096,-0.77344 l 1.07959,-3.37842 0.96679,0 1.05274,3.37842 c 0.20051,0.61589 0.33658,1.1333 0.4082,1.55225 l 0.043,0 c 0.0143,-0.12891 0.0519,-0.32764 0.11279,-0.5962 0.0644,-0.26855 0.43863,-1.71337 1.12256,-4.33447 l 0.92383,0 -1.62744,5.88672 -1.05811,0"
         style="font-size:11px"
         id="path4311" />
      <path
         d="m 263.07227,123.47945 -1.63819,0 0,-3.50732 c 0,-0.86654 -0.32227,-1.2998 -0.96679,-1.29981 -0.45834,1e-5 -0.78956,0.15577 -0.99366,0.46729 -0.2041,0.31152 -0.30615,0.81641 -0.30615,1.51465 l 0,2.82519 -1.63818,0 0,-8.35742 1.63818,0 0,1.70264 c 0,0.13249 -0.0125,0.44401 -0.0376,0.93457 l -0.0376,0.48339 0.0859,0 c 0.36523,-0.58723 0.94531,-0.88085 1.74024,-0.88086 0.7054,10e-6 1.24071,0.18979 1.60595,0.56934 0.36523,0.37956 0.54785,0.92383 0.54786,1.63281 l 0,3.91553"
         style="font-weight:bold"
         id="path4313" />
      <path
         d="m 268.58301,123.47945 -0.3169,-0.81641 -0.043,0 c -0.27572,0.34734 -0.56038,0.58903 -0.854,0.7251 -0.29004,0.13249 -0.6696,0.19873 -1.13867,0.19873 -0.5765,0 -1.03125,-0.16471 -1.36426,-0.49414 -0.32943,-0.32942 -0.49414,-0.7985 -0.49414,-1.40722 0,-0.63737 0.222,-1.10645 0.66602,-1.40723 0.44759,-0.30436 1.12076,-0.47265 2.01953,-0.50488 l 1.04199,-0.0322 0,-0.26318 c 0,-0.60872 -0.31153,-0.91309 -0.93457,-0.91309 -0.47982,0 -1.04379,0.14502 -1.6919,0.43506 l -0.54248,-1.10645 c 0.69108,-0.36164 1.45736,-0.54247 2.29883,-0.54248 0.80566,1e-5 1.42334,0.17546 1.85303,0.52637 0.42968,0.35092 0.64452,0.88444 0.64453,1.60059 l 0,4.00146 -1.14404,0 m -0.4834,-2.78223 -0.63379,0.0215 c -0.47624,0.0143 -0.83073,0.10026 -1.06348,0.25781 -0.23275,0.15756 -0.34912,0.39746 -0.34912,0.71973 0,0.46191 0.26497,0.69287 0.79492,0.69287 0.37956,0 0.68213,-0.10921 0.90772,-0.32764 0.22916,-0.21842 0.34375,-0.50846 0.34375,-0.87012 l 0,-0.49414"
         style="font-weight:bold"
         id="path4315" />
      <path
         d="m 272.83691,123.47945 -2.28808,-6.00488 1.71338,0 1.16015,3.42138 c 0.12891,0.43327 0.20947,0.84327 0.2417,1.22998 l 0.0322,0 c 0.0179,-0.34374 0.0985,-0.75374 0.2417,-1.22998 l 1.15478,-3.42138 1.71338,0 -2.28808,6.00488 -1.68116,0"
         style="font-weight:bold"
         id="path4317" />
      <path
         d="m 280.14697,118.5273 c -0.34733,1e-5 -0.61947,0.11101 -0.8164,0.33301 -0.19695,0.21843 -0.30974,0.52995 -0.33838,0.93457 l 2.29883,0 c -0.007,-0.40462 -0.1128,-0.71614 -0.3169,-0.93457 -0.2041,-0.222 -0.47982,-0.333 -0.82715,-0.33301 m 0.23096,5.05957 c -0.9668,0 -1.72233,-0.26676 -2.2666,-0.80029 -0.54427,-0.53353 -0.81641,-1.28906 -0.81641,-2.2666 0,-1.00618 0.25065,-1.7832 0.75195,-2.33106 0.50489,-0.55142 1.20134,-0.82714 2.08936,-0.82715 0.84863,10e-6 1.50927,0.24171 1.98193,0.7251 0.47265,0.48341 0.70898,1.15121 0.70899,2.00342 l 0,0.79492 -3.87256,0 c 0.0179,0.4655 0.15576,0.82894 0.41357,1.09033 0.25781,0.2614 0.61947,0.3921 1.08496,0.39209 0.36165,10e-6 0.70361,-0.0376 1.02588,-0.11279 0.32226,-0.0752 0.65885,-0.19515 1.00977,-0.35986 l 0,1.26758 c -0.28646,0.14323 -0.59262,0.24886 -0.91846,0.31689 -0.32585,0.0716 -0.72331,0.10742 -1.19238,0.10742"
         style="font-weight:bold"
         id="path4319" />
      <path
         d="m 289.71289,123.47945 -1.63818,0 0,-3.50732 c -10e-6,-0.43327 -0.077,-0.75732 -0.23096,-0.97217 -0.15398,-0.21842 -0.39926,-0.32763 -0.73584,-0.32764 -0.45834,1e-5 -0.78955,0.15398 -0.99365,0.46192 -0.20411,0.30436 -0.30616,0.81103 -0.30615,1.52002 l 0,2.82519 -1.63819,0 0,-6.00488 1.25147,0 0.22021,0.76806 0.0913,0 c 0.18261,-0.29003 0.43327,-0.50845 0.75195,-0.65527 0.32227,-0.15038 0.6875,-0.22558 1.09571,-0.22559 0.69823,10e-6 1.22818,0.18979 1.58984,0.56934 0.36165,0.37598 0.54247,0.92025 0.54248,1.63281 l 0,3.91553"
         style="font-weight:bold"
         id="path4321" />
      <path
         d="m 291.36719,122.91011 c 0,-0.2399 0.0537,-0.42073 0.16113,-0.54248 0.111,-0.12532 0.26855,-0.18798 0.47266,-0.18798 0.20768,0 0.36881,0.0627 0.48339,0.18798 0.11817,0.12175 0.17725,0.30258 0.17725,0.54248 0,0.23275 -0.0591,0.41179 -0.17725,0.53711 -0.11816,0.12533 -0.27929,0.18799 -0.48339,0.18799 -0.18262,0 -0.3348,-0.0555 -0.45655,-0.1665 -0.11816,-0.11458 -0.17724,-0.30078 -0.17724,-0.5586"
         style="font-size:11px"
         id="path4323" />
      <path
         d="m 295.30957,123.47945 -0.8916,0 0,-5.88672 0.8916,0 0,5.88672 m -0.9668,-7.48193 c 0,-0.2041 0.0501,-0.3527 0.15039,-0.4458 0.10026,-0.0967 0.22559,-0.14502 0.37598,-0.14502 0.14323,0 0.26676,0.0483 0.37061,0.14502 0.10384,0.0967 0.15576,0.24528 0.15576,0.4458 0,0.20053 -0.0519,0.35092 -0.15576,0.45117 -0.10385,0.0967 -0.22738,0.14503 -0.37061,0.14502 -0.15039,1e-5 -0.27572,-0.0483 -0.37598,-0.14502 -0.10026,-0.10025 -0.15039,-0.25064 -0.15039,-0.45117"
         style="font-size:11px"
         id="path4325" />
      <path
         d="m 302.29199,120.53072 c 0,0.95964 -0.2417,1.7098 -0.7251,2.25049 -0.4834,0.53711 -1.1512,0.80566 -2.00341,0.80566 -0.52637,0 -0.99366,-0.12353 -1.40186,-0.3706 -0.4082,-0.24707 -0.72331,-0.60156 -0.94531,-1.06348 -0.22201,-0.46191 -0.33301,-1.0026 -0.33301,-1.62207 0,-0.95963 0.23991,-1.70621 0.71973,-2.23975 0.47981,-0.5371 1.14583,-0.80565 1.99804,-0.80566 0.82357,1e-5 1.47705,0.27393 1.96045,0.82178 0.48698,0.54785 0.73047,1.28906 0.73047,2.22363 m -4.48486,0 c 0,0.75196 0.15039,1.32487 0.45117,1.71875 0.30078,0.39388 0.743,0.59082 1.32666,0.59082 0.58366,0 1.02588,-0.19515 1.32666,-0.58545 0.30436,-0.39388 0.45654,-0.96858 0.45654,-1.72412 0,-0.74837 -0.15218,-1.31591 -0.45654,-1.70264 -0.30078,-0.39029 -0.74658,-0.58544 -1.3374,-0.58545 -0.58366,10e-6 -1.02409,0.19158 -1.32129,0.57471 -0.2972,0.38314 -0.4458,0.95427 -0.4458,1.71338"
         style="font-size:11px"
         id="path4327" />
      <path
         d="m 212.17578,133.31392 c -1e-5,0.50847 -0.0788,0.97396 -0.23633,1.39649 -0.15756,0.42253 -0.37956,0.75016 -0.66601,0.98291 -0.28647,0.23275 -0.6159,0.34912 -0.98828,0.34912 -0.30795,0 -0.56756,-0.0931 -0.77881,-0.2793 -0.21127,-0.18619 -0.3366,-0.42431 -0.37598,-0.71435 l -0.043,0 c -0.14323,0.31152 -0.34912,0.55501 -0.61767,0.73047 -0.26498,0.17545 -0.58009,0.26318 -0.94532,0.26318 -0.53711,0 -0.95784,-0.18262 -1.2622,-0.54785 -0.30079,-0.36882 -0.45118,-0.86833 -0.45117,-1.49854 -1e-5,-0.73046 0.21126,-1.32307 0.63378,-1.77783 0.42253,-0.45833 0.97754,-0.68749 1.66504,-0.6875 0.24349,1e-5 0.5192,0.0233 0.82715,0.0698 0.30794,0.043 0.58544,0.10385 0.83252,0.18262 l -0.13428,2.52442 0,0.11816 c 0,0.63737 0.23812,0.95606 0.71436,0.95605 0.32584,1e-5 0.59081,-0.19156 0.79492,-0.5747 0.20409,-0.38672 0.30615,-0.88802 0.30615,-1.50391 0,-0.64811 -0.13249,-1.21565 -0.39746,-1.70264 -0.26498,-0.48697 -0.64275,-0.86115 -1.1333,-1.12255 -0.48698,-0.26497 -1.04737,-0.39746 -1.68115,-0.39747 -0.79851,1e-5 -1.49317,0.16652 -2.08398,0.49952 -0.59083,0.32943 -1.042,0.80209 -1.35352,1.41797 -0.31153,0.6123 -0.46729,1.32129 -0.46729,2.12695 0,1.09212 0.28825,1.9318 0.86475,2.51904 0.5765,0.58724 1.40722,0.88086 2.49219,0.88086 0.75195,0 1.53254,-0.15397 2.34179,-0.46191 l 0,0.71435 c -0.6875,0.30078 -1.4681,0.45117 -2.34179,0.45117 -1.29981,0 -2.30957,-0.35628 -3.0293,-1.06884 -0.71615,-0.71615 -1.07422,-1.71517 -1.07422,-2.99707 0,-0.93099 0.19157,-1.75993 0.57471,-2.48682 0.38314,-0.72688 0.9292,-1.28906 1.63818,-1.68652 0.70898,-0.40104 1.52181,-0.60156 2.43848,-0.60157 0.76985,1e-5 1.45377,0.16293 2.05176,0.48877 0.60155,0.32228 1.06526,0.7824 1.39111,1.38037 0.32942,0.59441 0.49413,1.28012 0.49414,2.05713 m -5.55371,0.70362 c 0,0.9095 0.34912,1.36426 1.04736,1.36425 0.74121,1e-5 1.14404,-0.56038 1.2085,-1.68115 l 0.0752,-1.40185 c -0.25781,-0.0716 -0.5389,-0.10742 -0.84326,-0.10743 -0.4655,1e-5 -0.83073,0.16114 -1.0957,0.4834 -0.2614,0.32227 -0.39209,0.76986 -0.39209,1.34278"
         style="font-size:11px"
         id="path4329" />
      <path
         d="m 217.79395,137.22945 0,-3.8081 c -1e-5,-0.47982 -0.10922,-0.83789 -0.32764,-1.07422 -0.21843,-0.23633 -0.56039,-0.35449 -1.02588,-0.3545 -0.61589,1e-5 -1.06706,0.16651 -1.35352,0.49952 -0.28646,0.33301 -0.42969,0.88265 -0.42968,1.64892 l 0,3.08838 -0.89161,0 0,-5.88672 0.7251,0 0.14502,0.80567 0.043,0 c 0.18262,-0.29004 0.43864,-0.51383 0.76807,-0.67139 0.32942,-0.16113 0.69645,-0.24169 1.10107,-0.2417 0.70898,1e-5 1.24251,0.17188 1.60059,0.51562 0.35806,0.34018 0.5371,0.88624 0.53711,1.63819 l 0,3.84033 -0.8916,0"
         style="font-size:11px"
         id="path4331" />
      <path
         d="m 222.99854,137.33687 c -0.87012,0 -1.55762,-0.26497 -2.0625,-0.79492 -0.50131,-0.52995 -0.75196,-1.26579 -0.75196,-2.20752 0,-0.94889 0.23275,-1.70263 0.69824,-2.26123 0.46908,-0.55859 1.0975,-0.83788 1.88526,-0.83789 0.73762,1e-5 1.32128,0.2435 1.75097,0.73047 0.42969,0.4834 0.64453,1.12256 0.64454,1.91748 l 0,0.56396 -4.05518,0 c 0.0179,0.69109 0.19157,1.21566 0.521,1.57373 0.333,0.35808 0.80029,0.53711 1.40185,0.53711 0.63379,0 1.26041,-0.13248 1.87988,-0.39746 l 0,0.79492 c -0.3151,0.13607 -0.6141,0.23275 -0.89697,0.29004 -0.2793,0.0609 -0.61768,0.0913 -1.01513,0.0913 m -0.2417,-5.35498 c -0.47266,1e-5 -0.85043,0.15398 -1.1333,0.46192 -0.2793,0.30794 -0.44402,0.73405 -0.49415,1.27832 l 3.07764,0 c 0,-0.56217 -0.12533,-0.99186 -0.37598,-1.28907 -0.25065,-0.30077 -0.60872,-0.45116 -1.07421,-0.45117"
         style="font-size:11px"
         id="path4333" />
      <path
         d="m 231.48486,137.22945 -1.07959,-3.45361 c -0.068,-0.21126 -0.19515,-0.69108 -0.38134,-1.43946 l -0.043,0 c -0.14324,0.62664 -0.26856,1.11003 -0.37598,1.4502 l -1.11182,3.44287 -1.03125,0 -1.60595,-5.88672 0.93457,0 c 0.37955,1.47885 0.6678,2.60499 0.86474,3.37842 0.20052,0.77344 0.31511,1.29443 0.34375,1.56299 l 0.043,0 c 0.0394,-0.2041 0.10205,-0.46729 0.18799,-0.78955 0.0895,-0.32585 0.1665,-0.58366 0.23096,-0.77344 l 1.07959,-3.37842 0.96679,0 1.05274,3.37842 c 0.20051,0.61589 0.33658,1.1333 0.4082,1.55225 l 0.043,0 c 0.0143,-0.12891 0.0519,-0.32764 0.11279,-0.5962 0.0644,-0.26855 0.43864,-1.71337 1.12256,-4.33447 l 0.92383,0 -1.62744,5.88672 -1.05811,0"
         style="font-size:11px"
         id="path4335" />
      <path
         d="m 240.68555,137.22945 -1.63819,0 0,-3.50732 c 0,-0.86654 -0.32227,-1.2998 -0.96679,-1.29981 -0.45834,10e-6 -0.78956,0.15577 -0.99366,0.46729 -0.2041,0.31152 -0.30615,0.81641 -0.30615,1.51465 l 0,2.82519 -1.63818,0 0,-8.35742 1.63818,0 0,1.70264 c 0,0.13249 -0.0125,0.44401 -0.0376,0.93457 l -0.0376,0.48339 0.0859,0 c 0.36524,-0.58723 0.94531,-0.88085 1.74024,-0.88086 0.7054,1e-5 1.24072,0.18979 1.60596,0.56934 0.36522,0.37956 0.54784,0.92383 0.54785,1.63281 l 0,3.91553"
         style="font-weight:bold"
         id="path4337" />
      <path
         d="m 246.19629,137.22945 -0.3169,-0.81641 -0.043,0 c -0.27572,0.34734 -0.56039,0.58903 -0.85401,0.7251 -0.29004,0.13249 -0.6696,0.19873 -1.13867,0.19873 -0.5765,0 -1.03125,-0.16471 -1.36426,-0.49414 -0.32943,-0.32942 -0.49414,-0.7985 -0.49414,-1.40722 0,-0.63737 0.22201,-1.10645 0.66602,-1.40723 0.44759,-0.30436 1.12076,-0.47265 2.01953,-0.50488 l 1.04199,-0.0322 0,-0.26318 c 0,-0.60872 -0.31153,-0.91309 -0.93457,-0.91309 -0.47982,0 -1.04378,0.14502 -1.69189,0.43506 l -0.54248,-1.10645 c 0.69107,-0.36164 1.45735,-0.54247 2.29882,-0.54248 0.80566,1e-5 1.42334,0.17546 1.85303,0.52637 0.42968,0.35092 0.64453,0.88444 0.64453,1.60059 l 0,4.00146 -1.14404,0 m -0.4834,-2.78223 -0.63379,0.0215 c -0.47624,0.0143 -0.83073,0.10026 -1.06348,0.25781 -0.23274,0.15756 -0.34912,0.39746 -0.34912,0.71973 0,0.46191 0.26498,0.69287 0.79493,0.69287 0.37955,0 0.68212,-0.10921 0.90771,-0.32764 0.22916,-0.21842 0.34375,-0.50846 0.34375,-0.87012 l 0,-0.49414"
         style="font-weight:bold"
         id="path4339" />
      <path
         d="m 250.4502,137.22945 -2.28809,-6.00488 1.71338,0 1.16015,3.42138 c 0.12891,0.43327 0.20947,0.84327 0.2417,1.22998 l 0.0322,0 c 0.0179,-0.34374 0.0985,-0.75374 0.2417,-1.22998 l 1.15478,-3.42138 1.71338,0 -2.28808,6.00488 -1.68115,0"
         style="font-weight:bold"
         id="path4341" />
      <path
         d="m 257.76025,132.2773 c -0.34733,1e-5 -0.61946,0.11101 -0.8164,0.33301 -0.19694,0.21843 -0.30974,0.52995 -0.33838,0.93457 l 2.29883,0 c -0.007,-0.40462 -0.1128,-0.71614 -0.3169,-0.93457 -0.2041,-0.222 -0.47982,-0.333 -0.82715,-0.33301 m 0.23096,5.05957 c -0.9668,0 -1.72233,-0.26676 -2.2666,-0.80029 -0.54427,-0.53353 -0.81641,-1.28906 -0.81641,-2.2666 0,-1.00618 0.25065,-1.7832 0.75196,-2.33106 0.50488,-0.55142 1.20133,-0.82714 2.08935,-0.82715 0.84863,1e-5 1.50927,0.24171 1.98194,0.7251 0.47265,0.48341 0.70897,1.15121 0.70898,2.00342 l 0,0.79492 -3.87256,0 c 0.0179,0.4655 0.15576,0.82894 0.41358,1.09033 0.2578,0.2614 0.61946,0.3921 1.08496,0.39209 0.36165,1e-5 0.70361,-0.0376 1.02588,-0.11279 0.32226,-0.0752 0.65884,-0.19515 1.00976,-0.35986 l 0,1.26758 c -0.28646,0.14323 -0.59261,0.24886 -0.91846,0.31689 -0.32585,0.0716 -0.72331,0.10742 -1.19238,0.10742"
         style="font-weight:bold"
         id="path4343" />
      <path
         d="m 267.32617,137.22945 -1.63818,0 0,-3.50732 c -1e-5,-0.43327 -0.077,-0.75732 -0.23096,-0.97217 -0.15397,-0.21842 -0.39925,-0.32763 -0.73584,-0.32764 -0.45834,10e-6 -0.78955,0.15398 -0.99365,0.46192 -0.20411,0.30436 -0.30616,0.81103 -0.30615,1.52002 l 0,2.82519 -1.63819,0 0,-6.00488 1.25147,0 0.22021,0.76806 0.0913,0 c 0.18262,-0.29003 0.43327,-0.50845 0.75195,-0.65527 0.32227,-0.15038 0.6875,-0.22558 1.09571,-0.22559 0.69823,1e-5 1.22818,0.18979 1.58984,0.56934 0.36165,0.37598 0.54248,0.92025 0.54248,1.63281 l 0,3.91553"
         style="font-weight:bold"
         id="path4345" />
      <path
         d="m 270.00098,137.22945 -0.89161,0 0,-5.88672 0.89161,0 0,5.88672 m -0.9668,-7.48193 c 0,-0.2041 0.0501,-0.3527 0.15039,-0.4458 0.10026,-0.0967 0.22559,-0.14502 0.37598,-0.14502 0.14322,0 0.26676,0.0483 0.3706,0.14502 0.10384,0.0967 0.15576,0.24528 0.15576,0.4458 0,0.20053 -0.0519,0.35092 -0.15576,0.45117 -0.10384,0.0967 -0.22738,0.14503 -0.3706,0.14502 -0.15039,1e-5 -0.27572,-0.0483 -0.37598,-0.14502 -0.10026,-0.10025 -0.15039,-0.25064 -0.15039,-0.45117"
         style="font-size:11px"
         id="path4347" />
      <path
         d="m 276.9834,134.28072 c -1e-5,0.95964 -0.24171,1.7098 -0.7251,2.25049 -0.4834,0.53711 -1.15121,0.80566 -2.00342,0.80566 -0.52637,0 -0.99365,-0.12353 -1.40185,-0.3706 -0.40821,-0.24707 -0.72331,-0.60156 -0.94532,-1.06348 -0.222,-0.46191 -0.333,-1.0026 -0.333,-1.62207 0,-0.95963 0.23991,-1.70621 0.71972,-2.23975 0.47982,-0.5371 1.14583,-0.80565 1.99805,-0.80566 0.82356,1e-5 1.47705,0.27393 1.96045,0.82178 0.48697,0.54785 0.73046,1.28906 0.73047,2.22363 m -4.48486,0 c -10e-6,0.75196 0.15038,1.32487 0.45117,1.71875 0.30078,0.39388 0.743,0.59082 1.32666,0.59082 0.58365,0 1.02587,-0.19515 1.32666,-0.58545 0.30435,-0.39388 0.45654,-0.96858 0.45654,-1.72412 0,-0.74837 -0.15219,-1.31591 -0.45654,-1.70264 -0.30079,-0.39029 -0.74659,-0.58544 -1.33741,-0.58545 -0.58366,1e-5 -1.02409,0.19158 -1.32128,0.57471 -0.29721,0.38314 -0.44581,0.95427 -0.4458,1.71338"
         style="font-size:11px"
         id="path4349" />
    </g>
  </g>
  <g
     inkscape:groupmode="layer"
     id="layer4"
     inkscape:label="magenta line"
     style="display:inline">
    <path
       style="opacity:0.14814818;fill:none;stroke:#ff00ff;stroke-width:3;stroke-miterlimit:4;stroke-opacity:1;stroke-dasharray:none;display:inline"
       d="m 236.73864,162.9464 c -3.575,-0.33045 -7.888,-1.3274 -9.58445,-2.21546 -2.79428,-1.46275 -3.49985,-1.47109 -7.5,-0.0886 -3.53031,1.2201 -7.22231,1.40076 -18.41555,0.90112 -7.7,-0.3437 -16.025,-0.53503 -18.5,-0.42517 -2.475,0.10987 -10.4625,0.19421 -17.75,0.18743 -7.2875,-0.007 -15.05,-0.005 -17.25,0.003 -32.2254,0.12468 -57.09646,0.0896 -59.5,-0.0838 -1.65,-0.11909 -9.09613,0.0477 -16.54695,0.37065 -8.71385,0.37781 -15.03146,0.18756 -17.70795,-0.53314 -6.04506,-1.62777 -12.30622,-6.8377 -15.7451,-13.10156 l -3,-5.46444 0,-33.5 0,-33.500001 2.77469,-5.650147 c 2.76418,-5.628725 6.0746,-8.862731 12.72531,-12.431556 2.814,-1.510016 6.048,-1.930406 16.5,-2.144848 7.15,-0.146695 16.79747,-0.605733 21.43883,-1.020084 8.3295,-0.743604 8.44901,-0.792748 9.22411,-3.793123 1.15287,-4.462674 7.35889,-11.184245 12.93557,-14.010163 3.58677,-1.817551 7.2043,-2.635346 13.69576,-3.096123 19.82021,-1.406879 31.67437,4.033031 36.81015,16.892296 1.04257,2.610438 2.57058,4.792422 3.39558,4.848853 0.825,0.05643 8.7,0.171918 17.5,0.256638 11.52911,0.110994 16.76843,0.547371 18.75,1.561662 2.30011,1.17734 3.19989,1.191867 5.5,0.0888 1.59142,-0.763205 7.83192,-1.51101 14.81245,-1.774991 l 12.06244,-0.456163 2.24861,-4.135524 c 4.93223,-9.071113 18.11594,-15.628906 28.85304,-14.351965 9.68106,1.15135 18.25656,6.46666 23.32361,14.456567 l 2.71394,4.27944 10.36795,0.355332 c 7.70847,0.264185 11.90702,0.939381 16.36796,2.632234 20.96573,7.956151 32.79721,26.123618 32.88326,50.492866 0.0589,16.68946 -4.26731,28.94028 -13.89054,39.33452 -12.28338,13.26751 -33.70247,18.74205 -51.64527,13.20008 -5.74704,-1.77508 -6.74979,-1.82775 -10.35533,-0.54389 -2.36811,0.84323 -8.06016,1.44907 -13.99212,1.48925 -5.5,0.0373 -11.575,0.40594 -13.5,0.81928 -1.925,0.41335 -6.425,0.48117 -10,0.15073 z"
       id="path4431"
       inkscape:connector-curvature="0" />
  </g>
</svg>
