<?xml version="1.0" encoding="UTF-8" standalone="no"?>
<!-- Created with Inkscape (http://www.inkscape.org/) -->

<svg
   xmlns:osb="http://www.openswatchbook.org/uri/2009/osb"
   xmlns:dc="http://purl.org/dc/elements/1.1/"
   xmlns:cc="http://creativecommons.org/ns#"
   xmlns:rdf="http://www.w3.org/1999/02/22-rdf-syntax-ns#"
   xmlns:svg="http://www.w3.org/2000/svg"
   xmlns="http://www.w3.org/2000/svg"
   xmlns:sodipodi="http://sodipodi.sourceforge.net/DTD/sodipodi-0.dtd"
   xmlns:inkscape="http://www.inkscape.org/namespaces/inkscape"
   width="382.5"
   height="202.5"
   id="svg3025"
   version="1.1"
   inkscape:version="0.48.4 r9939"
   sodipodi:docname="sticker.svg">
  <defs
     id="defs3027">
    <inkscape:perspective
       sodipodi:type="inkscape:persp3d"
       inkscape:vp_x="0 : 101.25 : 1"
       inkscape:vp_y="0 : 1000 : 0"
       inkscape:vp_z="382.5 : 101.25 : 1"
       inkscape:persp3d-origin="191.25 : 67.5 : 1"
       id="perspective4434" />
    <linearGradient
       id="linearGradient4350"
       osb:paint="gradient">
      <stop
         style="stop-color:#ff7b1a;stop-opacity:1;"
         offset="0"
         id="stop4352" />
      <stop
         style="stop-color:#ff7b1a;stop-opacity:0;"
         offset="1"
         id="stop4354" />
    </linearGradient>
  </defs>
  <sodipodi:namedview
     inkscape:document-units="mm"
     pagecolor="#ffffff"
     bordercolor="#666666"
     borderopacity="1.0"
     inkscape:pageopacity="0.0"
     inkscape:pageshadow="2"
     inkscape:zoom="1.4142136"
     inkscape:cx="114.47789"
     inkscape:cy="26.738933"
     inkscape:current-layer="layer4"
     id="namedview3029"
     showgrid="false"
     units="in"
     inkscape:window-width="1600"
     inkscape:window-height="876"
     inkscape:window-x="0"
     inkscape:window-y="24"
     inkscape:window-maximized="1" />
  <metadata
     id="metadata3031">
    <rdf:RDF>
      <cc:Work
         rdf:about="">
        <dc:format>image/svg+xml</dc:format>
        <dc:type
           rdf:resource="http://purl.org/dc/dcmitype/StillImage" />
        <dc:title></dc:title>
      </cc:Work>
    </rdf:RDF>
  </metadata>
  <g
     inkscape:label="text w/ orange border"
     inkscape:groupmode="layer"
     id="layer1"
     transform="translate(0,-541.59399)"
     style="display:inline">
    <g
       transform="translate(0,541.59399)"
       style="font-size:100px;font-style:normal;font-variant:normal;font-weight:normal;font-stretch:normal;line-height:125%;letter-spacing:-5px;word-spacing:0px;fill:#ffffff;fill-opacity:1;stroke:#ff7b1a;stroke-width:35.43307114;stroke-linecap:round;stroke-linejoin:round;stroke-miterlimit:4;stroke-opacity:1;font-family:Open Sans;-inkscape-font-specification:Open Sans"
       id="flowRoot3034">
      <path
         d="m 112.0625,136.60864 -14.892578,0 0,-31.88476 c -4.3e-5,-3.93877 -0.699913,-6.884731 -2.09961,-8.837895 -1.399779,-1.985635 -3.629594,-2.978472 -6.689453,-2.978516 -4.166697,4.4e-5 -7.177761,1.399782 -9.033203,4.199219 -1.855492,2.766964 -2.783226,7.373082 -2.783203,13.818362 l 0,25.68359 -14.892578,0 0,-54.589843 11.376953,0 2.001953,6.982422 0.830078,0 c 1.660133,-2.636668 3.938776,-4.622343 6.835938,-5.957031 2.929656,-1.367133 6.249965,-2.050726 9.960937,-2.050781 6.347611,5.5e-5 11.165316,1.725314 14.453126,5.175781 3.2877,3.418016 4.93158,8.365927 4.93164,14.843752 l 0,35.5957"
         style="font-weight:bold;text-align:center;word-spacing:0px;text-anchor:middle;fill:#ffffff;stroke:#ff7b1a"
         id="path3036" />
      <path
         d="m 172.88281,136.60864 -14.89258,0 0,-31.88476 c -4e-5,-7.877569 -2.92972,-11.816367 -8.78906,-11.816411 -4.1667,4.4e-5 -7.17776,1.416058 -9.0332,4.248047 -1.85549,2.832068 -2.78323,7.421904 -2.7832,13.769534 l 0,25.68359 -14.89258,0 0,-75.976561 14.89258,0 0,15.478515 c -3e-5,1.204487 -0.11396,4.036515 -0.3418,8.496094 l -0.3418,4.394531 0.78125,0 c 3.32029,-5.338489 8.59372,-8.007757 15.82031,-8.007812 6.41272,5.5e-5 11.27925,1.725314 14.59961,5.175781 3.32026,3.450568 4.98041,8.39848 4.98047,14.843752 l 0,35.5957"
         style="font-weight:bold;text-align:center;word-spacing:0px;text-anchor:middle;fill:#ffffff;stroke:#ff7b1a"
         id="path3038" />
      <path
         d="M 196.30078,136.60864 175.5,82.018797 l 15.57617,0 10.54688,31.103513 c 1.17184,3.93882 1.90427,7.66603 2.19726,11.18164 l 0.29297,0 c 0.16273,-3.12498 0.89515,-6.85219 2.19727,-11.18164 l 10.49804,-31.103513 15.57618,0 -20.80079,54.589843 -15.2832,0"
         style="font-weight:bold;text-align:center;word-spacing:0px;text-anchor:middle;fill:#ffffff;stroke:#ff7b1a"
         id="path3040" />
      <path
         d="m 234.75781,131.43286 c 0,-2.18098 0.48828,-3.82486 1.46485,-4.93164 1.0091,-1.13931 2.44139,-1.70897 4.29687,-1.70899 1.88801,2e-5 3.35285,0.56968 4.39453,1.70899 1.0742,1.10678 1.61131,2.75066 1.61133,4.93164 -2e-5,2.11589 -0.53713,3.74349 -1.61133,4.88281 -1.07423,1.13932 -2.53908,1.70899 -4.39453,1.70899 -1.66017,0 -3.04363,-0.50456 -4.15039,-1.51368 -1.07423,-1.04166 -1.61133,-2.73437 -1.61133,-5.07812"
         style="fill:#ffffff;stroke:#ff7b1a"
         id="path3042" />
      <path
         d="m 265.59766,136.60864 -8.10547,0 0,-53.515624 8.10547,0 0,53.515624 m -8.78907,-68.017577 c 0,-1.855399 0.45572,-3.206309 1.36719,-4.052734 0.91145,-0.878834 2.05077,-1.318286 3.41797,-1.31836 1.30207,7.4e-5 2.42512,0.439526 3.36914,1.31836 0.94399,0.878977 1.416,2.229887 1.41602,4.052734 -2e-5,1.822983 -0.47203,3.190169 -1.41602,4.101562 -0.94402,0.87897 -2.06707,1.318422 -3.36914,1.31836 -1.3672,6.2e-5 -2.50652,-0.43939 -3.41797,-1.31836 -0.91147,-0.911393 -1.36719,-2.278579 -1.36719,-4.101562"
         style="fill:#ffffff;stroke:#ff7b1a"
         id="path3044" />
      <path
         d="m 324.07422,109.802 c -6e-5,8.72398 -2.19732,15.54363 -6.5918,20.45898 -4.39457,4.88282 -10.46553,7.32422 -18.21289,7.32422 -4.78518,0 -9.03322,-1.12304 -12.74414,-3.36914 -3.71095,-2.24609 -6.57553,-5.46874 -8.59375,-9.66797 -2.01824,-4.1992 -3.02735,-9.11456 -3.02734,-14.74609 -10e-6,-8.72392 2.18098,-15.511025 6.54297,-20.361328 4.36196,-4.88276 10.41664,-7.324164 18.16406,-7.324218 7.48694,5.4e-5 13.42769,2.490286 17.82226,7.470703 4.42703,4.980511 6.64057,11.718783 6.64063,20.214843 m -40.77149,0 c -10e-6,6.83596 1.36718,12.04429 4.10157,15.625 2.73435,3.58074 6.75453,5.3711 12.06054,5.37109 5.30596,1e-5 9.32614,-1.77408 12.06055,-5.32226 2.76688,-3.58072 4.15034,-8.80532 4.15039,-15.67383 -5e-5,-6.80335 -1.38351,-11.962851 -4.15039,-15.478515 -2.73441,-3.548131 -6.78714,-5.322218 -12.1582,-5.322266 -5.30602,4.8e-5 -9.30992,1.741583 -12.01172,5.22461 -2.70184,3.483111 -4.05275,8.675161 -4.05274,15.576171"
         style="fill:#ffffff;stroke:#ff7b1a"
         id="path3046" />
    </g>
  </g>
  <g
     inkscape:groupmode="layer"
     id="layer2"
     inkscape:label="white text"
     style="display:inline">
    <g
       style="font-size:100px;font-style:normal;font-variant:normal;font-weight:normal;font-stretch:normal;line-height:125%;letter-spacing:-5px;word-spacing:0px;fill:#ffffff;fill-opacity:1;stroke:none;font-family:Open Sans;-inkscape-font-specification:Open Sans"
       id="flowRoot4362">
      <path
         d="m 112.0625,136.60864 -14.892578,0 0,-31.88476 c -4.3e-5,-3.93877 -0.699913,-6.884731 -2.09961,-8.837895 -1.399779,-1.985635 -3.629594,-2.978472 -6.689453,-2.978516 -4.166697,4.4e-5 -7.177761,1.399782 -9.033203,4.199219 -1.855492,2.766964 -2.783226,7.373082 -2.783203,13.818362 l 0,25.68359 -14.892578,0 0,-54.589843 11.376953,0 2.001953,6.982422 0.830078,0 c 1.660133,-2.636668 3.938776,-4.622343 6.835938,-5.957031 2.929656,-1.367133 6.249965,-2.050726 9.960937,-2.050781 6.347611,5.5e-5 11.165316,1.725314 14.453126,5.175781 3.2877,3.418016 4.93158,8.365927 4.93164,14.843752 l 0,35.5957"
         style="font-weight:bold;text-align:center;word-spacing:0px;text-anchor:middle;fill:#ffffff"
         id="path3004" />
      <path
         d="m 172.88281,136.60864 -14.89258,0 0,-31.88476 c -4e-5,-7.877569 -2.92972,-11.816367 -8.78906,-11.816411 -4.1667,4.4e-5 -7.17776,1.416058 -9.0332,4.248047 -1.85549,2.832068 -2.78323,7.421904 -2.7832,13.769534 l 0,25.68359 -14.89258,0 0,-75.976561 14.89258,0 0,15.478515 c -3e-5,1.204487 -0.11396,4.036515 -0.3418,8.496094 l -0.3418,4.394531 0.78125,0 c 3.32029,-5.338489 8.59372,-8.007757 15.82031,-8.007812 6.41272,5.5e-5 11.27925,1.725314 14.59961,5.175781 3.32026,3.450568 4.98041,8.39848 4.98047,14.843752 l 0,35.5957"
         style="font-weight:bold;text-align:center;word-spacing:0px;text-anchor:middle;fill:#ffffff"
         id="path3006" />
      <path
         d="M 196.30078,136.60864 175.5,82.018797 l 15.57617,0 10.54688,31.103513 c 1.17184,3.93882 1.90427,7.66603 2.19726,11.18164 l 0.29297,0 c 0.16273,-3.12498 0.89515,-6.85219 2.19727,-11.18164 l 10.49804,-31.103513 15.57618,0 -20.80079,54.589843 -15.2832,0"
         style="font-weight:bold;text-align:center;word-spacing:0px;text-anchor:middle;fill:#ffffff"
         id="path3008" />
      <path
         d="m 234.75781,131.43286 c 0,-2.18098 0.48828,-3.82486 1.46485,-4.93164 1.0091,-1.13931 2.44139,-1.70897 4.29687,-1.70899 1.88801,2e-5 3.35285,0.56968 4.39453,1.70899 1.0742,1.10678 1.61131,2.75066 1.61133,4.93164 -2e-5,2.11589 -0.53713,3.74349 -1.61133,4.88281 -1.07423,1.13932 -2.53908,1.70899 -4.39453,1.70899 -1.66017,0 -3.04363,-0.50456 -4.15039,-1.51368 -1.07423,-1.04166 -1.61133,-2.73437 -1.61133,-5.07812"
         style="fill:#ffffff"
         id="path3010" />
      <path
         d="m 265.59766,136.60864 -8.10547,0 0,-53.515624 8.10547,0 0,53.515624 m -8.78907,-68.017577 c 0,-1.855399 0.45572,-3.206309 1.36719,-4.052734 0.91145,-0.878834 2.05077,-1.318286 3.41797,-1.31836 1.30207,7.4e-5 2.42512,0.439526 3.36914,1.31836 0.94399,0.878977 1.416,2.229887 1.41602,4.052734 -2e-5,1.822983 -0.47203,3.190169 -1.41602,4.101562 -0.94402,0.87897 -2.06707,1.318422 -3.36914,1.31836 -1.3672,6.2e-5 -2.50652,-0.43939 -3.41797,-1.31836 -0.91147,-0.911393 -1.36719,-2.278579 -1.36719,-4.101562"
         style="fill:#ffffff"
         id="path3012" />
      <path
         d="m 324.07422,109.802 c -6e-5,8.72398 -2.19732,15.54363 -6.5918,20.45898 -4.39457,4.88282 -10.46553,7.32422 -18.21289,7.32422 -4.78518,0 -9.03322,-1.12304 -12.74414,-3.36914 -3.71095,-2.24609 -6.57553,-5.46874 -8.59375,-9.66797 -2.01824,-4.1992 -3.02735,-9.11456 -3.02734,-14.74609 -10e-6,-8.72392 2.18098,-15.511025 6.54297,-20.361328 4.36196,-4.88276 10.41664,-7.324164 18.16406,-7.324218 7.48694,5.4e-5 13.42769,2.490286 17.82226,7.470703 4.42703,4.980511 6.64057,11.718783 6.64063,20.214843 m -40.77149,0 c -10e-6,6.83596 1.36718,12.04429 4.10157,15.625 2.73435,3.58074 6.75453,5.3711 12.06054,5.37109 5.30596,1e-5 9.32614,-1.77408 12.06055,-5.32226 2.76688,-3.58072 4.15034,-8.80532 4.15039,-15.67383 -5e-5,-6.80335 -1.38351,-11.962851 -4.15039,-15.478515 -2.73441,-3.548131 -6.78714,-5.322218 -12.1582,-5.322266 -5.30602,4.8e-5 -9.30992,1.741583 -12.01172,5.22461 -2.70184,3.483111 -4.05275,8.675161 -4.05274,15.576171"
         style="fill:#ffffff"
         id="path3014" />
    </g>
  </g>
  <g
     inkscape:groupmode="layer"
     id="layer4"
     inkscape:label="magenta cut line"
     style="display:inline">
    <path
       style="opacity:0.14814818;fill:none;stroke:#ff00ff;stroke-opacity:1;display:inline"
       d="m 232.06038,153.97789 c -2.71679,-1.06071 -5.58398,-2.57292 -6.37153,-3.36047 -1.24255,-1.24255 -2.03064,-1.11357 -5.95932,0.97533 C 215.69382,153.73856 213.938,154 203.5625,154 c -9.5403,0 -12.32506,-0.34946 -15.44004,-1.93757 -3.77558,-1.9249 -3.826,-1.92424 -7.71045,0.10045 -3.46843,1.80785 -5.36114,1.99844 -16.75857,1.68757 -8.37465,-0.22842 -13.37553,-0.78816 -14.36197,-1.60751 -1.2243,-1.01692 -2.23058,-0.95742 -5.26755,0.31151 -3.14796,1.31531 -7.82847,1.51828 -28.98754,1.25706 -18.401942,-0.22717 -25.642876,-0.65184 -26.745866,-1.56857 -1.223882,-1.01722 -2.236394,-0.95459 -5.306659,0.32825 -2.938308,1.22771 -6.541,1.51127 -15.97087,1.25707 -11.55499,-0.3115 -12.364002,-0.4713 -15.845879,-3.12995 C 43.999589,145.22541 44,145.22775 44,110 44,74.273058 44.198282,73.213872 51.832383,68.160762 55.602966,65.664965 56.724762,65.4734 69.926095,65.070967 77.666743,64.834998 88.562454,64.641371 94.138787,64.640684 l 10.138783,-0.0012 0.60655,-4.425266 c 0.86437,-6.306313 4.185,-11.600267 8.98377,-14.322527 3.6327,-2.060771 5.46158,-2.346956 15.13211,-2.367885 9.49872,-0.02056 11.63946,0.29118 15.68541,2.284132 5.36093,2.64069 8.35573,6.949351 9.3256,13.4169 l 0.65233,4.350039 6.16833,1.108244 c 3.58154,0.643483 11.82978,0.903701 19.66833,0.620502 13.10766,-0.473566 13.64082,-0.411753 18.34541,2.126912 l 4.84541,2.614653 3.65459,-2.272594 C 210.69564,65.689264 212.17475,65.5 225.10587,65.5 l 14.10587,0 1.30075,-4.406621 C 242.8693,53.109108 252.82896,46 261.6579,46 c 8.42238,0 17.87352,7.251531 20.56039,15.775268 l 1.6811,5.333051 4.0503,-0.804159 c 2.22767,-0.442288 8.2105,-0.761236 13.29518,-0.708773 8.53835,0.0881 9.81343,0.376388 16.68468,3.772343 12.64151,6.247775 20.38096,17.476263 22.66472,32.88227 2.30224,15.5306 -1.7486,30.1003 -11.16863,40.17034 -8.19205,8.75733 -15.13705,11.83678 -27.932,12.38522 -8.24585,0.35345 -10.52933,0.0641 -17.2212,-2.1823 l -7.71485,-2.58979 -3.45479,2.03838 c -2.92889,1.72809 -5.02636,2.01717 -13.7788,1.89905 -5.6782,-0.0766 -11.89603,0.34857 -13.8174,0.94489 -4.83731,1.50131 -7.71231,1.30077 -13.44622,-0.9379 z"
       id="path4395"
       inkscape:connector-curvature="0" />
    <path
       style="opacity:0.14814818;fill:none;stroke:#ff00ff;stroke-width:3;stroke-miterlimit:4;stroke-opacity:1;stroke-dasharray:none;display:inline"
       d="m 236.73864,162.9464 c -3.575,-0.33045 -7.888,-1.3274 -9.58445,-2.21546 -2.79428,-1.46275 -3.49985,-1.47109 -7.5,-0.0886 -3.53031,1.2201 -7.22231,1.40076 -18.41555,0.90112 -7.7,-0.3437 -16.025,-0.53503 -18.5,-0.42517 -2.475,0.10987 -10.4625,0.19421 -17.75,0.18743 -7.2875,-0.007 -15.05,-0.005 -17.25,0.003 -32.2254,0.12468 -57.096459,0.0896 -59.5,-0.0838 -1.65,-0.11909 -9.096128,0.0477 -16.546951,0.37065 -8.713849,0.37781 -15.031456,0.18756 -17.70795,-0.53314 -6.045056,-1.62777 -12.306219,-6.8377 -15.745099,-13.10156 l -3,-5.46444 0,-33.5 0,-33.500001 2.774695,-5.650147 c 2.764175,-5.628725 6.074599,-8.862731 12.725305,-12.431556 2.813999,-1.510016 6.048002,-1.930406 16.5,-2.144848 7.15,-0.146695 16.797476,-0.605733 21.438835,-1.020084 8.3295,-0.743604 8.449009,-0.792748 9.224113,-3.793123 1.152867,-4.462674 7.358882,-11.184245 12.935562,-14.010163 3.58677,-1.817551 7.2043,-2.635346 13.69576,-3.096123 19.82021,-1.406879 31.67437,4.033031 36.81015,16.892296 1.04257,2.610438 2.57058,4.792422 3.39558,4.848853 0.825,0.05643 8.7,0.171918 17.5,0.256638 11.52911,0.110994 16.76843,0.547371 18.75,1.561662 2.30011,1.17734 3.19989,1.191867 5.5,0.0888 1.59142,-0.763205 7.83192,-1.51101 14.81245,-1.774991 l 12.06244,-0.456163 2.24861,-4.135524 c 4.93223,-9.071113 18.11594,-15.628906 28.85304,-14.351965 9.68106,1.15135 18.25656,6.46666 23.32361,14.456567 l 2.71394,4.27944 10.36795,0.355332 c 7.70847,0.264185 11.90702,0.939381 16.36796,2.632234 20.96573,7.956151 32.79721,26.123618 32.88326,50.492866 0.0589,16.68946 -4.26731,28.94028 -13.89054,39.33452 -12.28338,13.26751 -33.70247,18.74205 -51.64527,13.20008 -5.74704,-1.77508 -6.74979,-1.82775 -10.35533,-0.54389 -2.36811,0.84323 -8.06016,1.44907 -13.99212,1.48925 -5.5,0.0373 -11.575,0.40594 -13.5,0.81928 -1.925,0.41335 -6.425,0.48117 -10,0.15073 z"
       id="path4431"
       inkscape:connector-curvature="0" />
  </g>
</svg>
