<?xml version="1.0" encoding="UTF-8" standalone="no"?>
<!-- Created with Inkscape (http://www.inkscape.org/) -->

<svg
   xmlns:dc="http://purl.org/dc/elements/1.1/"
   xmlns:cc="http://creativecommons.org/ns#"
   xmlns:rdf="http://www.w3.org/1999/02/22-rdf-syntax-ns#"
   xmlns:svg="http://www.w3.org/2000/svg"
   xmlns="http://www.w3.org/2000/svg"
   xmlns:sodipodi="http://sodipodi.sourceforge.net/DTD/sodipodi-0.dtd"
   xmlns:inkscape="http://www.inkscape.org/namespaces/inkscape"
   width="580.56958"
   height="90.714272"
   id="svg3006"
   version="1.1"
   inkscape:version="0.91 r"
   sodipodi:docname="nhvio-logo-tight.svg"
   inkscape:export-filename="/home/dan/Documents/newhavenio/logos/nhvio-logo-banner.png"
   inkscape:export-xdpi="148.82001"
   inkscape:export-ydpi="148.82001">
  <defs
     id="defs3008" />
  <sodipodi:namedview
     id="base"
     pagecolor="#ffffff"
     bordercolor="#666666"
     borderopacity="1.0"
     inkscape:pageopacity="0.0"
     inkscape:pageshadow="2"
     inkscape:zoom="1"
     inkscape:cx="434.37628"
     inkscape:cy="67.067001"
     inkscape:document-units="px"
     inkscape:current-layer="layer1"
     showgrid="false"
     inkscape:window-width="1918"
     inkscape:window-height="1026"
     inkscape:window-x="0"
     inkscape:window-y="25"
     inkscape:window-maximized="0"
     fit-margin-top="0"
     fit-margin-left="0"
     fit-margin-right="0"
     fit-margin-bottom="0" />
  <metadata
     id="metadata3011">
    <rdf:RDF>
      <cc:Work
         rdf:about="">
        <dc:format>image/svg+xml</dc:format>
        <dc:type
           rdf:resource="http://purl.org/dc/dcmitype/StillImage" />
        <dc:title></dc:title>
      </cc:Work>
    </rdf:RDF>
  </metadata>
  <g
     inkscape:label="Layer 1"
     inkscape:groupmode="layer"
     id="layer1"
     transform="translate(-12.142858,-855.93359)">
    <rect
       style="fill:#ff7b1a;fill-opacity:1;stroke:none"
       id="rect3014"
       width="580.56958"
       height="90.714272"
       x="12.142858"
       y="855.93359"
       inkscape:export-xdpi="300"
       inkscape:export-ydpi="300" />
    <g
       id="g4148"
       transform="matrix(0.76789966,0,0,0.76789966,84.843696,214.56051)">
      <g
         id="flowRoot3792"
         style="font-style:normal;font-variant:normal;font-weight:500;font-stretch:normal;font-size:48px;line-height:125%;font-family:'Tlwg Typist';-inkscape-font-specification:'Tlwg Typist Medium';letter-spacing:0px;word-spacing:0px;fill:#ffffff;fill-opacity:1;stroke:none"
         transform="matrix(1.44,0,0,1.44,-24.548955,661.44081)">
        <path
           id="path3920"
           style="font-family:'Aller Light';-inkscape-font-specification:'Aller Light';fill:#ffffff"
           d="m 91.38025,157.57538 c 0.255996,-0.032 0.495995,-0.048 0.72,-0.048 0.255995,-0.032 0.495995,-0.048 0.72,-0.048 0.255994,3e-5 0.495994,0.016 0.72,0.048 0.223993,3e-5 0.463993,0.016 0.72,0.048 0.06399,0.57603 0.111993,1.29603 0.144,2.16 0.03199,0.86403 0.04799,1.61602 0.048,2.256 0.319992,-0.57598 0.735992,-1.15198 1.248,-1.728 0.511991,-0.60797 1.10399,-1.15197 1.776,-1.632 0.703989,-0.47997 1.503988,-0.86397 2.4,-1.152 0.89599,-0.31997 1.87199,-0.47997 2.928,-0.48 2.81598,3e-5 4.86398,0.84803 6.144,2.544 1.27998,1.66402 1.91998,4.01602 1.92,7.056 l 0,15.456 c -0.19202,0.032 -0.46402,0.048 -0.816,0.048 -0.32002,0.032 -0.57602,0.048 -0.768,0.048 -0.16002,0 -0.41602,-0.016 -0.768,-0.048 -0.35202,0 -0.62402,-0.016 -0.816,-0.048 l 0,-14.496 c -2e-5,-2.71998 -0.43202,-4.67198 -1.296,-5.856 -0.83202,-1.18397 -2.09602,-1.77597 -3.792,-1.776 -1.12001,3e-5 -2.17601,0.22403 -3.168,0.672 -0.992011,0.44802 -1.85601,1.10402 -2.592,1.968 -0.704009,0.83202 -1.264008,1.87202 -1.68,3.12 -0.416008,1.24802 -0.624007,2.67202 -0.624,4.272 l 0,12.096 c -0.192007,0.032 -0.464007,0.048 -0.816,0.048 -0.320006,0.032 -0.576006,0.048 -0.768,0.048 -0.160006,0 -0.416005,-0.016 -0.768,-0.048 -0.352005,0 -0.624004,-0.016 -0.816,-0.048 l 0,-24.48"
           inkscape:connector-curvature="0" />
        <path
           id="path3922"
           style="font-family:'Aller Light';-inkscape-font-specification:'Aller Light';fill:#ffffff"
           d="m 120.865,170.29538 c -10e-6,3.26401 0.75199,5.66401 2.256,7.2 1.50399,1.53601 3.75999,2.30401 6.768,2.304 1.21598,10e-6 2.33598,-0.096 3.36,-0.288 1.05598,-0.22399 2.07998,-0.51199 3.072,-0.864 0.15998,0.35201 0.28798,0.78401 0.384,1.296 0.096,0.51201 0.15998,0.976 0.192,1.392 -0.92802,0.416 -2.01602,0.736 -3.264,0.96 -1.24802,0.224 -2.60802,0.336 -4.08,0.336 -2.11201,0 -3.93601,-0.304 -5.472,-0.912 -1.50401,-0.64 -2.75201,-1.51999 -3.744,-2.64 -0.96,-1.11999 -1.68,-2.44799 -2.16,-3.984 -0.448,-1.56799 -0.672,-3.27999 -0.672,-5.136 0,-1.79198 0.208,-3.47198 0.624,-5.04 0.448,-1.56798 1.104,-2.94398 1.968,-4.128 0.89599,-1.18397 2.03199,-2.11197 3.408,-2.784 1.37599,-0.67197 3.02399,-1.00797 4.944,-1.008 1.59998,3e-5 3.02398,0.27203 4.272,0.816 1.24798,0.54403 2.28798,1.31203 3.12,2.304 0.86398,0.96002 1.50398,2.12802 1.92,3.504 0.44798,1.34402 0.67198,2.81602 0.672,4.416 -2e-5,0.28802 -0.016,0.65602 -0.048,1.104 -2e-5,0.44802 -0.016,0.83202 -0.048,1.152 l -17.472,0 m 14.4,-2.64 c -2e-5,-0.99198 -0.12802,-1.96798 -0.384,-2.928 -0.25602,-0.95998 -0.65602,-1.79198 -1.2,-2.496 -0.54402,-0.73598 -1.24802,-1.32798 -2.112,-1.776 -0.86402,-0.44797 -1.90402,-0.67197 -3.12,-0.672 -2.24001,3e-5 -3.98401,0.68803 -5.232,2.064 -1.24801,1.37602 -2.00001,3.31202 -2.256,5.808 l 14.304,0"
           inkscape:connector-curvature="0" />
        <path
           id="path3924"
           style="font-family:'Aller Light';-inkscape-font-specification:'Aller Light';fill:#ffffff"
           d="m 142.02028,157.57538 c 0.192,-0.032 0.432,-0.048 0.72,-0.048 0.32,-0.032 0.64,-0.048 0.96,-0.048 0.256,3e-5 0.56,0.016 0.912,0.048 0.38399,3e-5 0.67199,0.016 0.864,0.048 l 5.424,20.832 6.048,-20.832 c 0.25598,-0.032 0.52798,-0.048 0.816,-0.048 0.31998,-0.032 0.65598,-0.048 1.008,-0.048 0.25598,3e-5 0.51198,3e-5 0.768,0 0.28798,3e-5 0.55998,0.032 0.816,0.096 l 6.048,20.544 5.424,-20.544 c 0.19197,-0.032 0.41597,-0.048 0.672,-0.048 0.28797,-0.032 0.55997,-0.048 0.816,-0.048 0.25597,3e-5 0.54397,0.016 0.864,0.048 0.31997,3e-5 0.57596,0.016 0.768,0.048 l -7.056,24.48 c -0.57603,0.096 -1.13603,0.144 -1.68,0.144 -0.60803,0 -1.16803,-0.048 -1.68,-0.144 l -5.904,-20.256 -6.192,20.256 c -0.57601,0.096 -1.13601,0.144 -1.68,0.144 -0.60801,0 -1.16801,-0.048 -1.68,-0.144 l -7.056,-24.48"
           inkscape:connector-curvature="0" />
      </g>
      <g
         id="flowRoot3792-8"
         style="font-style:normal;font-variant:normal;font-weight:500;font-stretch:normal;font-size:48px;line-height:125%;font-family:'Tlwg Typist';-inkscape-font-specification:'Tlwg Typist Medium';letter-spacing:0px;word-spacing:0px;fill:#ffffff;fill-opacity:1;stroke:none"
         transform="matrix(1.44,0,0,1.44,304.085,661.44081)">
        <path
           id="path3902"
           style="font-family:'Aller Light';-inkscape-font-specification:'Aller Light';fill:#ffffff"
           d="m 90.03625,182.05538 c -0.096,-0.672 -0.144003,-1.34399 -0.144,-2.016 -3e-6,-0.70399 0.048,-1.39199 0.144,-2.064 0.671996,-0.096 1.343996,-0.14399 2.016,-0.144 0.703994,1e-5 1.391994,0.048 2.064,0.144 0.09599,0.67201 0.143993,1.34401 0.144,2.016 -7e-6,0.70401 -0.04801,1.392 -0.144,2.064 -0.672006,0.096 -1.344006,0.144 -2.016,0.144 -0.704004,0 -1.392004,-0.048 -2.064,-0.144"
           inkscape:connector-curvature="0" />
        <path
           id="path3904"
           style="font-family:'Aller Light';-inkscape-font-specification:'Aller Light';fill:#ffffff"
           d="m 102.712,160.26338 -3.072,0 c -0.032,-0.15997 -0.064,-0.35197 -0.096,-0.576 -3e-6,-0.22397 -3e-6,-0.46397 0,-0.72 -3e-6,-0.25597 -3e-6,-0.51197 0,-0.768 0.032,-0.25597 0.064,-0.46397 0.096,-0.624 l 6.24,0 0,24.48 c -0.19201,0.032 -0.46401,0.048 -0.816,0.048 -0.32001,0.032 -0.57601,0.048 -0.768,0.048 -0.16001,0 -0.41601,-0.016 -0.768,-0.048 -0.35201,0 -0.62401,-0.016 -0.816,-0.048 l 0,-21.792 m -1.584,-8.688 c -0.032,-0.28797 -0.064,-0.63997 -0.096,-1.056 0,-0.41596 0,-0.76796 0,-1.056 0,-0.25596 0,-0.57596 0,-0.96 0.032,-0.38396 0.064,-0.70396 0.096,-0.96 0.288,-0.032 0.64,-0.048 1.056,-0.048 0.41599,-0.032 0.76799,-0.048 1.056,-0.048 0.25599,4e-5 0.57599,0.016 0.96,0.048 0.38399,4e-5 0.70399,0.016 0.96,0.048 0.032,0.25604 0.048,0.57604 0.048,0.96 0.032,0.38404 0.048,0.70404 0.048,0.96 -1e-5,0.28804 -0.016,0.64004 -0.048,1.056 -1e-5,0.41603 -0.016,0.76803 -0.048,1.056 -0.25601,0.032 -0.57601,0.064 -0.96,0.096 -0.38401,3e-5 -0.70401,3e-5 -0.96,0 -0.28801,3e-5 -0.64001,3e-5 -1.056,0 -0.416,-0.032 -0.768,-0.064 -1.056,-0.096"
           inkscape:connector-curvature="0" />
        <path
           id="path3906"
           style="font-family:'Aller Light';-inkscape-font-specification:'Aller Light';fill:#ffffff"
           d="m 123.901,179.84738 c 2.55998,1e-5 4.46398,-0.89599 5.712,-2.688 1.27998,-1.79199 1.91998,-4.23999 1.92,-7.344 -2e-5,-3.10398 -0.64002,-5.55198 -1.92,-7.344 -1.24802,-1.79197 -3.15202,-2.68797 -5.712,-2.688 -2.56001,3e-5 -4.48001,0.89603 -5.76,2.688 -1.24801,1.79202 -1.87201,4.24002 -1.872,7.344 -1e-5,3.10401 0.62399,5.55201 1.872,7.344 1.27999,1.79201 3.19999,2.68801 5.76,2.688 m 0,2.784 c -1.82401,0 -3.42401,-0.32 -4.8,-0.96 -1.37601,-0.672 -2.52801,-1.58399 -3.456,-2.736 -0.896,-1.15199 -1.568,-2.51199 -2.016,-4.08 -0.448,-1.56799 -0.672,-3.24799 -0.672,-5.04 0,-1.79198 0.224,-3.47198 0.672,-5.04 0.448,-1.56798 1.12,-2.92798 2.016,-4.08 0.92799,-1.15197 2.07999,-2.04797 3.456,-2.688 1.37599,-0.67197 2.97599,-1.00797 4.8,-1.008 1.82398,3e-5 3.40798,0.33603 4.752,1.008 1.37598,0.64003 2.51198,1.53603 3.408,2.688 0.92798,1.15202 1.61598,2.51202 2.064,4.08 0.47998,1.56802 0.71998,3.24802 0.72,5.04 -2e-5,1.79201 -0.24002,3.47201 -0.72,5.04 -0.44802,1.56801 -1.13602,2.92801 -2.064,4.08 -0.89602,1.15201 -2.03202,2.064 -3.408,2.736 -1.34402,0.64 -2.92802,0.96 -4.752,0.96"
           inkscape:connector-curvature="0" />
      </g>
      <g
         transform="matrix(1.44,0,0,1.44,12.068193,-369.72407)"
         id="text3848"
         style="font-style:normal;font-variant:normal;font-weight:500;font-stretch:normal;font-size:40px;line-height:125%;font-family:'Tlwg Typist';-inkscape-font-specification:'Tlwg Typist Medium';letter-spacing:0px;word-spacing:0px;fill:#ffffff;fill-opacity:1;stroke:none">
        <path
           id="path3909"
           style="font-weight:bold;font-size:48px;font-family:Aller;-inkscape-font-specification:'Aller Bold';fill:#ffffff"
           d="m 157.62437,863.05409 c 0.54399,-0.096 1.10399,-0.15996 1.68,-0.192 0.57599,-0.032 1.13599,-0.048 1.68,-0.048 0.54399,4e-5 1.10399,0.016 1.68,0.048 0.57599,0.032 1.15199,0.096 1.728,0.192 l 0,13.2 c 0.22399,-0.28798 0.51199,-0.62398 0.864,-1.008 0.38399,-0.41598 0.84799,-0.79998 1.392,-1.152 0.54398,-0.38398 1.19998,-0.70398 1.968,-0.96 0.76798,-0.25597 1.64798,-0.38397 2.64,-0.384 2.75198,3e-5 4.83198,0.76802 6.24,2.304 1.43997,1.53602 2.15997,3.95202 2.16,7.248 l 0,15.888 c -0.57603,0.096 -1.15203,0.16 -1.728,0.192 -0.57603,0.032 -1.13603,0.048 -1.68,0.048 -0.54402,0 -1.10402,-0.016 -1.68,-0.048 -0.57602,-0.032 -1.15202,-0.096 -1.728,-0.192 l 0,-14.064 c -2e-5,-1.72798 -0.27202,-3.05598 -0.816,-3.984 -0.54402,-0.92798 -1.47202,-1.39198 -2.784,-1.392 -0.54402,2e-5 -1.10402,0.08 -1.68,0.24 -0.57602,0.16002 -1.10402,0.48002 -1.584,0.96 -0.44801,0.44802 -0.83201,1.08802 -1.152,1.92 -0.28801,0.83202 -0.43201,1.92001 -0.432,3.264 l 0,13.056 c -0.57601,0.096 -1.15201,0.16 -1.728,0.192 -0.57601,0.032 -1.13601,0.048 -1.68,0.048 -0.54401,0 -1.10401,-0.016 -1.68,-0.048 -0.54401,-0.032 -1.10401,-0.096 -1.68,-0.192 l 0,-35.136"
           inkscape:connector-curvature="0" />
        <path
           id="path3911"
           style="font-weight:bold;font-size:48px;font-family:Aller;-inkscape-font-specification:'Aller Bold';fill:#ffffff"
           d="m 198.22937,886.76609 c -0.38402,-0.064 -0.80002,-0.11199 -1.248,-0.144 -0.44802,-0.064 -0.84802,-0.096 -1.2,-0.096 -1.56801,1e-5 -2.81601,0.28801 -3.744,0.864 -0.89601,0.54401 -1.34401,1.44001 -1.344,2.688 -10e-6,0.83201 0.17599,1.47201 0.528,1.92 0.35199,0.44801 0.76799,0.78401 1.248,1.008 0.51199,0.192 1.03999,0.32 1.584,0.384 0.57598,0.032 1.07198,0.048 1.488,0.048 0.47998,0 0.95998,-0.032 1.44,-0.096 0.47998,-0.096 0.89598,-0.176 1.248,-0.24 l 0,-6.336 m 0,-4.944 c -2e-5,-0.76798 -0.12802,-1.39198 -0.384,-1.872 -0.25602,-0.47998 -0.60802,-0.84798 -1.056,-1.104 -0.44802,-0.28798 -1.00802,-0.47998 -1.68,-0.576 -0.64002,-0.096 -1.36001,-0.14398 -2.16,-0.144 -1.72801,2e-5 -3.56801,0.33602 -5.52,1.008 -0.44801,-0.83198 -0.78401,-1.61598 -1.008,-2.352 -0.22401,-0.73598 -0.33601,-1.61598 -0.336,-2.64 1.40799,-0.47998 2.81599,-0.83198 4.224,-1.056 1.40799,-0.22397 2.71999,-0.33597 3.936,-0.336 3.32798,3e-5 5.91998,0.80002 7.776,2.4 1.88798,1.60002 2.83197,4.16002 2.832,7.68 l 0,14.4 c -1.12002,0.352 -2.48002,0.688 -4.08,1.008 -1.60002,0.32 -3.40802,0.48 -5.424,0.48 -1.63201,0 -3.13601,-0.144 -4.512,-0.432 -1.34401,-0.288 -2.51201,-0.768 -3.504,-1.44 -0.96001,-0.672 -1.71201,-1.536 -2.256,-2.592 -0.51201,-1.056 -0.76801,-2.35199 -0.768,-3.888 -1e-5,-1.53599 0.31999,-2.81599 0.96,-3.84 0.67199,-1.05599 1.51999,-1.88799 2.544,-2.496 1.05599,-0.63999 2.22399,-1.08798 3.504,-1.344 1.27999,-0.28798 2.55999,-0.43198 3.84,-0.432 0.92798,2e-5 1.95198,0.048 3.072,0.144 l 0,-0.576"
           inkscape:connector-curvature="0" />
        <path
           id="path3913"
           style="font-weight:bold;font-size:48px;font-family:Aller;-inkscape-font-specification:'Aller Bold';fill:#ffffff"
           d="m 207.2767,873.37409 c 0.768,-0.15998 1.472,-0.25598 2.112,-0.288 0.67199,-0.032 1.24799,-0.048 1.728,-0.048 0.63999,2e-5 1.27999,0.016 1.92,0.048 0.63999,0.032 1.23199,0.11202 1.776,0.24 l 5.424,18.48 5.328,-18.48 c 0.54398,-0.096 1.11998,-0.15998 1.728,-0.192 0.60798,-0.064 1.21598,-0.096 1.824,-0.096 0.47997,2e-5 1.02397,0.016 1.632,0.048 0.63997,0.032 1.35997,0.12802 2.16,0.288 l -9.408,24.768 c -0.60802,0.096 -1.24802,0.16 -1.92,0.192 -0.67202,0.032 -1.23202,0.048 -1.68,0.048 -0.48001,0 -1.02401,-0.016 -1.632,-0.048 -0.60801,-0.032 -1.18401,-0.112 -1.728,-0.24 l -9.264,-24.72"
           inkscape:connector-curvature="0" />
        <path
           id="path3915"
           style="font-weight:bold;font-size:48px;font-family:Aller;-inkscape-font-specification:'Aller Bold';fill:#ffffff"
           d="m 241.01702,887.82209 c 0.12799,1.92001 0.79999,3.31201 2.016,4.176 1.21598,0.86401 2.81598,1.296 4.8,1.296 1.08798,0 2.19198,-0.096 3.312,-0.288 1.15198,-0.22399 2.23998,-0.52799 3.264,-0.912 0.35197,0.64001 0.65597,1.408 0.912,2.304 0.25597,0.896 0.39997,1.856 0.432,2.88 -2.49602,0.96 -5.31202,1.44 -8.448,1.44 -2.30402,0 -4.28801,-0.32 -5.952,-0.96 -1.63201,-0.64 -2.97601,-1.52 -4.032,-2.64 -1.02401,-1.152 -1.79201,-2.51199 -2.304,-4.08 -0.48001,-1.56799 -0.72001,-3.27999 -0.72,-5.136 -1e-5,-1.82399 0.25599,-3.53598 0.768,-5.136 0.51199,-1.59998 1.26399,-2.99198 2.256,-4.176 1.02399,-1.18398 2.27199,-2.11198 3.744,-2.784 1.50399,-0.70398 3.24798,-1.05597 5.232,-1.056 1.72798,3e-5 3.26398,0.30402 4.608,0.912 1.34398,0.60802 2.47998,1.44002 3.408,2.496 0.95997,1.05602 1.67997,2.32002 2.16,3.792 0.47997,1.44002 0.71997,2.99202 0.72,4.656 -3e-5,0.60801 -0.032,1.21601 -0.096,1.824 -0.032,0.57601 -0.08,1.04001 -0.144,1.392 l -15.936,0 m 9.744,-4.752 c -0.064,-1.53598 -0.49602,-2.76798 -1.296,-3.696 -0.76802,-0.95998 -1.85602,-1.43998 -3.264,-1.44 -1.60002,2e-5 -2.81601,0.44802 -3.648,1.344 -0.83201,0.89602 -1.32801,2.16002 -1.488,3.792 l 9.696,0"
           inkscape:connector-curvature="0" />
        <path
           id="path3917"
           style="font-weight:bold;font-size:48px;font-family:Aller;-inkscape-font-specification:'Aller Bold';fill:#ffffff"
           d="m 262.59302,873.32609 c 0.44799,-0.096 0.89599,-0.15998 1.344,-0.192 0.44799,-0.064 0.94399,-0.096 1.488,-0.096 0.54399,2e-5 1.02399,0.032 1.44,0.096 0.41599,0.032 0.84799,0.096 1.296,0.192 0.096,0.16002 0.17599,0.40002 0.24,0.72 0.096,0.28802 0.17599,0.60802 0.24,0.96 0.064,0.32002 0.11199,0.64002 0.144,0.96 0.064,0.32002 0.11199,0.59202 0.144,0.816 0.31999,-0.47998 0.70399,-0.95998 1.152,-1.44 0.44799,-0.47998 0.95999,-0.91198 1.536,-1.296 0.60798,-0.38398 1.27998,-0.68798 2.016,-0.912 0.73598,-0.25597 1.55198,-0.38397 2.448,-0.384 2.81598,3e-5 4.92798,0.76802 6.336,2.304 1.43997,1.53602 2.15997,3.95202 2.16,7.248 l 0,15.84 c -1.15203,0.192 -2.28803,0.288 -3.408,0.288 -1.12002,0 -2.25602,-0.096 -3.408,-0.288 l 0,-14.016 c -2e-5,-1.72798 -0.27202,-3.05598 -0.816,-3.984 -0.51202,-0.92798 -1.42402,-1.39198 -2.736,-1.392 -0.54402,2e-5 -1.10402,0.08 -1.68,0.24 -0.57602,0.16002 -1.10402,0.48002 -1.584,0.96 -0.44801,0.44802 -0.81601,1.08802 -1.104,1.92 -0.28801,0.83202 -0.43201,1.92001 -0.432,3.264 l 0,13.008 c -1.15201,0.192 -2.28801,0.288 -3.408,0.288 -1.12001,0 -2.25601,-0.096 -3.408,-0.288 l 0,-24.816"
           inkscape:connector-curvature="0" />
      </g>
    </g>
  </g>
</svg>
