<?xml version="1.0" encoding="UTF-8" standalone="no"?>
<!-- Created with Inkscape (http://www.inkscape.org/) -->

<svg
   xmlns:dc="http://purl.org/dc/elements/1.1/"
   xmlns:cc="http://creativecommons.org/ns#"
   xmlns:rdf="http://www.w3.org/1999/02/22-rdf-syntax-ns#"
   xmlns:svg="http://www.w3.org/2000/svg"
   xmlns="http://www.w3.org/2000/svg"
   xmlns:sodipodi="http://sodipodi.sourceforge.net/DTD/sodipodi-0.dtd"
   xmlns:inkscape="http://www.inkscape.org/namespaces/inkscape"
   width="744.09448819"
   height="1052.3622047"
   id="svg2"
   version="1.1"
   inkscape:version="0.48.4 r9939"
   sodipodi:docname="tshirt.svg">
  <defs
     id="defs4" />
  <sodipodi:namedview
     id="base"
     pagecolor="#ffffff"
     bordercolor="#666666"
     borderopacity="1.0"
     inkscape:pageopacity="0.0"
     inkscape:pageshadow="2"
     inkscape:zoom="0.7"
     inkscape:cx="63.156147"
     inkscape:cy="528.86591"
     inkscape:document-units="px"
     inkscape:current-layer="layer1"
     showgrid="false"
     inkscape:window-width="1600"
     inkscape:window-height="876"
     inkscape:window-x="0"
     inkscape:window-y="24"
     inkscape:window-maximized="1" />
  <metadata
     id="metadata7">
    <rdf:RDF>
      <cc:Work
         rdf:about="">
        <dc:format>image/svg+xml</dc:format>
        <dc:type
           rdf:resource="http://purl.org/dc/dcmitype/StillImage" />
        <dc:title />
      </cc:Work>
    </rdf:RDF>
  </metadata>
  <g
     inkscape:label="orange background"
     inkscape:groupmode="layer"
     id="layer1">
    <rect
       style="fill:#ff7b1a;fill-opacity:1;stroke:none"
       id="rect2985"
       width="730"
       height="1034.2858"
       x="5.2958665"
       y="9.0866203" />
  </g>
  <g
     inkscape:groupmode="layer"
     id="layer2"
     inkscape:label="text">
    <path
       inkscape:connector-curvature="0"
       id="path3811"
       style="font-size:40px;font-style:normal;font-variant:normal;font-weight:normal;font-stretch:normal;line-height:125%;letter-spacing:0px;word-spacing:0px;fill:#ffffff;fill-opacity:1;stroke:none;font-family:Open Sans;-inkscape-font-specification:Open Sans"
       d="m 205.71221,282.25751 0,-13.84766 c -2e-5,-1.74478 -0.39716,-3.04686 -1.19141,-3.90625 -0.79429,-0.85936 -2.03777,-1.28904 -3.73047,-1.28906 -2.23959,2e-5 -3.88021,0.60548 -4.92187,1.8164 -1.04168,1.21096 -1.56251,3.20965 -1.5625,5.9961 l 0,11.23047 -3.24219,0 0,-21.40625 2.63672,0 0.52734,2.92968 0.15625,0 c 0.66406,-1.05466 1.59505,-1.86847 2.79297,-2.4414 1.19791,-0.58592 2.53254,-0.87889 4.00391,-0.87891 2.57811,2e-5 4.51821,0.62502 5.82031,1.875 1.30206,1.237 1.9531,3.22267 1.95312,5.95703 l 0,13.96485 -3.24218,0" />
    <path
       inkscape:connector-curvature="0"
       id="path3813"
       style="font-size:40px;font-style:normal;font-variant:normal;font-weight:normal;font-stretch:normal;line-height:125%;letter-spacing:0px;word-spacing:0px;fill:#ffffff;fill-opacity:1;stroke:none;font-family:Open Sans;-inkscape-font-specification:Open Sans"
       d="m 224.63799,282.64813 c -3.16407,0 -5.66407,-0.96354 -7.5,-2.89062 -1.82292,-1.92708 -2.73438,-4.60286 -2.73438,-8.02735 0,-3.4505 0.84635,-6.19139 2.53907,-8.22265 1.70572,-2.03123 3.99087,-3.04686 6.85546,-3.04688 2.68228,2e-5 4.80468,0.88544 6.36719,2.65625 1.56248,1.75783 2.34373,4.08205 2.34375,6.97266 l 0,2.05078 -14.74609,0 c 0.0651,2.51303 0.69661,4.42058 1.89453,5.72266 1.21093,1.30208 2.91015,1.95312 5.09766,1.95312 2.30467,0 4.58331,-0.48177 6.83593,-1.44531 l 0,2.89062 c -1.14585,0.49479 -2.23309,0.84636 -3.26171,1.05469 -1.01564,0.22135 -2.24611,0.33203 -3.69141,0.33203 m -0.87891,-19.47265 c -1.71876,1e-5 -3.09245,0.55991 -4.12109,1.67968 -1.01563,1.11981 -1.61459,2.66929 -1.79688,4.64844 l 11.19141,0 c -2e-5,-2.04426 -0.45575,-3.60675 -1.36719,-4.6875 -0.91147,-1.09373 -2.21355,-1.64061 -3.90625,-1.64062" />
    <path
       inkscape:connector-curvature="0"
       id="path3815"
       style="font-size:40px;font-style:normal;font-variant:normal;font-weight:normal;font-stretch:normal;line-height:125%;letter-spacing:0px;word-spacing:0px;fill:#ffffff;fill-opacity:1;stroke:none;font-family:Open Sans;-inkscape-font-specification:Open Sans"
       d="m 255.49736,282.25751 -3.92578,-12.5586 c -0.24741,-0.76821 -0.70965,-2.513 -1.38672,-5.23437 l -0.15625,0 c -0.52084,2.27866 -0.97657,4.03647 -1.36718,5.27344 l -4.04297,12.51953 -3.75,0 -5.83985,-21.40625 3.39844,0 c 1.3802,5.37762 2.42838,9.47266 3.14453,12.28515 0.72916,2.81251 1.14583,4.70704 1.25,5.6836 l 0.15625,0 c 0.14322,-0.74219 0.37109,-1.69922 0.6836,-2.8711 0.32551,-1.18489 0.60546,-2.12238 0.83984,-2.8125 l 3.92578,-12.28515 3.51563,0 3.82812,12.28515 c 0.72915,2.23959 1.22394,4.1211 1.48438,5.64453 l 0.15625,0 c 0.0521,-0.46874 0.18878,-1.1914 0.41015,-2.16796 0.23435,-0.97656 1.59503,-6.23046 4.08203,-15.76172 l 3.35938,0 -5.91797,21.40625 -3.84766,0" />
    <path
       inkscape:connector-curvature="0"
       id="path3817"
       style="font-size:40px;font-style:normal;font-variant:normal;font-weight:bold;font-stretch:normal;line-height:125%;letter-spacing:0px;word-spacing:0px;fill:#ffffff;fill-opacity:1;stroke:none;font-family:Open Sans;-inkscape-font-specification:Open Sans"
       d="m 288.95439,282.25751 -5.95703,0 0,-12.75391 c -1e-5,-3.15103 -1.17189,-4.72654 -3.51562,-4.72656 -1.66668,2e-5 -2.87111,0.56642 -3.61328,1.69922 -0.7422,1.13282 -1.11329,2.96876 -1.11328,5.50781 l 0,10.27344 -5.95704,0 0,-30.39063 5.95704,0 0,6.19141 c -10e-6,0.48179 -0.0456,1.6146 -0.13672,3.39844 l -0.13672,1.75781 0.3125,0 c 1.32811,-2.1354 3.43749,-3.20311 6.32812,-3.20313 2.56509,2e-5 4.5117,0.69013 5.83985,2.07032 1.3281,1.38022 1.99216,3.35939 1.99218,5.9375 l 0,14.23828" />
    <path
       inkscape:connector-curvature="0"
       id="path3819"
       style="font-size:40px;font-style:normal;font-variant:normal;font-weight:bold;font-stretch:normal;line-height:125%;letter-spacing:0px;word-spacing:0px;fill:#ffffff;fill-opacity:1;stroke:none;font-family:Open Sans;-inkscape-font-specification:Open Sans"
       d="m 308.99346,282.25751 -1.15235,-2.96875 -0.15625,0 c -1.00262,1.26302 -2.03777,2.14192 -3.10547,2.63672 -1.05469,0.48177 -2.4349,0.72265 -4.14062,0.72265 -2.09636,0 -3.75,-0.59896 -4.96094,-1.79687 -1.19792,-1.19792 -1.79687,-2.90365 -1.79687,-5.11719 0,-2.3177 0.80729,-4.02343 2.42187,-5.11719 1.6276,-1.10676 4.07552,-1.71874 7.34375,-1.83594 l 3.78906,-0.11718 0,-0.95703 c -10e-6,-2.21353 -1.13282,-3.3203 -3.39843,-3.32032 -1.7448,2e-5 -3.79558,0.52736 -6.15235,1.58203 l -1.97265,-4.02343 c 2.51301,-1.31509 5.29947,-1.97264 8.35937,-1.97266 2.92967,2e-5 5.17577,0.63804 6.73828,1.91406 1.56248,1.27606 2.34373,3.21617 2.34375,5.82032 l 0,14.55078 -4.16015,0 m -1.75782,-10.11719 -2.30468,0.0781 c -1.73178,0.0521 -3.02085,0.3646 -3.86719,0.9375 -0.84636,0.57293 -1.26954,1.44532 -1.26953,2.61719 -10e-6,1.67969 0.96353,2.51954 2.89062,2.51953 1.3802,10e-6 2.48046,-0.39713 3.30078,-1.1914 0.83332,-0.79427 1.24999,-1.84895 1.25,-3.16407 l 0,-1.79687" />
    <path
       inkscape:connector-curvature="0"
       id="path3821"
       style="font-size:40px;font-style:normal;font-variant:normal;font-weight:bold;font-stretch:normal;line-height:125%;letter-spacing:0px;word-spacing:0px;fill:#ffffff;fill-opacity:1;stroke:none;font-family:Open Sans;-inkscape-font-specification:Open Sans"
       d="m 324.46221,282.25751 -8.32032,-21.83594 6.23047,0 4.21875,12.44141 c 0.46874,1.57552 0.76171,3.06641 0.87891,4.47265 l 0.11719,0 c 0.0651,-1.24999 0.35806,-2.74088 0.8789,-4.47265 l 4.19922,-12.44141 6.23047,0 -8.32031,21.83594 -6.11328,0" />
    <path
       inkscape:connector-curvature="0"
       id="path3823"
       style="font-size:40px;font-style:normal;font-variant:normal;font-weight:bold;font-stretch:normal;line-height:125%;letter-spacing:0px;word-spacing:0px;fill:#ffffff;fill-opacity:1;stroke:none;font-family:Open Sans;-inkscape-font-specification:Open Sans"
       d="m 351.04424,264.24969 c -1.26303,2e-5 -2.25262,0.40367 -2.96875,1.21094 -0.71616,0.79429 -1.12631,1.9271 -1.23047,3.39844 l 8.35937,0 c -0.0261,-1.47134 -0.41017,-2.60415 -1.15234,-3.39844 -0.7422,-0.80727 -1.7448,-1.21092 -3.00781,-1.21094 m 0.83984,18.39844 c -3.51563,0 -6.26303,-0.97005 -8.24219,-2.91015 -1.97916,-1.9401 -2.96875,-4.6875 -2.96875,-8.24219 0,-3.65884 0.91146,-6.48436 2.73438,-8.47656 1.83593,-2.00519 4.36848,-3.0078 7.59766,-3.00782 3.08592,2e-5 5.48826,0.87893 7.20703,2.63672 1.71873,1.75783 2.5781,4.18621 2.57812,7.28516 l 0,2.89062 -14.08203,0 c 0.0651,1.69272 0.5664,3.01433 1.50391,3.96485 0.93749,0.95052 2.25259,1.42578 3.94531,1.42578 1.31509,0 2.55858,-0.13672 3.73047,-0.41016 1.17186,-0.27343 2.39581,-0.70963 3.67187,-1.30859 l 0,4.60937 c -1.04168,0.52084 -2.15496,0.90495 -3.33984,1.15235 -1.18491,0.26041 -2.63022,0.39062 -4.33594,0.39062" />
    <path
       inkscape:connector-curvature="0"
       id="path3825"
       style="font-size:40px;font-style:normal;font-variant:normal;font-weight:bold;font-stretch:normal;line-height:125%;letter-spacing:0px;word-spacing:0px;fill:#ffffff;fill-opacity:1;stroke:none;font-family:Open Sans;-inkscape-font-specification:Open Sans"
       d="m 385.82939,282.25751 -5.95703,0 0,-12.75391 c -1e-5,-1.57551 -0.27996,-2.75389 -0.83984,-3.53516 -0.55991,-0.79425 -1.45184,-1.19138 -2.67578,-1.1914 -1.66668,2e-5 -2.87111,0.55991 -3.61328,1.67969 -0.7422,1.10678 -1.11329,2.94923 -1.11328,5.52734 l 0,10.27344 -5.95704,0 0,-21.83594 4.55079,0 0.80078,2.79297 0.33203,0 c 0.66405,-1.05467 1.57551,-1.84894 2.73437,-2.38281 1.17187,-0.54686 2.49999,-0.8203 3.98438,-0.82032 2.53904,2e-5 4.46612,0.69013 5.78125,2.07032 1.31508,1.3672 1.97263,3.34637 1.97265,5.9375 l 0,14.23828" />
    <path
       inkscape:connector-curvature="0"
       id="path3846"
       style="font-size:40px;font-style:normal;font-variant:normal;font-weight:normal;font-stretch:normal;line-height:125%;letter-spacing:0px;word-spacing:0px;fill:#ffffff;fill-opacity:1;stroke:none;font-family:Open Sans;-inkscape-font-specification:Open Sans"
       d="m 391.88839,280.58385 c 0,-0.87239 0.19531,-1.52994 0.58594,-1.97265 0.40364,-0.45573 0.97656,-0.68359 1.71875,-0.6836 0.7552,1e-5 1.34114,0.22787 1.75781,0.6836 0.42968,0.44271 0.64452,1.10026 0.64453,1.97265 -10e-6,0.84636 -0.21485,1.4974 -0.64453,1.95313 -0.42969,0.45573 -1.01563,0.68359 -1.75781,0.68359 -0.66407,0 -1.21745,-0.20182 -1.66016,-0.60547 -0.42969,-0.41666 -0.64453,-1.09374 -0.64453,-2.03125" />
    <path
       inkscape:connector-curvature="0"
       id="path3848"
       style="font-size:40px;font-style:normal;font-variant:normal;font-weight:normal;font-stretch:normal;line-height:125%;letter-spacing:0px;word-spacing:0px;fill:#ffffff;fill-opacity:1;stroke:none;font-family:Open Sans;-inkscape-font-specification:Open Sans"
       d="m 406.22433,282.65417 -3.24219,0 0,-21.40625 3.24219,0 0,21.40625 m -3.51563,-27.20703 c 0,-0.74216 0.18229,-1.28253 0.54688,-1.6211 0.36458,-0.35153 0.82031,-0.52731 1.36718,-0.52734 0.52083,3e-5 0.97005,0.17581 1.34766,0.52734 0.3776,0.35159 0.5664,0.89196 0.56641,1.6211 -1e-5,0.72919 -0.18881,1.27606 -0.56641,1.64062 -0.37761,0.35159 -0.82683,0.52737 -1.34766,0.52734 -0.54687,3e-5 -1.0026,-0.17575 -1.36718,-0.52734 -0.36459,-0.36456 -0.54688,-0.91143 -0.54688,-1.64062" />
    <path
       inkscape:connector-curvature="0"
       id="path3850"
       style="font-size:40px;font-style:normal;font-variant:normal;font-weight:normal;font-stretch:normal;line-height:125%;letter-spacing:0px;word-spacing:0px;fill:#ffffff;fill-opacity:1;stroke:none;font-family:Open Sans;-inkscape-font-specification:Open Sans"
       d="m 431.61495,271.93151 c -2e-5,3.48959 -0.87892,6.21745 -2.63672,8.18359 -1.75783,1.95313 -4.18621,2.92969 -7.28515,2.92969 -1.91408,0 -3.61329,-0.44922 -5.09766,-1.34765 -1.48438,-0.89844 -2.63021,-2.1875 -3.4375,-3.86719 -0.80729,-1.67968 -1.21094,-3.64583 -1.21094,-5.89844 0,-3.48957 0.8724,-6.20441 2.61719,-8.14453 1.74479,-1.95311 4.16666,-2.92967 7.26563,-2.92969 2.99477,2e-5 5.37107,0.99612 7.1289,2.98828 1.77081,1.99221 2.65623,4.68752 2.65625,8.08594 m -16.30859,0 c -10e-6,2.73438 0.54687,4.81771 1.64062,6.25 1.09375,1.43229 2.70182,2.14844 4.82422,2.14844 2.12238,0 3.73046,-0.70963 4.82422,-2.12891 1.10675,-1.43228 1.66014,-3.52213 1.66016,-6.26953 -2e-5,-2.72134 -0.55341,-4.78514 -1.66016,-6.19141 -1.09376,-1.41925 -2.71486,-2.12888 -4.86328,-2.1289 -2.12241,2e-5 -3.72397,0.69663 -4.80469,2.08984 -1.08073,1.39325 -1.6211,3.47007 -1.62109,6.23047" />
    <g
       id="g4059"
       style="fill:#000000;fill-opacity:1">
      <g
         id="g4029"
         style="fill:#000000;fill-opacity:1">
        <g
           id="g4004"
           style="fill:#000000;fill-opacity:1">
          <g
             id="g3983"
             style="fill:#000000;fill-opacity:1">
            <g
               id="g3968"
               style="fill:#000000;fill-opacity:1">
              <g
                 id="g3957"
                 style="fill:#000000;fill-opacity:1">
                <path
                   inkscape:connector-curvature="0"
                   id="path3828"
                   style="font-size:40px;font-style:normal;font-variant:normal;font-weight:normal;font-stretch:normal;line-height:125%;letter-spacing:0px;word-spacing:0px;fill:#000000;fill-opacity:1;stroke:none;font-family:Open Sans;-inkscape-font-specification:Open Sans"
                   d="m 391.88839,180.58385 c 0,-0.87239 0.19531,-1.52994 0.58594,-1.97265 0.40364,-0.45573 0.97656,-0.68359 1.71875,-0.6836 0.7552,10e-6 1.34114,0.22787 1.75781,0.6836 0.42968,0.44271 0.64452,1.10026 0.64453,1.97265 -10e-6,0.84636 -0.21485,1.4974 -0.64453,1.95313 -0.42969,0.45573 -1.01563,0.68359 -1.75781,0.68359 -0.66407,0 -1.21745,-0.20182 -1.66016,-0.60547 -0.42969,-0.41666 -0.64453,-1.09374 -0.64453,-2.03125" />
                <path
                   inkscape:connector-curvature="0"
                   id="path3830"
                   style="font-size:40px;font-style:normal;font-variant:normal;font-weight:normal;font-stretch:normal;line-height:125%;letter-spacing:0px;word-spacing:0px;fill:#000000;fill-opacity:1;stroke:none;font-family:Open Sans;-inkscape-font-specification:Open Sans"
                   d="m 411.53683,183.04479 c -3.09897,0 -5.50131,-0.95052 -7.20703,-2.85156 -1.69272,-1.91406 -2.53907,-4.61588 -2.53907,-8.10547 0,-3.58071 0.85938,-6.34764 2.57813,-8.30078 1.73176,-1.95311 4.1927,-2.92967 7.38281,-2.92969 1.02863,2e-5 2.05728,0.1107 3.08594,0.33203 1.02863,0.22138 1.83592,0.48179 2.42187,0.78125 l -0.99609,2.75391 c -0.71616,-0.28644 -1.49741,-0.52082 -2.34375,-0.70313 -0.84637,-0.19529 -1.59506,-0.29295 -2.24609,-0.29296 -4.34897,1e-5 -6.52345,2.77345 -6.52344,8.32031 -10e-6,2.63021 0.52734,4.64844 1.58203,6.05469 1.0677,1.40625 2.64322,2.10937 4.72656,2.10937 1.78384,0 3.61327,-0.38411 5.48828,-1.15234 l 0,2.87109 c -1.4323,0.74219 -3.23569,1.11328 -5.41015,1.11328" />
                <path
                   inkscape:connector-curvature="0"
                   id="path3832"
                   style="font-size:40px;font-style:normal;font-variant:normal;font-weight:normal;font-stretch:normal;line-height:125%;letter-spacing:0px;word-spacing:0px;fill:#000000;fill-opacity:1;stroke:none;font-family:Open Sans;-inkscape-font-specification:Open Sans"
                   d="m 435.85323,176.81432 c -10e-6,1.99219 -0.7422,3.52865 -2.22656,4.60938 -1.48439,1.08073 -3.56772,1.62109 -6.25,1.62109 -2.83855,0 -5.05209,-0.44922 -6.64062,-1.34765 l 0,-3.00782 c 1.02864,0.52084 2.1289,0.931 3.30078,1.23047 1.18489,0.29948 2.32421,0.44922 3.41797,0.44922 1.69269,0 2.99478,-0.26692 3.90625,-0.80078 0.91144,-0.54687 1.36717,-1.37369 1.36718,-2.48047 -10e-6,-0.83333 -0.36459,-1.54296 -1.09375,-2.12891 -0.71615,-0.59895 -2.1224,-1.30207 -4.21875,-2.10937 -1.99219,-0.74218 -3.41146,-1.38671 -4.25781,-1.93359 -0.83334,-0.55989 -1.45834,-1.1914 -1.875,-1.89454 -0.40365,-0.70311 -0.60547,-1.54295 -0.60547,-2.51953 0,-1.74477 0.70964,-3.11847 2.12891,-4.12109 1.41926,-1.0156 3.36588,-1.52342 5.83984,-1.52344 2.30468,2e-5 4.55728,0.46877 6.75781,1.40625 l -1.15234,2.63672 c -2.14845,-0.8854 -4.09506,-1.32811 -5.83984,-1.32812 -1.53647,1e-5 -2.69532,0.2409 -3.47657,0.72265 -0.78125,0.48179 -1.17188,1.14585 -1.17187,1.99219 -1e-5,0.57293 0.14322,1.06121 0.42969,1.46484 0.29947,0.40366 0.77473,0.78778 1.42578,1.15235 0.65103,0.36459 1.90103,0.89194 3.75,1.58203 2.53905,0.92449 4.25129,1.85548 5.13672,2.79297 0.89842,0.9375 1.34764,2.11589 1.34765,3.53515" />
                <path
                   inkscape:connector-curvature="0"
                   id="path3834"
                   style="font-size:40px;font-style:normal;font-variant:normal;font-weight:normal;font-stretch:normal;line-height:125%;letter-spacing:0px;word-spacing:0px;fill:#000000;fill-opacity:1;stroke:none;font-family:Open Sans;-inkscape-font-specification:Open Sans"
                   d="m 454.91573,176.81432 c -10e-6,1.99219 -0.7422,3.52865 -2.22656,4.60938 -1.48439,1.08073 -3.56772,1.62109 -6.25,1.62109 -2.83855,0 -5.05209,-0.44922 -6.64062,-1.34765 l 0,-3.00782 c 1.02864,0.52084 2.1289,0.931 3.30078,1.23047 1.18489,0.29948 2.32421,0.44922 3.41797,0.44922 1.69269,0 2.99478,-0.26692 3.90625,-0.80078 0.91144,-0.54687 1.36717,-1.37369 1.36718,-2.48047 -10e-6,-0.83333 -0.36459,-1.54296 -1.09375,-2.12891 -0.71615,-0.59895 -2.1224,-1.30207 -4.21875,-2.10937 -1.99219,-0.74218 -3.41146,-1.38671 -4.25781,-1.93359 -0.83334,-0.55989 -1.45834,-1.1914 -1.875,-1.89454 -0.40365,-0.70311 -0.60547,-1.54295 -0.60547,-2.51953 0,-1.74477 0.70964,-3.11847 2.12891,-4.12109 1.41926,-1.0156 3.36588,-1.52342 5.83984,-1.52344 2.30468,2e-5 4.55728,0.46877 6.75781,1.40625 l -1.15234,2.63672 c -2.14845,-0.8854 -4.09506,-1.32811 -5.83984,-1.32812 -1.53647,1e-5 -2.69532,0.2409 -3.47657,0.72265 -0.78125,0.48179 -1.17188,1.14585 -1.17187,1.99219 -1e-5,0.57293 0.14322,1.06121 0.42969,1.46484 0.29947,0.40366 0.77473,0.78778 1.42578,1.15235 0.65103,0.36459 1.90103,0.89194 3.75,1.58203 2.53905,0.92449 4.25129,1.85548 5.13672,2.79297 0.89842,0.9375 1.34764,2.11589 1.34765,3.53515" />
                <path
                   inkscape:connector-curvature="0"
                   id="path3836"
                   style="font-size:40px;font-style:normal;font-variant:normal;font-weight:normal;font-stretch:normal;line-height:125%;letter-spacing:0px;word-spacing:0px;fill:#000000;fill-opacity:1;stroke:none;font-family:Open Sans;-inkscape-font-specification:Open Sans"
                   d="m 391.88839,230.58385 c 0,-0.87239 0.19531,-1.52994 0.58594,-1.97265 0.40364,-0.45573 0.97656,-0.68359 1.71875,-0.6836 0.7552,10e-6 1.34114,0.22787 1.75781,0.6836 0.42968,0.44271 0.64452,1.10026 0.64453,1.97265 -10e-6,0.84636 -0.21485,1.4974 -0.64453,1.95313 -0.42969,0.45573 -1.01563,0.68359 -1.75781,0.68359 -0.66407,0 -1.21745,-0.20182 -1.66016,-0.60547 -0.42969,-0.41666 -0.64453,-1.09374 -0.64453,-2.03125" />
                <path
                   inkscape:connector-curvature="0"
                   id="path3838"
                   style="font-size:40px;font-style:normal;font-variant:normal;font-weight:normal;font-stretch:normal;line-height:125%;letter-spacing:0px;word-spacing:0px;fill:#000000;fill-opacity:1;stroke:none;font-family:Open Sans;-inkscape-font-specification:Open Sans"
                   d="m 417.63058,232.65417 0,-13.84766 c -2e-5,-1.74478 -0.39716,-3.04686 -1.19141,-3.90625 -0.79429,-0.85936 -2.03777,-1.28904 -3.73047,-1.28906 -2.25261,2e-5 -3.89975,0.612 -4.9414,1.83594 -1.02866,1.22397 -1.54298,3.22918 -1.54297,6.01562 l 0,11.19141 -3.24219,0 0,-30.39063 3.24219,0 0,9.19922 c -1e-5,1.10679 -0.0521,2.02476 -0.15625,2.75391 l 0.19531,0 c 0.63801,-1.02863 1.54296,-1.83592 2.71484,-2.42188 1.18489,-0.59894 2.53254,-0.89841 4.04297,-0.89844 2.61717,3e-5 4.57681,0.62503 5.87891,1.875 1.31508,1.237 1.97263,3.20966 1.97265,5.91797 l 0,13.96485 -3.24218,0" />
                <path
                   inkscape:connector-curvature="0"
                   id="path3840"
                   style="font-size:40px;font-style:normal;font-variant:normal;font-weight:normal;font-stretch:normal;line-height:125%;letter-spacing:0px;word-spacing:0px;fill:#000000;fill-opacity:1;stroke:none;font-family:Open Sans;-inkscape-font-specification:Open Sans"
                   d="m 434.42745,230.36901 c 0.57291,0 1.12629,-0.0391 1.66016,-0.11719 0.53384,-0.0911 0.95702,-0.18229 1.26953,-0.27343 l 0,2.48046 c -0.35158,0.16927 -0.87241,0.30599 -1.5625,0.41016 -0.67709,0.11719 -1.28907,0.17578 -1.83594,0.17578 -4.14063,0 -6.21094,-2.18099 -6.21094,-6.54297 l 0,-12.73437 -3.0664,0 0,-1.5625 3.0664,-1.34766 1.36719,-4.57031 1.875,0 0,4.96094 6.21094,0 0,2.51953 -6.21094,0 0,12.59765 c 0,1.28907 0.30598,2.27865 0.91797,2.96875 0.61197,0.69011 1.45181,1.03516 2.51953,1.03516" />
                <path
                   inkscape:connector-curvature="0"
                   id="path3842"
                   style="font-size:40px;font-style:normal;font-variant:normal;font-weight:normal;font-stretch:normal;line-height:125%;letter-spacing:0px;word-spacing:0px;fill:#000000;fill-opacity:1;stroke:none;font-family:Open Sans;-inkscape-font-specification:Open Sans"
                   d="m 468.93917,232.65417 0,-13.92578 c -3e-5,-1.70572 -0.36461,-2.98176 -1.09375,-3.82813 -0.72919,-0.85936 -1.86201,-1.28904 -3.39844,-1.28906 -2.01825,2e-5 -3.50913,0.57944 -4.47265,1.73828 -0.96356,1.15887 -1.44534,2.94272 -1.44532,5.35156 l 0,11.95313 -3.24218,0 0,-13.92578 c -2e-5,-1.70572 -0.3646,-2.98176 -1.09375,-3.82813 -0.72918,-0.85936 -1.86851,-1.28904 -3.41797,-1.28906 -2.03126,2e-5 -3.52215,0.612 -4.47266,1.83594 -0.9375,1.21095 -1.40625,3.20313 -1.40625,5.97656 l 0,11.23047 -3.24219,0 0,-21.40625 2.63672,0 0.52735,2.92968 0.15625,0 c 0.61197,-1.04164 1.47134,-1.85544 2.57812,-2.4414 1.11978,-0.58592 2.36978,-0.87889 3.75,-0.87891 3.34634,2e-5 5.53384,1.21096 6.5625,3.63281 l 0.15625,0 c 0.638,-1.11977 1.56248,-2.00518 2.77344,-2.65625 1.21091,-0.65102 2.59112,-0.97654 4.14062,-0.97656 2.42185,2e-5 4.23174,0.62502 5.42969,1.875 1.21091,1.237 1.81637,3.22267 1.81641,5.95703 l 0,13.96485 -3.24219,0" />
                <path
                   inkscape:connector-curvature="0"
                   id="path3844"
                   style="font-size:40px;font-style:normal;font-variant:normal;font-weight:normal;font-stretch:normal;line-height:125%;letter-spacing:0px;word-spacing:0px;fill:#000000;fill-opacity:1;stroke:none;font-family:Open Sans;-inkscape-font-specification:Open Sans"
                   d="m 482.0837,232.65417 -3.24219,0 0,-30.39063 3.24219,0 0,30.39063" />
              </g>
              <path
                 d="m 391.88839,330.58385 c 0,-0.87239 0.19531,-1.52994 0.58594,-1.97265 0.40364,-0.45573 0.97656,-0.68359 1.71875,-0.6836 0.7552,1e-5 1.34114,0.22787 1.75781,0.6836 0.42968,0.44271 0.64452,1.10026 0.64453,1.97265 -10e-6,0.84636 -0.21485,1.4974 -0.64453,1.95313 -0.42969,0.45573 -1.01563,0.68359 -1.75781,0.68359 -0.66407,0 -1.21745,-0.20182 -1.66016,-0.60547 -0.42969,-0.41666 -0.64453,-1.09374 -0.64453,-2.03125"
                 style="font-size:40px;font-style:normal;font-variant:normal;font-weight:normal;font-stretch:normal;line-height:125%;letter-spacing:0px;word-spacing:0px;fill:#000000;fill-opacity:1;stroke:none;font-family:Open Sans;-inkscape-font-specification:Open Sans"
                 id="path3852"
                 inkscape:connector-curvature="0" />
              <path
                 d="m 400.38448,342.26354 c -1.23698,-10e-6 -2.23958,-0.16277 -3.00781,-0.48828 l 0,-2.63672 c 0.89844,0.26041 1.78386,0.39062 2.65625,0.39063 1.01562,-1e-5 1.75781,-0.27996 2.22656,-0.83985 0.48177,-0.54688 0.72266,-1.38672 0.72266,-2.51953 l 0,-24.92187 3.24219,0 0,24.6875 c -1e-5,4.21874 -1.94662,6.32811 -5.83985,6.32812 m 2.32422,-36.8164 c 0,-0.74216 0.18229,-1.28253 0.54688,-1.6211 0.36458,-0.35153 0.82031,-0.52731 1.36718,-0.52734 0.52083,3e-5 0.97005,0.17581 1.34766,0.52734 0.3776,0.35159 0.5664,0.89196 0.56641,1.6211 -1e-5,0.72919 -0.18881,1.27606 -0.56641,1.64062 -0.37761,0.35159 -0.82683,0.52737 -1.34766,0.52734 -0.54687,3e-5 -1.0026,-0.17575 -1.36718,-0.52734 -0.36459,-0.36456 -0.54688,-0.91143 -0.54688,-1.64062"
                 style="font-size:40px;font-style:normal;font-variant:normal;font-weight:normal;font-stretch:normal;line-height:125%;letter-spacing:0px;word-spacing:0px;fill:#000000;fill-opacity:1;stroke:none;font-family:Open Sans;-inkscape-font-specification:Open Sans"
                 id="path3854"
                 inkscape:connector-curvature="0" />
              <path
                 d="m 426.94698,326.81432 c -10e-6,1.99219 -0.7422,3.52865 -2.22656,4.60938 -1.48439,1.08073 -3.56772,1.62109 -6.25,1.62109 -2.83855,0 -5.05209,-0.44922 -6.64062,-1.34765 l 0,-3.00782 c 1.02864,0.52084 2.1289,0.931 3.30078,1.23047 1.18489,0.29948 2.32421,0.44922 3.41797,0.44922 1.69269,0 2.99478,-0.26692 3.90625,-0.80078 0.91144,-0.54687 1.36717,-1.37369 1.36718,-2.48047 -10e-6,-0.83333 -0.36459,-1.54296 -1.09375,-2.12891 -0.71615,-0.59895 -2.1224,-1.30207 -4.21875,-2.10937 -1.99219,-0.74218 -3.41146,-1.38671 -4.25781,-1.93359 -0.83334,-0.55989 -1.45834,-1.1914 -1.875,-1.89454 -0.40365,-0.70311 -0.60547,-1.54295 -0.60547,-2.51953 0,-1.74477 0.70964,-3.11847 2.12891,-4.12109 1.41926,-1.0156 3.36588,-1.52342 5.83984,-1.52344 2.30468,2e-5 4.55728,0.46877 6.75781,1.40625 l -1.15234,2.63672 c -2.14845,-0.8854 -4.09506,-1.32811 -5.83984,-1.32812 -1.53647,1e-5 -2.69532,0.2409 -3.47657,0.72265 -0.78125,0.48179 -1.17188,1.14585 -1.17187,1.99219 -1e-5,0.57293 0.14322,1.06121 0.42969,1.46484 0.29947,0.40366 0.77473,0.78778 1.42578,1.15235 0.65103,0.36459 1.90103,0.89194 3.75,1.58203 2.53905,0.92449 4.25129,1.85548 5.13672,2.79297 0.89842,0.9375 1.34764,2.11589 1.34765,3.53515"
                 style="font-size:40px;font-style:normal;font-variant:normal;font-weight:normal;font-stretch:normal;line-height:125%;letter-spacing:0px;word-spacing:0px;fill:#000000;fill-opacity:1;stroke:none;font-family:Open Sans;-inkscape-font-specification:Open Sans"
                 id="path3856"
                 inkscape:connector-curvature="0" />
            </g>
            <path
               inkscape:connector-curvature="0"
               id="path3858"
               style="font-size:40px;font-style:normal;font-variant:normal;font-weight:normal;font-stretch:normal;line-height:125%;letter-spacing:0px;word-spacing:0px;fill:#000000;fill-opacity:1;stroke:none;font-family:Open Sans;-inkscape-font-specification:Open Sans"
               d="m 391.88839,380.58385 c 0,-0.87239 0.19531,-1.52994 0.58594,-1.97265 0.40364,-0.45573 0.97656,-0.68359 1.71875,-0.6836 0.7552,1e-5 1.34114,0.22787 1.75781,0.6836 0.42968,0.44271 0.64452,1.10026 0.64453,1.97265 -10e-6,0.84636 -0.21485,1.4974 -0.64453,1.95313 -0.42969,0.45573 -1.01563,0.68359 -1.75781,0.68359 -0.66407,0 -1.21745,-0.20182 -1.66016,-0.60547 -0.42969,-0.41666 -0.64453,-1.09374 -0.64453,-2.03125" />
            <path
               inkscape:connector-curvature="0"
               id="path3860"
               style="font-size:40px;font-style:normal;font-variant:normal;font-weight:normal;font-stretch:normal;line-height:125%;letter-spacing:0px;word-spacing:0px;fill:#000000;fill-opacity:1;stroke:none;font-family:Open Sans;-inkscape-font-specification:Open Sans"
               d="m 400.38448,392.26354 c -1.23698,-10e-6 -2.23958,-0.16277 -3.00781,-0.48828 l 0,-2.63672 c 0.89844,0.26041 1.78386,0.39062 2.65625,0.39063 1.01562,-1e-5 1.75781,-0.27996 2.22656,-0.83985 0.48177,-0.54688 0.72266,-1.38672 0.72266,-2.51953 l 0,-24.92187 3.24219,0 0,24.6875 c -1e-5,4.21874 -1.94662,6.32811 -5.83985,6.32812 m 2.32422,-36.8164 c 0,-0.74216 0.18229,-1.28253 0.54688,-1.6211 0.36458,-0.35153 0.82031,-0.52731 1.36718,-0.52734 0.52083,3e-5 0.97005,0.17581 1.34766,0.52734 0.3776,0.35159 0.5664,0.89196 0.56641,1.6211 -1e-5,0.72919 -0.18881,1.27606 -0.56641,1.64062 -0.37761,0.35159 -0.82683,0.52737 -1.34766,0.52734 -0.54687,3e-5 -1.0026,-0.17575 -1.36718,-0.52734 -0.36459,-0.36456 -0.54688,-0.91143 -0.54688,-1.64062" />
            <path
               inkscape:connector-curvature="0"
               id="path3862"
               style="font-size:40px;font-style:normal;font-variant:normal;font-weight:normal;font-stretch:normal;line-height:125%;letter-spacing:0px;word-spacing:0px;fill:#000000;fill-opacity:1;stroke:none;font-family:Open Sans;-inkscape-font-specification:Open Sans"
               d="m 426.30245,382.65417 -0.64453,-3.04688 -0.15625,0 c -1.06772,1.34115 -2.13543,2.25261 -3.20312,2.73438 -1.0547,0.46875 -2.37632,0.70312 -3.96485,0.70312 -2.1224,0 -3.78906,-0.54687 -5,-1.64062 -1.19792,-1.09375 -1.79687,-2.64974 -1.79687,-4.66797 0,-4.32291 3.45702,-6.58853 10.37109,-6.79688 l 3.63281,-0.11718 0,-1.32813 c -10e-6,-1.67967 -0.3646,-2.91665 -1.09375,-3.71094 -0.71616,-0.80727 -1.8685,-1.21092 -3.45703,-1.21093 -1.78386,1e-5 -3.80209,0.54689 -6.05469,1.64062 l -0.99609,-2.48047 c 1.05468,-0.57289 2.20703,-1.02211 3.45703,-1.34765 1.26301,-0.3255 2.52603,-0.48826 3.78906,-0.48829 2.55207,3e-5 4.44009,0.56643 5.66407,1.69922 1.23696,1.13283 1.85545,2.94924 1.85547,5.44922 l 0,14.60938 -2.40235,0 m -7.32422,-2.28516 c 2.01822,0 3.60025,-0.55338 4.7461,-1.66016 1.15884,-1.10676 1.73826,-2.65624 1.73828,-4.64843 l 0,-1.9336 -3.24219,0.13672 c -2.57813,0.0912 -4.44011,0.4948 -5.58594,1.21094 -1.13281,0.70313 -1.69922,1.80339 -1.69922,3.30078 0,1.17188 0.35156,2.06381 1.05469,2.67578 0.71614,0.61198 1.71223,0.91797 2.98828,0.91797" />
            <path
               inkscape:connector-curvature="0"
               id="path3864"
               style="font-size:40px;font-style:normal;font-variant:normal;font-weight:normal;font-stretch:normal;line-height:125%;letter-spacing:0px;word-spacing:0px;fill:#000000;fill-opacity:1;stroke:none;font-family:Open Sans;-inkscape-font-specification:Open Sans"
               d="m 440.09151,382.65417 -8.125,-21.40625 3.47657,0 4.60937,12.69531 c 1.04166,2.96875 1.65364,4.89584 1.83594,5.78125 l 0.15625,0 c 0.14322,-0.6901 0.59244,-2.11588 1.34766,-4.27734 0.76821,-2.17447 2.48045,-6.90754 5.13671,-14.19922 l 3.47657,0 -8.125,21.40625 -3.78907,0" />
            <path
               inkscape:connector-curvature="0"
               id="path3866"
               style="font-size:40px;font-style:normal;font-variant:normal;font-weight:normal;font-stretch:normal;line-height:125%;letter-spacing:0px;word-spacing:0px;fill:#000000;fill-opacity:1;stroke:none;font-family:Open Sans;-inkscape-font-specification:Open Sans"
               d="m 468.6462,382.65417 -0.64453,-3.04688 -0.15625,0 c -1.06772,1.34115 -2.13543,2.25261 -3.20312,2.73438 -1.0547,0.46875 -2.37632,0.70312 -3.96485,0.70312 -2.1224,0 -3.78906,-0.54687 -5,-1.64062 -1.19792,-1.09375 -1.79687,-2.64974 -1.79687,-4.66797 0,-4.32291 3.45702,-6.58853 10.37109,-6.79688 l 3.63281,-0.11718 0,-1.32813 c -10e-6,-1.67967 -0.3646,-2.91665 -1.09375,-3.71094 -0.71616,-0.80727 -1.8685,-1.21092 -3.45703,-1.21093 -1.78386,1e-5 -3.80209,0.54689 -6.05469,1.64062 l -0.99609,-2.48047 c 1.05468,-0.57289 2.20703,-1.02211 3.45703,-1.34765 1.26301,-0.3255 2.52603,-0.48826 3.78906,-0.48829 2.55207,3e-5 4.44009,0.56643 5.66407,1.69922 1.23696,1.13283 1.85545,2.94924 1.85547,5.44922 l 0,14.60938 -2.40235,0 m -7.32422,-2.28516 c 2.01822,0 3.60025,-0.55338 4.7461,-1.66016 1.15884,-1.10676 1.73826,-2.65624 1.73828,-4.64843 l 0,-1.9336 -3.24219,0.13672 c -2.57813,0.0912 -4.44011,0.4948 -5.58594,1.21094 -1.13281,0.70313 -1.69922,1.80339 -1.69922,3.30078 0,1.17188 0.35156,2.06381 1.05469,2.67578 0.71614,0.61198 1.71223,0.91797 2.98828,0.91797" />
          </g>
          <path
             d="m 391.88839,430.58385 c 0,-0.87239 0.19531,-1.52994 0.58594,-1.97265 0.40364,-0.45573 0.97656,-0.68359 1.71875,-0.6836 0.7552,1e-5 1.34114,0.22787 1.75781,0.6836 0.42968,0.44271 0.64452,1.10026 0.64453,1.97265 -10e-6,0.84636 -0.21485,1.4974 -0.64453,1.95313 -0.42969,0.45573 -1.01563,0.68359 -1.75781,0.68359 -0.66407,0 -1.21745,-0.20182 -1.66016,-0.60547 -0.42969,-0.41666 -0.64453,-1.09374 -0.64453,-2.03125"
             style="font-size:40px;font-style:normal;font-variant:normal;font-weight:normal;font-stretch:normal;line-height:125%;letter-spacing:0px;word-spacing:0px;fill:#000000;fill-opacity:1;stroke:none;font-family:Open Sans;-inkscape-font-specification:Open Sans"
             id="path3868"
             inkscape:connector-curvature="0" />
          <path
             d="m 412.94308,433.04479 c -1.39324,0 -2.66928,-0.2539 -3.82813,-0.76172 -1.14584,-0.52083 -2.10938,-1.3151 -2.89062,-2.38281 l -0.23438,0 c 0.15625,1.25 0.23437,2.4349 0.23438,3.55469 l 0,8.80859 -3.24219,0 0,-31.01562 2.63672,0 0.44922,2.92968 0.15625,0 c 0.83332,-1.17185 1.80337,-2.0182 2.91015,-2.53906 1.10676,-0.52081 2.37629,-0.78123 3.8086,-0.78125 2.83852,2e-5 5.02602,0.97007 6.5625,2.91016 1.54946,1.94012 2.32419,4.66147 2.32422,8.16406 -3e-5,3.51563 -0.78779,6.25 -2.36329,8.20313 -1.56251,1.9401 -3.73699,2.91015 -6.52343,2.91015 m -0.46875,-19.43359 c -2.18751,2e-5 -3.76954,0.60548 -4.7461,1.8164 -0.97657,1.21096 -1.47787,3.13804 -1.5039,5.78125 l 0,0.72266 c -1e-5,3.00782 0.50129,5.16277 1.5039,6.46484 1.0026,1.28907 2.61067,1.9336 4.82422,1.9336 1.84895,0 3.29426,-0.7487 4.33594,-2.2461 1.05467,-1.49739 1.58201,-3.56119 1.58203,-6.1914 -2e-5,-2.66926 -0.52736,-4.71353 -1.58203,-6.13281 -1.04168,-1.43228 -2.51304,-2.14842 -4.41406,-2.14844"
             style="font-size:40px;font-style:normal;font-variant:normal;font-weight:normal;font-stretch:normal;line-height:125%;letter-spacing:0px;word-spacing:0px;fill:#000000;fill-opacity:1;stroke:none;font-family:Open Sans;-inkscape-font-specification:Open Sans"
             id="path3870"
             inkscape:connector-curvature="0" />
          <path
             d="m 424.11495,411.24792 3.47656,0 4.6875,12.20703 c 1.02864,2.78646 1.66666,4.79818 1.91407,6.03515 l 0.15625,0 c 0.16926,-0.66405 0.52082,-1.79687 1.05468,-3.39843 0.54687,-1.61458 2.3177,-6.56249 5.3125,-14.84375 l 3.47657,0 -9.19922,24.375 c -0.91147,2.40885 -1.97918,4.11457 -3.20313,5.11718 -1.21094,1.01562 -2.70182,1.52343 -4.47265,1.52344 -0.98959,-10e-6 -1.96615,-0.11069 -2.92969,-0.33203 l 0,-2.59766 c 0.71614,0.15625 1.51693,0.23437 2.40234,0.23438 2.22656,-1e-5 3.8151,-1.25001 4.76563,-3.75 l 1.1914,-3.04688 -8.63281,-21.52343"
             style="font-size:40px;font-style:normal;font-variant:normal;font-weight:normal;font-stretch:normal;line-height:125%;letter-spacing:0px;word-spacing:0px;fill:#000000;fill-opacity:1;stroke:none;font-family:Open Sans;-inkscape-font-specification:Open Sans"
             id="path3872"
             inkscape:connector-curvature="0" />
        </g>
        <path
           inkscape:connector-curvature="0"
           id="path3874"
           style="font-size:40px;font-style:normal;font-variant:normal;font-weight:normal;font-stretch:normal;line-height:125%;letter-spacing:0px;word-spacing:0px;fill:#000000;fill-opacity:1;stroke:none;font-family:Open Sans;-inkscape-font-specification:Open Sans"
           d="m 391.88839,480.58385 c 0,-0.87239 0.19531,-1.52994 0.58594,-1.97265 0.40364,-0.45573 0.97656,-0.68359 1.71875,-0.6836 0.7552,1e-5 1.34114,0.22787 1.75781,0.6836 0.42968,0.44271 0.64452,1.10026 0.64453,1.97265 -10e-6,0.84636 -0.21485,1.4974 -0.64453,1.95313 -0.42969,0.45573 -1.01563,0.68359 -1.75781,0.68359 -0.66407,0 -1.21745,-0.20182 -1.66016,-0.60547 -0.42969,-0.41666 -0.64453,-1.09374 -0.64453,-2.03125" />
        <path
           inkscape:connector-curvature="0"
           id="path3876"
           style="font-size:40px;font-style:normal;font-variant:normal;font-weight:normal;font-stretch:normal;line-height:125%;letter-spacing:0px;word-spacing:0px;fill:#000000;fill-opacity:1;stroke:none;font-family:Open Sans;-inkscape-font-specification:Open Sans"
           d="m 412.94308,483.04479 c -1.39324,0 -2.66928,-0.2539 -3.82813,-0.76172 -1.14584,-0.52083 -2.10938,-1.3151 -2.89062,-2.38281 l -0.23438,0 c 0.15625,1.25 0.23437,2.4349 0.23438,3.55469 l 0,8.80859 -3.24219,0 0,-31.01562 2.63672,0 0.44922,2.92968 0.15625,0 c 0.83332,-1.17185 1.80337,-2.0182 2.91015,-2.53906 1.10676,-0.52081 2.37629,-0.78123 3.8086,-0.78125 2.83852,2e-5 5.02602,0.97007 6.5625,2.91016 1.54946,1.94012 2.32419,4.66147 2.32422,8.16406 -3e-5,3.51563 -0.78779,6.25 -2.36329,8.20313 -1.56251,1.9401 -3.73699,2.91015 -6.52343,2.91015 m -0.46875,-19.43359 c -2.18751,2e-5 -3.76954,0.60548 -4.7461,1.8164 -0.97657,1.21096 -1.47787,3.13804 -1.5039,5.78125 l 0,0.72266 c -1e-5,3.00782 0.50129,5.16277 1.5039,6.46484 1.0026,1.28907 2.61067,1.9336 4.82422,1.9336 1.84895,0 3.29426,-0.7487 4.33594,-2.2461 1.05467,-1.49739 1.58201,-3.56119 1.58203,-6.1914 -2e-5,-2.66926 -0.52736,-4.71353 -1.58203,-6.13281 -1.04168,-1.43228 -2.51304,-2.14842 -4.41406,-2.14844" />
        <path
           inkscape:connector-curvature="0"
           id="path3878"
           style="font-size:40px;font-style:normal;font-variant:normal;font-weight:normal;font-stretch:normal;line-height:125%;letter-spacing:0px;word-spacing:0px;fill:#000000;fill-opacity:1;stroke:none;font-family:Open Sans;-inkscape-font-specification:Open Sans"
           d="m 442.16183,482.65417 0,-13.84766 c -2e-5,-1.74478 -0.39716,-3.04686 -1.19141,-3.90625 -0.79429,-0.85936 -2.03777,-1.28904 -3.73047,-1.28906 -2.23959,2e-5 -3.88022,0.60548 -4.92187,1.8164 -1.04168,1.21096 -1.56251,3.20965 -1.5625,5.9961 l 0,11.23047 -3.24219,0 0,-21.40625 2.63672,0 0.52734,2.92968 0.15625,0 c 0.66406,-1.05466 1.59505,-1.86847 2.79297,-2.4414 1.19791,-0.58592 2.53254,-0.87889 4.00391,-0.87891 2.57811,2e-5 4.51821,0.62502 5.82031,1.875 1.30206,1.237 1.9531,3.22267 1.95312,5.95703 l 0,13.96485 -3.24218,0" />
        <path
           inkscape:connector-curvature="0"
           id="path3880"
           style="font-size:40px;font-style:normal;font-variant:normal;font-weight:normal;font-stretch:normal;line-height:125%;letter-spacing:0px;word-spacing:0px;fill:#000000;fill-opacity:1;stroke:none;font-family:Open Sans;-inkscape-font-specification:Open Sans"
           d="m 469.56417,461.24792 0,2.05078 -3.96484,0.46875 c 0.36456,0.45575 0.69008,1.0547 0.97656,1.79687 0.28644,0.72919 0.42967,1.55601 0.42969,2.48047 -2e-5,2.09637 -0.71617,3.76954 -2.14844,5.01953 -1.43231,1.25001 -3.39845,1.87501 -5.89844,1.875 -0.63803,10e-6 -1.23699,-0.0521 -1.79687,-0.15625 -1.38022,0.72918 -2.07032,1.64714 -2.07032,2.75391 0,0.58594 0.24088,1.02214 0.72266,1.30859 0.48176,0.27344 1.30859,0.41016 2.48047,0.41016 l 3.78906,0 c 2.3177,0 4.09504,0.48828 5.33203,1.46484 1.24998,0.97657 1.87498,2.39584 1.875,4.25782 -2e-5,2.36978 -0.95054,4.17317 -2.85156,5.41015 -1.90106,1.24999 -4.67449,1.87499 -8.32031,1.875 -2.79949,-10e-6 -4.96094,-0.52084 -6.48438,-1.5625 -1.51041,-1.04167 -2.26562,-2.51302 -2.26562,-4.41406 0,-1.30209 0.41666,-2.42839 1.25,-3.37891 0.83333,-0.95052 2.0052,-1.59505 3.51562,-1.93359 -0.54688,-0.24739 -1.00912,-0.63151 -1.38672,-1.15234 -0.36458,-0.52083 -0.54687,-1.1263 -0.54687,-1.81641 0,-0.78125 0.20833,-1.46484 0.625,-2.05078 0.41666,-0.58593 1.07421,-1.15234 1.97266,-1.69922 -1.10678,-0.45572 -2.01173,-1.23046 -2.71485,-2.32422 -0.6901,-1.09374 -1.03516,-2.34374 -1.03515,-3.75 -10e-6,-2.34373 0.70312,-4.14712 2.10937,-5.41016 1.40625,-1.27602 3.39843,-1.91404 5.97656,-1.91406 1.11978,2e-5 2.1289,0.13023 3.02735,0.39063 l 7.40234,0 m -17.07031,25 c -10e-6,1.15885 0.48828,2.03775 1.46484,2.63672 0.97656,0.59895 2.3763,0.89843 4.19922,0.89843 2.72134,0 4.73306,-0.41016 6.03516,-1.23047 1.31508,-0.80729 1.97264,-1.90755 1.97265,-3.30078 -10e-6,-1.15885 -0.35809,-1.96614 -1.07422,-2.42187 -0.71616,-0.44271 -2.06381,-0.66406 -4.04296,-0.66406 l -3.88672,0 c -1.47136,0 -2.6172,0.35156 -3.4375,1.05468 -0.82032,0.70313 -1.23048,1.71224 -1.23047,3.02735 m 1.75781,-18.14453 c 0,1.4974 0.42317,2.63022 1.26953,3.39843 0.84635,0.76824 2.02473,1.15236 3.53516,1.15235 3.16405,10e-6 4.74608,-1.53645 4.74609,-4.60938 -1e-5,-3.21613 -1.60157,-4.8242 -4.80469,-4.82422 -1.52344,2e-5 -2.69532,0.41018 -3.51562,1.23047 -0.82032,0.82033 -1.23047,2.03778 -1.23047,3.65235" />
      </g>
      <path
         d="m 391.88839,530.58385 c 0,-0.87239 0.19531,-1.52994 0.58594,-1.97265 0.40364,-0.45573 0.97656,-0.68359 1.71875,-0.6836 0.7552,10e-6 1.34114,0.22787 1.75781,0.6836 0.42968,0.44271 0.64452,1.10026 0.64453,1.97265 -10e-6,0.84636 -0.21485,1.4974 -0.64453,1.95313 -0.42969,0.45573 -1.01563,0.68359 -1.75781,0.68359 -0.66407,0 -1.21745,-0.20182 -1.66016,-0.60547 -0.42969,-0.41666 -0.64453,-1.09374 -0.64453,-2.03125"
         style="font-size:40px;font-style:normal;font-variant:normal;font-weight:normal;font-stretch:normal;line-height:125%;letter-spacing:0px;word-spacing:0px;fill:#000000;fill-opacity:1;stroke:none;font-family:Open Sans;-inkscape-font-specification:Open Sans"
         id="path3882"
         inkscape:connector-curvature="0" />
      <path
         d="m 412.74776,510.85729 c 0.95051,2e-5 1.80338,0.0781 2.5586,0.23438 l -0.44922,3.00781 c -0.88543,-0.19529 -1.66668,-0.29295 -2.34375,-0.29297 -1.73178,2e-5 -3.21616,0.70314 -4.45313,2.10938 -1.22396,1.40626 -1.83594,3.15756 -1.83593,5.2539 l 0,11.48438 -3.24219,0 0,-21.40625 2.67578,0 0.37109,3.96484 0.15625,0 c 0.79427,-1.39321 1.7513,-2.46743 2.8711,-3.22266 1.11978,-0.75518 2.35025,-1.13279 3.6914,-1.13281"
         style="font-size:40px;font-style:normal;font-variant:normal;font-weight:normal;font-stretch:normal;line-height:125%;letter-spacing:0px;word-spacing:0px;fill:#000000;fill-opacity:1;stroke:none;font-family:Open Sans;-inkscape-font-specification:Open Sans"
         id="path3884"
         inkscape:connector-curvature="0" />
      <path
         d="m 429.2712,510.89635 c 2.81249,3e-5 4.99347,0.96357 6.54297,2.89063 1.56248,1.91408 2.34373,4.62892 2.34375,8.14453 -2e-5,3.51563 -0.78778,6.25 -2.36328,8.20313 -1.56252,1.9401 -3.737,2.91015 -6.52344,2.91015 -1.39324,0 -2.66928,-0.2539 -3.82812,-0.76172 -1.14584,-0.52083 -2.10938,-1.3151 -2.89063,-2.38281 l -0.23437,0 -0.6836,2.75391 -2.32422,0 0,-30.39063 3.24219,0 0,7.38281 c 0,1.65367 -0.0521,3.13804 -0.15625,4.45313 l 0.15625,0 c 1.51041,-2.1354 3.74999,-3.2031 6.71875,-3.20313 m -0.46875,2.71485 c -2.21355,2e-5 -3.8086,0.63804 -4.78515,1.91406 -0.97657,1.26304 -1.46485,3.39845 -1.46485,6.40625 0,3.00782 0.5013,5.16277 1.50391,6.46484 1.00259,1.28907 2.61067,1.9336 4.82422,1.9336 1.99217,0 3.47654,-0.72266 4.45312,-2.16797 0.97655,-1.45833 1.46483,-3.54817 1.46485,-6.26953 -2e-5,-2.78645 -0.4883,-4.86327 -1.46485,-6.23047 -0.97658,-1.36717 -2.48699,-2.05076 -4.53125,-2.05078"
         style="font-size:40px;font-style:normal;font-variant:normal;font-weight:normal;font-stretch:normal;line-height:125%;letter-spacing:0px;word-spacing:0px;fill:#000000;fill-opacity:1;stroke:none;font-family:Open Sans;-inkscape-font-specification:Open Sans"
         id="path3886"
         inkscape:connector-curvature="0" />
    </g>
  </g>
</svg>
