<?xml version="1.0" encoding="UTF-8" standalone="no"?>
<!-- Created with Inkscape (http://www.inkscape.org/) -->

<svg
   xmlns:dc="http://purl.org/dc/elements/1.1/"
   xmlns:cc="http://creativecommons.org/ns#"
   xmlns:rdf="http://www.w3.org/1999/02/22-rdf-syntax-ns#"
   xmlns:svg="http://www.w3.org/2000/svg"
   xmlns="http://www.w3.org/2000/svg"
   xmlns:sodipodi="http://sodipodi.sourceforge.net/DTD/sodipodi-0.dtd"
   xmlns:inkscape="http://www.inkscape.org/namespaces/inkscape"
   width="499.01535"
   height="256.57874"
   id="svg2"
   version="1.1"
   inkscape:version="0.48.4 r9939"
   sodipodi:docname="conf-logo-matched.svg"
   inkscape:export-filename="/home/dan/Documents/newhavenio/conf-logo-matched.png"
   inkscape:export-xdpi="90"
   inkscape:export-ydpi="90">
  <defs
     id="defs4">
    <clipPath
       clipPathUnits="userSpaceOnUse"
       id="clipPath5100">
      <rect
         style="fill:#ffffff;fill-opacity:1;stroke:none"
         id="rect5102"
         width="507.09659"
         height="317.1879"
         x="26.263966"
         y="-4.2573709" />
    </clipPath>
  </defs>
  <sodipodi:namedview
     id="base"
     pagecolor="#ffffff"
     bordercolor="#666666"
     borderopacity="1.0"
     inkscape:pageopacity="0.0"
     inkscape:pageshadow="2"
     inkscape:zoom="0.9899495"
     inkscape:cx="256.6853"
     inkscape:cy="87.917867"
     inkscape:document-units="px"
     inkscape:current-layer="g5039"
     showgrid="false"
     inkscape:snap-bbox="true"
     inkscape:bbox-paths="true"
     inkscape:snap-bbox-edge-midpoints="true"
     inkscape:bbox-nodes="true"
     inkscape:window-width="1600"
     inkscape:window-height="876"
     inkscape:window-x="0"
     inkscape:window-y="24"
     inkscape:window-maximized="1"
     fit-margin-top="0"
     fit-margin-left="0"
     fit-margin-right="0"
     fit-margin-bottom="0" />
  <metadata
     id="metadata7">
    <rdf:RDF>
      <cc:Work
         rdf:about="">
        <dc:format>image/svg+xml</dc:format>
        <dc:type
           rdf:resource="http://purl.org/dc/dcmitype/StillImage" />
        <dc:title></dc:title>
      </cc:Work>
    </rdf:RDF>
  </metadata>
  <g
     inkscape:label="Layer 1"
     inkscape:groupmode="layer"
     id="layer1"
     transform="translate(-10.101528,-46.250254)">
    <g
       id="g5039"
       clip-path="url(#clipPath5100)"
       transform="translate(-28.284271,4.0406101)">
      <rect
         y="-11.975803"
         x="22.91151"
         height="374.28571"
         width="577.14282"
         id="rect4993"
         style="fill:#ff7b1a;fill-opacity:1;fill-rule:evenodd;stroke:none"
         clip-path="none" />
      <g
         id="g5108"
         transform="translate(30.284271,39.979695)">
        <g
           transform="matrix(1.1199078,0,0,1.1199078,287.69462,-123.6965)"
           style="font-size:56px;font-style:normal;font-variant:normal;font-weight:normal;font-stretch:normal;line-height:125%;letter-spacing:0px;word-spacing:0px;fill:#ffffff;fill-opacity:1;stroke:none;font-family:Aller;-inkscape-font-specification:Aller"
           id="flowRoot4995">
          <path
             d="m 105.0775,242.16655 c -0.0747,-0.52267 -0.14934,-1.02667 -0.224,-1.512 -0.0373,-0.52267 -0.056,-1.04533 -0.056,-1.568 0,-0.52267 0.0187,-1.04533 0.056,-1.568 0.0747,-0.56 0.14933,-1.10133 0.224,-1.624 0.52266,-0.0747 1.02666,-0.13066 1.512,-0.168 0.52266,-0.0373 1.04533,-0.056 1.568,-0.056 0.52266,0 1.04533,0.0187 1.568,0.056 0.52266,0.0373 1.04532,0.0933 1.568,0.168 0.0747,0.52267 0.13066,1.04533 0.168,1.568 0.0747,0.52267 0.11199,1.04533 0.112,1.568 -10e-6,0.52267 -0.0373,1.04533 -0.112,1.568 -0.0373,0.52266 -0.0933,1.04533 -0.168,1.568 -0.52268,0.0747 -1.04534,0.13066 -1.568,0.168 -0.48534,0.0373 -0.98934,0.056 -1.512,0.056 -0.52267,0 -1.04534,-0.0187 -1.568,-0.056 -0.52267,-0.0373 -1.04534,-0.0933 -1.568,-0.168"
             style=""
             id="path5132" />
          <path
             d="m 121.05062,217.80655 -3.64,0 c -0.0747,-0.29865 -0.13066,-0.63465 -0.16799,-1.008 -0.0373,-0.41064 -0.056,-0.80264 -0.056,-1.176 -10e-6,-0.37331 0.0187,-0.74664 0.056,-1.12 0.0373,-0.41064 0.0933,-0.76531 0.16799,-1.064 l 9.07201,0 0,28.728 c -0.41068,0.0747 -0.87735,0.13066 -1.4,0.168 -0.48535,0.0373 -0.93335,0.056 -1.344,0.056 -0.37335,0 -0.82135,-0.0187 -1.344,-0.056 -0.48535,-0.0373 -0.93334,-0.0933 -1.34401,-0.168 l 0,-24.36 m -1.232,-10.696 c -0.0747,-0.44797 -0.13067,-0.9333 -0.16799,-1.456 -1e-5,-0.52263 -1e-5,-0.9893 0,-1.4 -1e-5,-0.41063 -1e-5,-0.8773 0,-1.4 0.0373,-0.52263 0.0933,-0.9893 0.16799,-1.4 0.48533,-0.0746 1.008,-0.13063 1.568,-0.168 0.56,-0.0373 1.04533,-0.056 1.456,-0.056 0.41066,4e-5 0.896,0.0187 1.45601,0.056 0.55999,0.0374 1.06398,0.0934 1.512,0.168 0.0746,0.4107 0.11198,0.87737 0.11199,1.4 0.0373,0.5227 0.056,0.98937 0.056,1.4 -1e-5,0.4107 -0.0187,0.87737 -0.056,1.4 -10e-6,0.5227 -0.0373,1.00803 -0.11199,1.456 -0.44802,0.0747 -0.95201,0.1307 -1.512,0.168 -0.52268,0.0374 -0.98935,0.056 -1.40001,0.056 -0.448,3e-5 -0.952,-0.0186 -1.512,-0.056 -0.56,-0.0373 -1.08267,-0.0933 -1.568,-0.168"
             style=""
             id="path5134" />
          <path
             d="m 147.09675,242.83855 c -2.24001,0 -4.20001,-0.37334 -5.88,-1.12 -1.68001,-0.784 -3.08001,-1.848 -4.2,-3.192 -1.12,-1.344 -1.96,-2.93066 -2.52,-4.76 -0.52267,-1.82933 -0.784,-3.80799 -0.784,-5.936 0,-2.12799 0.26133,-4.10665 0.784,-5.936 0.56,-1.82931 1.4,-3.41598 2.52,-4.76 1.11999,-1.34398 2.51999,-2.40798 4.2,-3.192 1.67999,-0.78397 3.63999,-1.17597 5.88,-1.176 2.23998,3e-5 4.19998,0.39203 5.88,1.176 1.67998,0.78402 3.07997,1.84802 4.2,3.192 1.11997,1.34402 1.94131,2.93069 2.464,4.76 0.55997,1.82935 0.83997,3.80801 0.84,5.936 -3e-5,2.12801 -0.28003,4.10667 -0.84,5.936 -0.52269,1.82934 -1.34403,3.416 -2.464,4.76 -1.12003,1.344 -2.52002,2.408 -4.2,3.192 -1.68002,0.74666 -3.64002,1.12 -5.88,1.12 m 0,-4.424 c 2.57598,0 4.47998,-0.93333 5.712,-2.8 1.23198,-1.86666 1.84798,-4.46133 1.848,-7.784 -2e-5,-3.32265 -0.61602,-5.89865 -1.848,-7.728 -1.23202,-1.86665 -3.13602,-2.79998 -5.712,-2.8 -2.57601,2e-5 -4.48001,0.93335 -5.712,2.8 -1.19468,1.82935 -1.79201,4.40535 -1.792,7.728 -1e-5,3.32267 0.59732,5.91734 1.792,7.784 1.23199,1.86667 3.13599,2.8 5.712,2.8"
             style=""
             id="path5136" />
        </g>
        <g
           transform="matrix(1.1199078,0,0,1.1199078,-12.199563,-123.6965)"
           style="font-size:56px;font-style:normal;font-variant:normal;font-weight:normal;font-stretch:normal;line-height:125%;letter-spacing:0px;word-spacing:0px;fill:#ffffff;fill-opacity:1;stroke:none;font-family:Aller;-inkscape-font-specification:Aller"
           id="flowRoot5003">
          <path
             d="m 105.9175,213.43855 c 0.41066,-0.0746 0.80266,-0.13064 1.176,-0.168 0.41066,-0.0373 0.82133,-0.056 1.232,-0.056 0.41066,3e-5 0.78399,0.0187 1.12,0.056 0.37332,0.0374 0.76532,0.0934 1.176,0.168 0.11199,0.56002 0.22399,1.32536 0.336,2.296 0.11199,0.93336 0.16799,1.71735 0.168,2.352 0.37332,-0.63465 0.83999,-1.26931 1.4,-1.904 0.59732,-0.63464 1.26932,-1.19464 2.016,-1.68 0.74665,-0.52264 1.60532,-0.93331 2.576,-1.232 0.97065,-0.33597 2.03465,-0.50397 3.192,-0.504 3.28531,3e-5 5.71198,0.95202 7.28,2.856 1.56797,1.86669 2.35197,4.64802 2.352,8.344 l 0,18.2 c -0.41069,0.0747 -0.87736,0.13066 -1.4,0.168 -0.52269,0.0373 -0.98936,0.056 -1.4,0.056 -0.41069,0 -0.87736,-0.0187 -1.4,-0.056 -0.48536,-0.0373 -0.93336,-0.0933 -1.344,-0.168 l 0,-16.688 c -2e-5,-2.65065 -0.41069,-4.59198 -1.232,-5.824 -0.82135,-1.26931 -2.12802,-1.90398 -3.92,-1.904 -1.04535,2e-5 -2.03468,0.18669 -2.968,0.56 -0.93335,0.37335 -1.75468,0.95202 -2.464,1.736 -0.70934,0.78402 -1.28801,1.81068 -1.736,3.08 -0.41068,1.23201 -0.61601,2.72535 -0.616,4.48 l 0,14.56 c -0.41068,0.0747 -0.87734,0.13066 -1.4,0.168 -0.48534,0.0373 -0.93334,0.056 -1.344,0.056 -0.41067,0 -0.87734,-0.0187 -1.4,-0.056 -0.52267,-0.0373 -0.98934,-0.0933 -1.4,-0.168 l 0,-28.728"
             style=""
             id="path5139" />
          <path
             d="m 142.4365,229.17455 c 0.0747,3.13601 0.87732,5.432 2.408,6.888 1.56799,1.456 3.86399,2.184 6.888,2.184 2.65065,0 5.17064,-0.46667 7.56,-1.4 0.29864,0.56 0.54131,1.25067 0.728,2.072 0.18664,0.784 0.29864,1.568 0.336,2.352 -1.23203,0.52266 -2.59469,0.91466 -4.088,1.176 -1.45602,0.26133 -3.08002,0.392 -4.872,0.392 -2.61335,0 -4.85335,-0.35467 -6.72,-1.064 -1.86668,-0.74667 -3.41601,-1.77333 -4.648,-3.08 -1.19467,-1.344 -2.072,-2.912 -2.632,-4.704 -0.56,-1.82933 -0.84,-3.82666 -0.84,-5.992 0,-2.12799 0.26133,-4.10665 0.784,-5.936 0.56,-1.86665 1.4,-3.47198 2.52,-4.816 1.11999,-1.38131 2.51999,-2.46398 4.2,-3.248 1.71732,-0.82131 3.73332,-1.23197 6.048,-1.232 1.97865,3e-5 3.71465,0.33603 5.208,1.008 1.49331,0.67202 2.74398,1.60536 3.752,2.8 1.00797,1.15735 1.77331,2.55735 2.296,4.2 0.52264,1.60535 0.78397,3.36001 0.784,5.264 -3e-5,0.52268 -0.0187,1.08268 -0.056,1.68 -0.0374,0.56001 -0.0747,1.04534 -0.112,1.456 l -19.544,0 m 14.224,-4.144 c -2e-5,-1.04532 -0.14936,-2.03465 -0.448,-2.968 -0.26136,-0.97065 -0.67202,-1.81065 -1.232,-2.52 -0.52269,-0.70931 -1.21335,-1.26931 -2.072,-1.68 -0.82135,-0.44798 -1.81068,-0.67198 -2.968,-0.672 -2.27735,2e-5 -4.03201,0.69069 -5.264,2.072 -1.19468,1.38135 -1.92268,3.30402 -2.184,5.768 l 14.168,0"
             style=""
             id="path5141" />
          <path
             d="m 165.37641,213.43855 c 0.52266,-0.0746 1.04533,-0.13064 1.568,-0.168 0.52266,-0.0373 0.98933,-0.056 1.4,-0.056 0.52266,3e-5 1.04533,0.0187 1.568,0.056 0.55999,0.0374 1.04533,0.0934 1.456,0.168 l 5.6,23.464 6.328,-23.464 c 0.41065,-0.0746 0.85865,-0.13064 1.344,-0.168 0.48531,-0.0373 0.98931,-0.056 1.512,-0.056 0.59731,0.0374 1.10131,0.0747 1.512,0.112 0.44798,3e-5 0.87731,0.0374 1.288,0.112 l 6.272,23.072 5.6,-23.072 c 0.41063,-0.0746 0.8213,-0.13064 1.232,-0.168 0.41063,-0.0373 0.85863,-0.056 1.344,-0.056 0.41063,3e-5 0.85863,0.0187 1.344,0.056 0.52262,0.0374 1.04529,0.0934 1.568,0.168 l -8.568,28.728 c -0.48537,0.0747 -0.98937,0.13066 -1.512,0.168 -0.48537,0.0373 -0.93337,0.056 -1.344,0.056 -0.4107,0 -0.8587,-0.0187 -1.344,-0.056 -0.48536,-0.0373 -0.9707,-0.0933 -1.456,-0.168 l -6.16,-21.728 -6.44,21.728 c -0.52268,0.0747 -1.04535,0.13066 -1.568,0.168 -0.48535,0.0373 -0.93335,0.056 -1.344,0.056 -0.41068,0 -0.87735,-0.0187 -1.4,-0.056 -0.48534,-0.0373 -0.93334,-0.0933 -1.344,-0.168 l -8.456,-28.728"
             style=""
             id="path5143" />
        </g>
        <g
           transform="matrix(1.1199078,0,0,1.1199078,112.18513,-123.6965)"
           style="font-size:56px;font-style:normal;font-variant:normal;font-weight:bold;font-stretch:normal;line-height:125%;letter-spacing:0px;word-spacing:0px;fill:#ffffff;fill-opacity:1;stroke:none;font-family:Aller;-inkscape-font-specification:Aller Bold"
           id="flowRoot5011">
          <path
             d="m 122.3255,231.58276 -8.288,0 0,10.64 c -0.97068,0.14933 -1.84801,0.26133 -2.632,0.336 -0.78401,0.0747 -1.49334,0.112 -2.128,0.112 -0.63467,0 -1.34401,-0.0373 -2.128,-0.112 -0.784,-0.0747 -1.64267,-0.18667 -2.576,-0.336 l 0,-28.896 c 0.82133,-0.18664 1.624,-0.3173 2.408,-0.392 0.82133,-0.0746 1.60533,-0.11197 2.352,-0.112 0.70932,3e-5 1.47466,0.0374 2.296,0.112 0.82132,0.0747 1.62399,0.20536 2.408,0.392 l 0,9.856 8.288,0 0,-9.856 c 0.82131,-0.18664 1.62398,-0.3173 2.408,-0.392 0.82131,-0.0746 1.60531,-0.11197 2.352,-0.112 0.70931,3e-5 1.47464,0.0374 2.296,0.112 0.8213,0.0747 1.62397,0.20536 2.408,0.392 l 0,28.896 c -0.9707,0.14933 -1.84803,0.26133 -2.632,0.336 -0.78403,0.0747 -1.49336,0.112 -2.128,0.112 -0.63469,0 -1.34402,-0.0373 -2.128,-0.112 -0.78402,-0.0747 -1.64269,-0.18667 -2.576,-0.336 l 0,-10.64"
             style="font-family:Aller Display;-inkscape-font-specification:Aller Display Bold"
             id="path5146" />
          <path
             d="m 136.58625,232.81476 c 0,-1.82932 0.392,-3.34132 1.176,-4.536 0.784,-1.19465 1.792,-2.14665 3.024,-2.856 1.23199,-0.70931 2.59466,-1.19465 4.088,-1.456 1.49332,-0.29865 2.94932,-0.44798 4.368,-0.448 l 3.416,0 c -0.0374,-0.67198 -0.22402,-1.23198 -0.56,-1.68 -0.33602,-0.44798 -0.76535,-0.78398 -1.288,-1.008 -0.52268,-0.26131 -1.10135,-0.42931 -1.736,-0.504 -0.63468,-0.11198 -1.28801,-0.16798 -1.96,-0.168 -0.89601,2e-5 -1.94134,0.11202 -3.136,0.336 -1.19467,0.18669 -2.42667,0.50402 -3.696,0.952 -0.33601,-0.63464 -0.63467,-1.21331 -0.896,-1.736 -0.224,-0.52264 -0.41067,-1.04531 -0.56,-1.568 -0.112,-0.55997 -0.20534,-1.11997 -0.28,-1.68 -0.0373,-0.59731 -0.056,-1.2693 -0.056,-2.016 1.79199,-0.5973 3.56533,-1.0453 5.32,-1.344 1.79199,-0.29864 3.39732,-0.44797 4.816,-0.448 1.94132,3e-5 3.69598,0.2427 5.264,0.728 1.56798,0.44803 2.89331,1.15736 3.976,2.128 1.11998,0.97069 1.97864,2.22136 2.576,3.752 0.59731,1.49336 0.89597,3.28535 0.896,5.376 l 0,16.408 c -1.41869,0.41067 -3.13602,0.82134 -5.152,1.232 -2.01602,0.41067 -4.14402,0.616 -6.384,0.616 -1.94135,0 -3.73334,-0.18667 -5.376,-0.56 -1.60534,-0.336 -2.98667,-0.896 -4.144,-1.68 -1.15734,-0.784 -2.072,-1.81066 -2.744,-3.08 -0.63467,-1.30666 -0.952,-2.89332 -0.952,-4.76 m 13.216,3.136 c 0.33598,1e-5 0.82132,-0.0373 1.456,-0.112 0.63465,-0.0747 1.10132,-0.14933 1.4,-0.224 l 0,-6.16 -3.192,0 c -1.30668,1e-5 -2.40801,0.28001 -3.304,0.84 -0.89601,0.56001 -1.34401,1.34401 -1.344,2.352 -1e-5,0.74668 0.16799,1.34401 0.504,1.792 0.33599,0.41068 0.74666,0.72801 1.232,0.952 0.52265,0.22401 1.06399,0.37334 1.624,0.448 0.59732,0.0747 1.13865,0.11201 1.624,0.112"
             style="font-family:Aller Display;-inkscape-font-specification:Aller Display Bold"
             id="path5148" />
          <path
             d="m 183.59477,213.32676 c 0.29865,-0.0746 0.91465,-0.1493 1.848,-0.224 0.93331,-0.0746 1.88531,-0.11197 2.856,-0.112 1.23197,3e-5 2.37064,0.0374 3.416,0.112 1.08264,0.0747 1.8293,0.14936 2.24,0.224 l -10.976,28.84 c -0.78402,0.18667 -1.58668,0.29867 -2.408,0.336 -0.78402,0.0747 -1.54935,0.112 -2.296,0.112 -0.74668,0 -1.51201,-0.0373 -2.296,-0.112 -0.78401,-0.0373 -1.49334,-0.14933 -2.128,-0.336 l -10.752,-28.84 c 0.41067,-0.0746 1.13867,-0.1493 2.184,-0.224 1.08266,-0.0746 2.24,-0.11197 3.472,-0.112 0.97066,3e-5 1.94133,0.0374 2.912,0.112 0.97066,0.0747 1.60532,0.14936 1.904,0.224 l 5.096,17.36 c 0.85865,-2.87465 1.67998,-5.78665 2.464,-8.736 0.82132,-2.94931 1.64265,-5.82397 2.464,-8.624"
             style="font-family:Aller Display;-inkscape-font-specification:Aller Display Bold"
             id="path5150" />
          <path
             d="m 204.62543,230.79876 c 0.41066,1.53068 1.11999,2.61334 2.128,3.248 1.04532,0.63468 2.40798,0.95201 4.088,0.952 1.08265,1e-5 2.29598,-0.13066 3.64,-0.392 1.34398,-0.26132 2.66931,-0.65332 3.976,-1.176 0.52264,0.97068 0.97064,2.12801 1.344,3.472 0.41064,1.34401 0.63464,2.744 0.672,4.2 -3.32269,1.232 -6.72002,1.848 -10.192,1.848 -2.68801,0 -5.00268,-0.37333 -6.944,-1.12 -1.90401,-0.74666 -3.47201,-1.77333 -4.704,-3.08 -1.19467,-1.34399 -2.09067,-2.93066 -2.688,-4.76 -0.56,-1.82932 -0.84,-3.82665 -0.84,-5.992 0,-2.12798 0.29867,-4.12531 0.896,-5.992 0.59733,-1.86664 1.49333,-3.49064 2.688,-4.872 1.19466,-1.38131 2.68799,-2.46397 4.48,-3.248 1.79199,-0.8213 3.88265,-1.23197 6.272,-1.232 1.97865,3e-5 3.73331,0.33603 5.264,1.008 1.56798,0.67203 2.89331,1.60536 3.976,2.8 1.08264,1.15736 1.90397,2.57602 2.464,4.256 0.59731,1.64269 0.89597,3.43469 0.896,5.376 -3e-5,1.00802 -0.056,1.92268 -0.168,2.744 -0.0747,0.78401 -0.14936,1.43735 -0.224,1.96 l -17.024,0 m 4.48,-11.032 c -1.19468,2e-5 -2.22135,0.37336 -3.08,1.12 -0.85868,0.74669 -1.36268,1.90402 -1.512,3.472 l 8.96,0 c -0.0747,-1.30665 -0.48535,-2.38931 -1.232,-3.248 -0.70935,-0.89598 -1.75468,-1.34398 -3.136,-1.344"
             style="font-family:Aller Display;-inkscape-font-specification:Aller Display Bold"
             id="path5152" />
          <path
             d="m 238.34356,212.76676 c 1.64265,3e-5 3.28531,0.14936 4.928,0.448 1.64264,0.26136 3.11731,0.84003 4.424,1.736 1.34397,0.89603 2.42664,2.18403 3.248,3.864 0.85863,1.68002 1.28797,3.90135 1.288,6.664 l 0,16.744 c -0.9707,0.18667 -1.84803,0.29867 -2.632,0.336 -0.78403,0.0747 -1.4747,0.112 -2.072,0.112 -0.63469,0 -1.34403,-0.0373 -2.128,-0.112 -0.78403,-0.0373 -1.66136,-0.14933 -2.632,-0.336 l 0,-15.736 c -2e-5,-1.97865 -0.37336,-3.39731 -1.12,-4.256 -0.74669,-0.85864 -1.88535,-1.28798 -3.416,-1.288 -0.41069,2e-5 -0.85869,0.0374 -1.344,0.112 -0.44802,0.0747 -0.72802,0.14936 -0.84,0.224 l 0,20.944 c -0.97068,0.18667 -1.84802,0.29867 -2.632,0.336 -0.78401,0.0747 -1.47468,0.112 -2.072,0.112 -0.63468,0 -1.34401,-0.0373 -2.128,-0.112 -0.78401,-0.0373 -1.66134,-0.14933 -2.632,-0.336 l 0,-27.496 c 1.30666,-0.44797 2.89332,-0.8773 4.76,-1.288 1.86665,-0.44797 4.19998,-0.67197 7,-0.672"
             style="font-family:Aller Display;-inkscape-font-specification:Aller Display Bold"
             id="path5154" />
        </g>
        <g
           transform="matrix(0.91209,0,0,0.91209,-48.907233,-160.7964)"
           id="g5019">
          <g
             transform="matrix(0.87719529,0,0,0.87719529,209.89398,145.40733)"
             style="font-size:105px;font-style:normal;font-variant:normal;font-weight:bold;font-stretch:normal;line-height:125%;letter-spacing:0px;word-spacing:0px;fill:#ffffff;fill-opacity:1;stroke:none;font-family:Aller;-inkscape-font-specification:Aller Bold"
             id="flowRoot5021">
            <path
               d="m 125.0625,274.91299 19.845,0 c 0.34996,1.40001 0.55996,2.69501 0.63,3.885 0.13996,1.19001 0.20996,2.34501 0.21,3.465 -4e-5,1.12001 -0.07,2.31001 -0.21,3.57 -0.07,1.19 -0.28004,2.485 -0.63,3.885 l -37.59,0 0.105,-54.285 c 1.53999,-0.34995 3.04499,-0.59494 4.515,-0.735 1.53999,-0.13994 3.00999,-0.20994 4.41,-0.21 1.32998,6e-5 2.76498,0.0701 4.305,0.21 1.53998,0.14006 3.04498,0.38505 4.515,0.735 l -0.105,39.48"
               style="font-family:Aller Display;-inkscape-font-specification:Aller Display Bold"
               id="path5157" />
            <path
               d="m 150.525,271.97299 c 0,-3.42998 0.735,-6.26498 2.205,-8.505 1.46999,-2.23997 3.35999,-4.02497 5.67,-5.355 2.30999,-1.32997 4.86498,-2.23997 7.665,-2.73 2.79998,-0.55996 5.52998,-0.83996 8.19,-0.84 l 6.405,0 c -0.07,-1.25996 -0.42003,-2.30996 -1.05,-3.15 -0.63003,-0.83996 -1.43503,-1.46996 -2.415,-1.89 -0.98003,-0.48996 -2.06503,-0.80496 -3.255,-0.945 -1.19003,-0.20996 -2.41502,-0.31496 -3.675,-0.315 -1.68002,4e-5 -3.64002,0.21004 -5.88,0.63 -2.24001,0.35004 -4.55001,0.94504 -6.93,1.785 -0.63001,-1.18996 -1.19001,-2.27496 -1.68,-3.255 -0.42001,-0.97996 -0.77001,-1.95996 -1.05,-2.94 -0.21001,-1.04995 -0.38501,-2.09995 -0.525,-3.15 -0.07,-1.11995 -0.10501,-2.37995 -0.105,-3.78 3.35999,-1.11995 6.68499,-1.95995 9.975,-2.52 3.35998,-0.55994 6.36998,-0.83994 9.03,-0.84 3.63997,6e-5 6.92997,0.45506 9.87,1.365 2.93996,0.84005 5.42496,2.17005 7.455,3.99 2.09995,1.82005 3.70995,4.16505 4.83,7.035 1.11995,2.80004 1.67995,6.16004 1.68,10.08 l 0,30.765 c -2.66005,0.77 -5.88004,1.54 -9.66,2.31 -3.78004,0.77 -7.77003,1.155 -11.97,1.155 -3.64002,0 -7.00002,-0.35 -10.08,-1.05 -3.01001,-0.63 -5.60001,-1.68 -7.77,-3.15 -2.17001,-1.47 -3.88501,-3.39499 -5.145,-5.775 -1.19,-2.44999 -1.785,-5.42499 -1.785,-8.925 m 24.78,5.88 c 0.62997,1e-5 1.53997,-0.07 2.73,-0.21 1.18997,-0.13999 2.06497,-0.27999 2.625,-0.42 l 0,-11.55 -5.985,0 c -2.45002,2e-5 -4.51502,0.52502 -6.195,1.575 -1.68002,1.05002 -2.52002,2.52002 -2.52,4.41 -2e-5,1.40002 0.31498,2.52002 0.945,3.36 0.62998,0.77001 1.39998,1.36501 2.31,1.785 0.97998,0.42001 1.99498,0.70001 3.045,0.84 1.11997,0.14001 2.13497,0.21001 3.045,0.21"
               style="font-family:Aller Display;-inkscape-font-specification:Aller Display Bold"
               id="path5159" />
            <path
               d="m 230.26594,234.38299 c 3.07997,6e-5 6.15996,0.28006 9.24,0.84 3.07996,0.49005 5.84495,1.57505 8.295,3.255 2.51995,1.68005 4.54995,4.09505 6.09,7.245 1.60994,3.15004 2.41494,7.31504 2.415,12.495 l 0,31.395 c -1.82005,0.35 -3.46505,0.56 -4.935,0.63 -1.47005,0.14 -2.76505,0.21 -3.885,0.21 -1.19005,0 -2.52005,-0.07 -3.99,-0.21 -1.47004,-0.07 -3.11504,-0.28 -4.935,-0.63 l 0,-29.505 c -4e-5,-3.70997 -0.70004,-6.36996 -2.1,-7.98 -1.40004,-1.60996 -3.53503,-2.41496 -6.405,-2.415 -0.77003,4e-5 -1.61003,0.07 -2.52,0.21 -0.84003,0.14004 -1.36503,0.28004 -1.575,0.42 l 0,39.27 c -1.82002,0.35 -3.46502,0.56 -4.935,0.63 -1.47002,0.14 -2.76502,0.21 -3.885,0.21 -1.19002,0 -2.52001,-0.07 -3.99,-0.21 -1.47001,-0.07 -3.11501,-0.28 -4.935,-0.63 l 0,-51.555 c 2.44999,-0.83995 5.42499,-1.64495 8.925,-2.415 3.49998,-0.83994 7.87497,-1.25994 13.125,-1.26"
               style="font-family:Aller Display;-inkscape-font-specification:Aller Display Bold"
               id="path5161" />
            <path
               d="m 292.78852,290.97799 c -5.04003,0 -9.34503,-0.735 -12.915,-2.205 -3.50002,-1.54 -6.37002,-3.605 -8.61,-6.195 -2.24001,-2.58999 -3.88501,-5.63499 -4.935,-9.135 -0.98001,-3.49998 -1.47001,-7.24498 -1.47,-11.235 -10e-6,-3.84997 0.59499,-7.48996 1.785,-10.92 1.25999,-3.42996 3.07999,-6.40495 5.46,-8.925 2.44998,-2.51995 5.45998,-4.51495 9.03,-5.985 3.56997,-1.46994 7.69997,-2.20494 12.39,-2.205 2.44996,6e-5 5.14496,0.28006 8.085,0.84 2.93995,0.56005 6.15995,1.54005 9.66,2.94 -0.0701,1.19005 -0.21005,2.31005 -0.42,3.36 -0.21005,1.05005 -0.49005,2.13505 -0.84,3.255 -0.28005,1.05004 -0.66505,2.20504 -1.155,3.465 -0.42005,1.19004 -0.94505,2.55504 -1.575,4.095 -2.38005,-0.97996 -4.58505,-1.67996 -6.615,-2.1 -2.03004,-0.48996 -3.78004,-0.73496 -5.25,-0.735 -2.31004,4e-5 -4.27003,0.35004 -5.88,1.05 -1.61003,0.70004 -2.90503,1.64504 -3.885,2.835 -0.98003,1.19004 -1.71503,2.59003 -2.205,4.2 -0.42003,1.54003 -0.63003,3.15003 -0.63,4.83 -3e-5,4.69002 1.01497,8.15502 3.045,10.395 2.02997,2.17002 5.00497,3.25501 8.925,3.255 l 1.89,0 0,-15.435 c 1.74996,-0.34997 3.28996,-0.59497 4.62,-0.735 1.39995,-0.13997 2.72995,-0.20997 3.99,-0.21 2.44995,3e-5 5.35495,0.31503 8.715,0.945 l 0,26.67 c -2.03005,0.77 -4.86505,1.61 -8.505,2.52 -3.64004,0.91 -7.87504,1.365 -12.705,1.365"
               style="font-family:Aller Display;-inkscape-font-specification:Aller Display Bold"
               id="path5163" />
          </g>
          <g
             transform="matrix(0.87719529,0,0,0.87719529,100.98306,145.40768)"
             inkscape:transform-center-x="-145.71429"
             style="font-size:72px;font-style:normal;font-variant:normal;font-weight:normal;font-stretch:normal;line-height:125%;letter-spacing:0px;word-spacing:0px;fill:#ffffff;fill-opacity:1;stroke:none;font-family:Aller;-inkscape-font-specification:Aller"
             id="flowRoot5029">
            <path
               d="m 109.8375,235.64259 c 0.76999,-0.13995 1.50499,-0.24495 2.205,-0.315 0.76999,-0.0699 1.53999,-0.10495 2.31,-0.105 0.76999,5e-5 1.46999,0.0351 2.1,0.105 0.69998,0.0701 1.43498,0.17505 2.205,0.315 0.20998,1.05005 0.41998,2.48505 0.63,4.305 0.20998,1.75004 0.31498,3.22004 0.315,4.41 0.69998,-1.18996 1.57498,-2.37996 2.625,-3.57 1.11998,-1.18995 2.37998,-2.23995 3.78,-3.15 1.39997,-0.97995 3.00997,-1.74995 4.83,-2.31 1.81997,-0.62995 3.81497,-0.94495 5.985,-0.945 6.15996,5e-5 10.70995,1.78505 13.65,5.355 2.93995,3.50004 4.40995,8.71504 4.41,15.645 l 0,34.125 c -0.77005,0.14 -1.64505,0.245 -2.625,0.315 -0.98005,0.07 -1.85505,0.105 -2.625,0.105 -0.77005,0 -1.64505,-0.035 -2.625,-0.105 -0.91004,-0.07 -1.75004,-0.175 -2.52,-0.315 l 0,-31.29 c -4e-5,-4.96997 -0.77004,-8.60996 -2.31,-10.92 -1.54004,-2.37996 -3.99004,-3.56996 -7.35,-3.57 -1.96003,4e-5 -3.81503,0.35004 -5.565,1.05 -1.75003,0.70004 -3.29002,1.78504 -4.62,3.255 -1.33002,1.47004 -2.41502,3.39503 -3.255,5.775 -0.77002,2.31003 -1.15502,5.11003 -1.155,8.4 l 0,27.3 c -0.77002,0.14 -1.64502,0.245 -2.625,0.315 -0.91002,0.07 -1.75001,0.105 -2.52,0.105 -0.77001,0 -1.64501,-0.035 -2.625,-0.105 -0.98001,-0.07 -1.85501,-0.175 -2.625,-0.315 l 0,-53.865"
               style="font-size:105px;font-family:Aller;-inkscape-font-specification:Aller"
               id="path5166" />
            <path
               d="m 192.38062,290.76759 c -4.20002,0 -7.87502,-0.7 -11.025,-2.1 -3.15001,-1.47 -5.77501,-3.465 -7.875,-5.985 -2.1,-2.51999 -3.675,-5.49499 -4.725,-8.925 -0.98,-3.42998 -1.47,-7.13998 -1.47,-11.13 0,-3.98997 0.49,-7.69997 1.47,-11.13 1.05,-3.42996 2.625,-6.40496 4.725,-8.925 2.09999,-2.51995 4.72499,-4.51495 7.875,-5.985 3.14998,-1.46995 6.82498,-2.20495 11.025,-2.205 4.19997,5e-5 7.87497,0.73505 11.025,2.205 3.14996,1.47005 5.77496,3.46505 7.875,5.985 2.09995,2.52004 3.63995,5.49504 4.62,8.925 1.04995,3.43003 1.57495,7.14003 1.575,11.13 -5e-5,3.99002 -0.52505,7.70002 -1.575,11.13 -0.98005,3.43001 -2.52005,6.40501 -4.62,8.925 -2.10004,2.52 -4.72504,4.515 -7.875,5.985 -3.15003,1.4 -6.82503,2.1 -11.025,2.1 m 0,-8.295 c 4.82997,0 8.39997,-1.74999 10.71,-5.25 2.30996,-3.49999 3.46496,-8.36498 3.465,-14.595 -4e-5,-6.22997 -1.15504,-11.05997 -3.465,-14.49 -2.31003,-3.49996 -5.88003,-5.24996 -10.71,-5.25 -4.83002,4e-5 -8.40002,1.75004 -10.71,5.25 -2.24001,3.43003 -3.36001,8.26003 -3.36,14.49 -1e-5,6.23002 1.11999,11.09501 3.36,14.595 2.30998,3.50001 5.87998,5.25 10.71,5.25"
               style="font-size:105px;font-family:Aller;-inkscape-font-specification:Aller"
               id="path5168" />
          </g>
        </g>
      </g>
    </g>
  </g>
</svg>
