<?xml version="1.0" encoding="UTF-8" standalone="no"?>
<!-- Created with Inkscape (http://www.inkscape.org/) -->

<svg
   xmlns:dc="http://purl.org/dc/elements/1.1/"
   xmlns:cc="http://creativecommons.org/ns#"
   xmlns:rdf="http://www.w3.org/1999/02/22-rdf-syntax-ns#"
   xmlns:svg="http://www.w3.org/2000/svg"
   xmlns="http://www.w3.org/2000/svg"
   xmlns:sodipodi="http://sodipodi.sourceforge.net/DTD/sodipodi-0.dtd"
   xmlns:inkscape="http://www.inkscape.org/namespaces/inkscape"
   width="500"
   height="250"
   id="svg5182"
   version="1.1"
   inkscape:version="0.48.4 r9939"
   sodipodi:docname="nhvio-logo.svg">
  <defs
     id="defs5184" />
  <sodipodi:namedview
     id="base"
     pagecolor="#ffffff"
     bordercolor="#666666"
     borderopacity="1.0"
     inkscape:pageopacity="0.0"
     inkscape:pageshadow="2"
     inkscape:zoom="0.35"
     inkscape:cx="350.85292"
     inkscape:cy="-639.38222"
     inkscape:document-units="px"
     inkscape:current-layer="layer1"
     showgrid="false"
     showguides="true"
     inkscape:guide-bbox="true"
     inkscape:window-width="1600"
     inkscape:window-height="876"
     inkscape:window-x="0"
     inkscape:window-y="24"
     inkscape:window-maximized="1" />
  <metadata
     id="metadata5187">
    <rdf:RDF>
      <cc:Work
         rdf:about="">
        <dc:format>image/svg+xml</dc:format>
        <dc:type
           rdf:resource="http://purl.org/dc/dcmitype/StillImage" />
        <dc:title></dc:title>
      </cc:Work>
    </rdf:RDF>
  </metadata>
  <g
     inkscape:label="Layer 1"
     inkscape:groupmode="layer"
     id="layer1"
     transform="translate(0,-802.36218)">
    <g
       id="text5200"
       style="font-size:40px;font-style:normal;font-weight:normal;line-height:125%;letter-spacing:0px;word-spacing:0px;fill:#ffffff;fill-opacity:1;stroke:none;font-family:Sans"
       transform="matrix(2,0,0,2,-103.18085,-848.32215)">
      <path
         inkscape:connector-curvature="0"
         id="path5836"
         style="fill:#ffffff;font-family:aller display;-inkscape-font-specification:aller display"
         d="m 156.99727,878.14546 -5.92,0 0,7.6 c -0.69334,0.10667 -1.32001,0.18667 -1.88,0.24 -0.56001,0.0533 -1.06667,0.08 -1.52,0.08 -0.45334,0 -0.96,-0.0267 -1.52,-0.08 -0.56,-0.0533 -1.17334,-0.13333 -1.84,-0.24 l 0,-20.64 c 0.58666,-0.13331 1.16,-0.22664 1.72,-0.28 0.58666,-0.0533 1.14666,-0.08 1.68,-0.08 0.50666,2e-5 1.05333,0.0267 1.64,0.08 0.58666,0.0534 1.15999,0.14669 1.72,0.28 l 0,7.04 5.92,0 0,-7.04 c 0.58665,-0.13331 1.15998,-0.22664 1.72,-0.28 0.58665,-0.0533 1.14665,-0.08 1.68,-0.08 0.50665,2e-5 1.05331,0.0267 1.64,0.08 0.58665,0.0534 1.15998,0.14669 1.72,0.28 l 0,20.64 c -0.69335,0.10667 -1.32002,0.18667 -1.88,0.24 -0.56002,0.0533 -1.06668,0.08 -1.52,0.08 -0.45335,0 -0.96002,-0.0267 -1.52,-0.08 -0.56002,-0.0533 -1.17335,-0.13333 -1.84,-0.24 l 0,-7.6" />
      <path
         inkscape:connector-curvature="0"
         id="path5838"
         style="fill:#ffffff;font-family:aller display;-inkscape-font-specification:aller display"
         d="m 167.18352,879.02546 c 0,-1.30666 0.28,-2.38666 0.84,-3.24 0.56,-0.85332 1.28,-1.53332 2.16,-2.04 0.88,-0.50665 1.85333,-0.85332 2.92,-1.04 1.06666,-0.21332 2.10666,-0.31999 3.12,-0.32 l 2.44,0 c -0.0267,-0.47998 -0.16001,-0.87998 -0.4,-1.2 -0.24001,-0.31998 -0.54668,-0.55998 -0.92,-0.72 -0.37334,-0.18665 -0.78668,-0.30665 -1.24,-0.36 -0.45334,-0.08 -0.92001,-0.11998 -1.4,-0.12 -0.64001,2e-5 -1.38667,0.08 -2.24,0.24 -0.85334,0.13335 -1.73334,0.36002 -2.64,0.68 -0.24,-0.45332 -0.45334,-0.86665 -0.64,-1.24 -0.16,-0.37332 -0.29334,-0.74665 -0.4,-1.12 -0.08,-0.39998 -0.14667,-0.79998 -0.2,-1.2 -0.0267,-0.42665 -0.04,-0.90665 -0.04,-1.44 1.28,-0.42664 2.54666,-0.74664 3.8,-0.96 1.27999,-0.21331 2.42666,-0.31998 3.44,-0.32 1.38666,2e-5 2.63999,0.17336 3.76,0.52 1.11999,0.32002 2.06665,0.82669 2.84,1.52 0.79998,0.69335 1.41332,1.58669 1.84,2.68 0.42665,1.06668 0.63998,2.34668 0.64,3.84 l 0,11.72 c -1.01335,0.29334 -2.24002,0.58667 -3.68,0.88 -1.44001,0.29333 -2.96001,0.44 -4.56,0.44 -1.38668,0 -2.66667,-0.13333 -3.84,-0.4 -1.14667,-0.24 -2.13334,-0.64 -2.96,-1.2 -0.82667,-0.56 -1.48,-1.29333 -1.96,-2.2 -0.45333,-0.93333 -0.68,-2.06666 -0.68,-3.4 m 9.44,2.24 c 0.23999,1e-5 0.58666,-0.0267 1.04,-0.08 0.45332,-0.0533 0.78665,-0.10666 1,-0.16 l 0,-4.4 -2.28,0 c -0.93334,10e-6 -1.72001,0.20001 -2.36,0.6 -0.64001,0.40001 -0.96001,0.96001 -0.96,1.68 -1e-5,0.53334 0.11999,0.96001 0.36,1.28 0.23999,0.29334 0.53333,0.52001 0.88,0.68 0.37333,0.16001 0.75999,0.26667 1.16,0.32 0.42666,0.0533 0.81332,0.08 1.16,0.08" />
      <path
         inkscape:connector-curvature="0"
         id="path5840"
         style="fill:#ffffff;font-family:aller display;-inkscape-font-specification:aller display"
         d="m 200.76104,865.10546 c 0.21331,-0.0533 0.65331,-0.10664 1.32,-0.16 0.66665,-0.0533 1.34664,-0.08 2.04,-0.08 0.87998,2e-5 1.69331,0.0267 2.44,0.08 0.77331,0.0534 1.30664,0.10669 1.6,0.16 l -7.84,20.6 c -0.56002,0.13333 -1.13335,0.21333 -1.72,0.24 -0.56002,0.0533 -1.10668,0.08 -1.64,0.08 -0.53335,0 -1.08001,-0.0267 -1.64,-0.08 -0.56001,-0.0267 -1.06668,-0.10667 -1.52,-0.24 l -7.68,-20.6 c 0.29333,-0.0533 0.81333,-0.10664 1.56,-0.16 0.77333,-0.0533 1.59999,-0.08 2.48,-0.08 0.69332,2e-5 1.38666,0.0267 2.08,0.08 0.69332,0.0534 1.14665,0.10669 1.36,0.16 l 3.64,12.4 c 0.61332,-2.05332 1.19998,-4.13332 1.76,-6.24 0.58665,-2.10665 1.17331,-4.15998 1.76,-6.16" />
      <path
         inkscape:connector-curvature="0"
         id="path5842"
         style="fill:#ffffff;font-family:aller display;-inkscape-font-specification:aller display"
         d="m 215.78294,877.58546 c 0.29332,1.09334 0.79999,1.86667 1.52,2.32 0.74665,0.45334 1.71998,0.68001 2.92,0.68 0.77332,10e-6 1.63998,-0.0933 2.6,-0.28 0.95998,-0.18666 1.90664,-0.46666 2.84,-0.84 0.37331,0.69334 0.69331,1.52001 0.96,2.48 0.29331,0.96 0.45331,1.96 0.48,3 -2.37336,0.88 -4.80002,1.32 -7.28,1.32 -1.92001,0 -3.57335,-0.26667 -4.96,-0.8 -1.36001,-0.53333 -2.48001,-1.26666 -3.36,-2.2 -0.85334,-0.96 -1.49334,-2.09333 -1.92,-3.4 -0.40001,-1.30666 -0.60001,-2.73332 -0.6,-4.28 -1e-5,-1.51999 0.21333,-2.94665 0.64,-4.28 0.42666,-1.33332 1.06666,-2.49331 1.92,-3.48 0.85332,-0.98665 1.91999,-1.75998 3.2,-2.32 1.27999,-0.58664 2.77332,-0.87998 4.48,-0.88 1.41332,2e-5 2.66665,0.24002 3.76,0.72 1.11998,0.48002 2.06664,1.14669 2.84,2 0.77331,0.82669 1.35998,1.84002 1.76,3.04 0.42664,1.17335 0.63997,2.45335 0.64,3.84 -3e-5,0.72001 -0.04,1.37334 -0.12,1.96 -0.0534,0.56001 -0.10669,1.02668 -0.16,1.4 l -12.16,0 m 3.2,-7.88 c -0.85335,2e-5 -1.58668,0.26668 -2.2,0.8 -0.61335,0.53335 -0.97335,1.36002 -1.08,2.48 l 6.4,0 c -0.0533,-0.93332 -0.34669,-1.70665 -0.88,-2.32 -0.50668,-0.63998 -1.25335,-0.95998 -2.24,-0.96" />
      <path
         inkscape:connector-curvature="0"
         id="path5844"
         style="fill:#ffffff;font-family:aller display;-inkscape-font-specification:aller display"
         d="m 239.86731,864.70546 c 1.17332,2e-5 2.34665,0.10669 3.52,0.32 1.17332,0.18669 2.22665,0.60002 3.16,1.24 0.95998,0.64002 1.73331,1.56002 2.32,2.76 0.61331,1.20002 0.91998,2.78668 0.92,4.76 l 0,11.96 c -0.69335,0.13333 -1.32002,0.21333 -1.88,0.24 -0.56002,0.0533 -1.05335,0.08 -1.48,0.08 -0.45335,0 -0.96002,-0.0267 -1.52,-0.08 -0.56001,-0.0267 -1.18668,-0.10667 -1.88,-0.24 l 0,-11.24 c -1e-5,-1.41332 -0.26668,-2.42665 -0.8,-3.04 -0.53335,-0.61332 -1.34668,-0.91998 -2.44,-0.92 -0.29334,2e-5 -0.61334,0.0267 -0.96,0.08 -0.32001,0.0534 -0.52001,0.10668 -0.6,0.16 l 0,14.96 c -0.69334,0.13333 -1.32001,0.21333 -1.88,0.24 -0.56001,0.0533 -1.05334,0.08 -1.48,0.08 -0.45334,0 -0.96,-0.0267 -1.52,-0.08 -0.56,-0.0267 -1.18667,-0.10667 -1.88,-0.24 l 0,-19.64 c 0.93333,-0.31998 2.06666,-0.62664 3.4,-0.92 1.33333,-0.31998 2.99999,-0.47998 5,-0.48" />
    </g>
    <g
       id="text5208-7"
       style="font-size:40px;font-style:normal;font-weight:normal;line-height:125%;letter-spacing:0px;word-spacing:0px;fill:#ffffff;fill-opacity:1;stroke:none;font-family:Aller Light;-inkscape-font-specification:Aller Light"
       transform="matrix(2,0,0,2,-103.18085,-848.32215)">
      <path
         inkscape:connector-curvature="0"
         id="path5861"
         style="fill:#ffffff;font-family:Aller Light;-inkscape-font-specification:Aller Light"
         d="m 68.908115,865.38546 c 0.21333,-0.0266 0.413329,-0.04 0.6,-0.04 0.213329,-0.0266 0.413329,-0.04 0.6,-0.04 0.213328,2e-5 0.413328,0.0134 0.6,0.04 0.186661,2e-5 0.386661,0.0134 0.6,0.04 0.05333,0.48002 0.09333,1.08002 0.12,1.8 0.02666,0.72002 0.03999,1.34669 0.04,1.88 0.26666,-0.47998 0.613327,-0.95998 1.04,-1.44 0.426659,-0.50665 0.919992,-0.95998 1.48,-1.36 0.586657,-0.39998 1.253323,-0.71998 2,-0.96 0.746655,-0.26664 1.559988,-0.39998 2.44,-0.4 2.346651,2e-5 4.053316,0.70669 5.12,2.12 1.066647,1.38669 1.59998,3.34668 1.6,5.88 l 0,12.88 c -0.16002,0.0267 -0.386686,0.04 -0.68,0.04 -0.266686,0.0267 -0.480019,0.04 -0.64,0.04 -0.133352,0 -0.346685,-0.0133 -0.64,-0.04 -0.293351,0 -0.520017,-0.0133 -0.68,-0.04 l 0,-12.08 c -1.7e-5,-2.26665 -0.360017,-3.89332 -1.08,-4.88 -0.693349,-0.98665 -1.746681,-1.47998 -3.16,-1.48 -0.933345,2e-5 -1.813344,0.18669 -2.64,0.56 -0.826676,0.37335 -1.546675,0.92002 -2.16,1.64 -0.586674,0.69335 -1.05334,1.56002 -1.4,2.6 -0.346673,1.04001 -0.520006,2.22668 -0.52,3.56 l 0,10.08 c -0.160006,0.0267 -0.386673,0.04 -0.68,0.04 -0.266672,0.0267 -0.480005,0.04 -0.64,0.04 -0.133338,0 -0.346671,-0.0133 -0.64,-0.04 -0.293337,0 -0.520004,-0.0133 -0.68,-0.04 l 0,-20.4" />
      <path
         inkscape:connector-curvature="0"
         id="path5863"
         style="fill:#ffffff;font-family:Aller Light;-inkscape-font-specification:Aller Light"
         d="m 93.47874,875.98546 c -5e-6,2.72001 0.626661,4.72001 1.88,6 1.253325,1.28 3.133323,1.92 5.64,1.92 1.01332,0 1.94665,-0.08 2.8,-0.24 0.87998,-0.18666 1.73332,-0.42666 2.56,-0.72 0.13332,0.29334 0.23998,0.65334 0.32,1.08 0.08,0.42667 0.13331,0.81334 0.16,1.16 -0.77335,0.34667 -1.68002,0.61333 -2.72,0.8 -1.04001,0.18667 -2.17335,0.28 -3.4,0.28 -1.760011,0 -3.280009,-0.25333 -4.56,-0.76 -1.25334,-0.53333 -2.293339,-1.26666 -3.12,-2.2 -0.800004,-0.93333 -1.400003,-2.03999 -1.8,-3.32 -0.373336,-1.30666 -0.560002,-2.73332 -0.56,-4.28 -2e-6,-1.49332 0.173331,-2.89332 0.52,-4.2 0.37333,-1.30665 0.919996,-2.45332 1.64,-3.44 0.746661,-0.98665 1.693327,-1.75998 2.84,-2.32 1.146658,-0.55998 2.51999,-0.83998 4.12,-0.84 1.33332,2e-5 2.51999,0.22669 3.56,0.68 1.03998,0.45335 1.90665,1.09335 2.6,1.92 0.71998,0.80002 1.25331,1.77335 1.6,2.92 0.37331,1.12002 0.55998,2.34668 0.56,3.68 -2e-5,0.24001 -0.0134,0.54668 -0.04,0.92 -2e-5,0.37335 -0.0134,0.69334 -0.04,0.96 l -14.56,0 m 12,-2.2 c -2e-5,-0.82665 -0.10668,-1.63998 -0.32,-2.44 -0.21335,-0.79998 -0.54668,-1.49332 -1,-2.08 -0.45335,-0.61331 -1.04001,-1.10665 -1.76,-1.48 -0.72001,-0.37331 -1.58668,-0.55998 -2.6,-0.56 -1.866676,2e-5 -3.320008,0.57335 -4.36,1.72 -1.040006,1.14668 -1.666672,2.76002 -1.88,4.84 l 11.92,0" />
      <path
         inkscape:connector-curvature="0"
         id="path5865"
         style="fill:#ffffff;font-family:Aller Light;-inkscape-font-specification:Aller Light"
         d="m 111.10814,865.38546 c 0.16,-0.0266 0.36,-0.04 0.6,-0.04 0.26666,-0.0266 0.53333,-0.04 0.8,-0.04 0.21333,2e-5 0.46666,0.0134 0.76,0.04 0.32,2e-5 0.56,0.0134 0.72,0.04 l 4.52,17.36 5.04,-17.36 c 0.21332,-0.0266 0.43999,-0.04 0.68,-0.04 0.26665,-0.0266 0.54665,-0.04 0.84,-0.04 0.21332,2e-5 0.42665,2e-5 0.64,0 0.23998,2e-5 0.46665,0.0267 0.68,0.08 l 5.04,17.12 4.52,-17.12 c 0.15997,-0.0266 0.34664,-0.04 0.56,-0.04 0.23997,-0.0266 0.46664,-0.04 0.68,-0.04 0.21331,2e-5 0.4533,0.0134 0.72,0.04 0.26664,2e-5 0.47997,0.0134 0.64,0.04 l -5.88,20.4 c -0.48002,0.08 -0.94669,0.12 -1.4,0.12 -0.50669,0 -0.97335,-0.04 -1.4,-0.12 l -4.92,-16.88 -5.16,16.88 c -0.48001,0.08 -0.94668,0.12 -1.4,0.12 -0.50668,0 -0.97334,-0.04 -1.4,-0.12 l -5.88,-20.4" />
    </g>
    <g
       id="text5208-1"
       style="font-size:40px;font-style:normal;font-weight:normal;line-height:125%;letter-spacing:0px;word-spacing:0px;fill:#ffffff;fill-opacity:1;stroke:none;font-family:Aller Light;-inkscape-font-specification:Aller Light"
       transform="matrix(2,0,0,2,-103.18085,-848.32215)">
      <path
         inkscape:connector-curvature="0"
         id="path5868"
         style="fill:#ffffff;font-family:Aller Light;-inkscape-font-specification:Aller Light"
         d="m 255.67646,885.78546 c -0.08,-0.56 -0.12,-1.12 -0.12,-1.68 0,-0.58666 0.04,-1.16 0.12,-1.72 0.56,-0.08 1.12,-0.12 1.68,-0.12 0.58666,0 1.15999,0.04 1.72,0.12 0.08,0.56 0.11999,1.12 0.12,1.68 -10e-6,0.58667 -0.04,1.16 -0.12,1.72 -0.56001,0.08 -1.12001,0.12 -1.68,0.12 -0.58667,0 -1.16,-0.04 -1.72,-0.12" />
      <path
         inkscape:connector-curvature="0"
         id="path5870"
         style="fill:#ffffff;font-family:Aller Light;-inkscape-font-specification:Aller Light"
         d="m 266.23958,867.62546 -2.56,0 c -0.0267,-0.13331 -0.0533,-0.29331 -0.08,-0.48 0,-0.18665 0,-0.38665 0,-0.6 0,-0.21331 0,-0.42665 0,-0.64 0.0267,-0.21331 0.0533,-0.38664 0.08,-0.52 l 5.2,0 0,20.4 c -0.16,0.0267 -0.38667,0.04 -0.68,0.04 -0.26667,0.0267 -0.48,0.04 -0.64,0.04 -0.13334,0 -0.34667,-0.0133 -0.64,-0.04 -0.29333,0 -0.52,-0.0133 -0.68,-0.04 l 0,-18.16 m -1.32,-7.24 c -0.0267,-0.23997 -0.0533,-0.53331 -0.08,-0.88 0,-0.34664 0,-0.63997 0,-0.88 0,-0.2133 0,-0.47997 0,-0.8 0.0267,-0.31997 0.0533,-0.58664 0.08,-0.8 0.24,-0.0266 0.53333,-0.04 0.88,-0.04 0.34667,-0.0266 0.64,-0.04 0.88,-0.04 0.21333,3e-5 0.48,0.0134 0.8,0.04 0.32,3e-5 0.58666,0.0134 0.8,0.04 0.0267,0.21336 0.04,0.48003 0.04,0.8 0.0267,0.32003 0.04,0.5867 0.04,0.8 0,0.24003 -0.0133,0.53336 -0.04,0.88 0,0.34669 -0.0133,0.64003 -0.04,0.88 -0.21334,0.0267 -0.48,0.0534 -0.8,0.08 -0.32,3e-5 -0.58667,3e-5 -0.8,0 -0.24,3e-5 -0.53333,3e-5 -0.88,0 -0.34667,-0.0266 -0.64,-0.0533 -0.88,-0.08" />
      <path
         inkscape:connector-curvature="0"
         id="path5872"
         style="fill:#ffffff;font-family:Aller Light;-inkscape-font-specification:Aller Light"
         d="m 283.89708,883.94546 c 2.13332,0 3.71999,-0.74666 4.76,-2.24 1.06665,-1.49333 1.59999,-3.53332 1.6,-6.12 -10e-6,-2.58665 -0.53335,-4.62665 -1.6,-6.12 -1.04001,-1.49331 -2.62668,-2.23998 -4.76,-2.24 -2.13334,2e-5 -3.73334,0.74669 -4.8,2.24 -1.04,1.49335 -1.56,3.53335 -1.56,6.12 0,2.58668 0.52,4.62667 1.56,6.12 1.06666,1.49334 2.66666,2.24 4.8,2.24 m 0,2.32 c -1.52001,0 -2.85334,-0.26667 -4,-0.8 -1.14667,-0.56 -2.10667,-1.32 -2.88,-2.28 -0.74667,-0.96 -1.30667,-2.09333 -1.68,-3.4 -0.37333,-1.30666 -0.56,-2.70666 -0.56,-4.2 0,-1.49332 0.18667,-2.89332 0.56,-4.2 0.37333,-1.30665 0.93333,-2.43998 1.68,-3.4 0.77333,-0.95998 1.73333,-1.70665 2.88,-2.24 1.14666,-0.55998 2.47999,-0.83998 4,-0.84 1.51999,2e-5 2.83999,0.28002 3.96,0.84 1.14665,0.53335 2.09332,1.28002 2.84,2.24 0.77332,0.96002 1.34665,2.09335 1.72,3.4 0.39998,1.30668 0.59998,2.70668 0.6,4.2 -2e-5,1.49334 -0.20002,2.89334 -0.6,4.2 -0.37335,1.30667 -0.94668,2.44 -1.72,3.4 -0.74668,0.96 -1.69335,1.72 -2.84,2.28 -1.12001,0.53333 -2.44001,0.8 -3.96,0.8" />
    </g>
  </g>
</svg>
